<svg width="53" height="53" viewBox="0 0 53 53" fill="none" xmlns="http://www.w3.org/2000/svg">
<circle cx="26.3889" cy="26.3889" r="26.3889" fill="#181818"/>
<path d="M26.3594 38.841C33.2402 38.841 38.8182 33.263 38.8182 26.3822C38.8182 19.5014 33.2402 13.9233 26.3594 13.9233C19.4785 13.9233 13.9005 19.5014 13.9005 26.3822C13.9005 33.263 19.4785 38.841 26.3594 38.841Z" stroke="white" stroke-width="2" stroke-linecap="round" stroke-linejoin="round"/>
<path d="M16.1847 33.572L17.7031 32.6505C17.8537 32.5577 17.9781 32.4278 18.0644 32.2734C18.1507 32.1189 18.1961 31.945 18.1963 31.768L18.2222 27.083C18.2243 26.8888 18.2829 26.6994 18.3909 26.5379L20.9606 22.5018C21.0377 22.3825 21.1382 22.2801 21.2559 22.2008C21.3737 22.1214 21.5063 22.0668 21.6458 22.0401C21.7853 22.0134 21.9287 22.0153 22.0675 22.0455C22.2062 22.0758 22.3374 22.1339 22.453 22.2163L24.9967 24.0591C25.2162 24.2121 25.4833 24.2812 25.7494 24.2538L29.8375 23.6958C30.0855 23.6616 30.3121 23.5368 30.4734 23.3453L33.3545 20.023C33.5254 19.8205 33.6134 19.5609 33.6011 19.2962L33.4584 16.1426" stroke="white" stroke-width="2" stroke-linecap="round" stroke-linejoin="round"/>
<path d="M34.0293 36.2066L32.6277 34.805C32.498 34.6754 32.3371 34.5815 32.1605 34.5324L29.3702 33.8057C29.1252 33.7386 28.9132 33.584 28.7745 33.3711C28.6358 33.1583 28.5799 32.9019 28.6175 32.6506L28.916 30.5482C28.9456 30.3714 29.0195 30.2049 29.1306 30.0642C29.2418 29.9236 29.3867 29.8133 29.5519 29.7436L33.4972 28.0954C33.6805 28.019 33.8818 27.9967 34.0773 28.0312C34.2728 28.0657 34.4543 28.1555 34.6004 28.29L37.8319 31.249" stroke="white" stroke-width="2" stroke-linecap="round" stroke-linejoin="round"/>
</svg>
