<svg width="53" height="53" viewBox="0 0 53 53" fill="none" xmlns="http://www.w3.org/2000/svg">
<circle cx="26.3889" cy="26.3889" r="26.3889" fill="#181818"/>
<path d="M27.1146 32.0885C30.4929 32.0885 33.2316 29.3498 33.2316 25.9715C33.2316 22.5932 30.4929 19.8545 27.1146 19.8545C23.7362 19.8545 20.9976 22.5932 20.9976 25.9715C20.9976 29.3498 23.7362 32.0885 27.1146 32.0885Z" stroke="white" stroke-width="2" stroke-linecap="round" stroke-linejoin="round"/>
<path d="M35.7182 20.0055C36.0258 20.4402 36.2952 20.9002 36.5233 21.3803L39.8334 23.1967C40.2467 25.0237 40.251 26.9178 39.8461 28.7466L36.5233 30.563C36.2952 31.0431 36.0258 31.5031 35.7182 31.9378L35.7821 35.6841C34.3792 36.9457 32.7189 37.8962 30.9128 38.4716L27.6539 36.5418C27.1178 36.5796 26.5797 36.5796 26.0436 36.5418L22.7975 38.459C20.9856 37.8941 19.3198 36.9472 17.9155 35.6841L17.9794 31.9505C17.6743 31.5097 17.405 31.0457 17.1742 30.563L13.8642 28.7466C13.4508 26.9196 13.4465 25.0256 13.8514 23.1967L17.1742 21.3803C17.4023 20.9002 17.6717 20.4402 17.9794 20.0055L17.9155 16.2593C19.3183 14.9976 20.9786 14.0471 22.7847 13.4717L26.0436 15.4015C26.5797 15.3637 27.1178 15.3637 27.6539 15.4015L30.9 13.4843C32.7119 14.0492 34.3777 14.9961 35.7821 16.2593L35.7182 20.0055Z" stroke="white" stroke-width="2" stroke-linecap="round" stroke-linejoin="round"/>
</svg>
