<svg width="209" height="52" viewBox="0 0 209 52" fill="none" xmlns="http://www.w3.org/2000/svg">
<path d="M64.68 14.64H67.38C67.4333 15.0933 67.64 15.5067 68 15.88C68.3733 16.24 68.86 16.5267 69.46 16.74C70.06 16.94 70.7333 17.04 71.48 17.04C72.16 17.04 72.72 16.9667 73.16 16.82C73.6 16.6733 73.9267 16.4667 74.14 16.2C74.3533 15.9333 74.46 15.6133 74.46 15.24C74.46 14.88 74.3267 14.6067 74.06 14.42C73.7933 14.22 73.3733 14.06 72.8 13.94C72.2267 13.8067 71.4733 13.6733 70.54 13.54C69.8067 13.4333 69.1133 13.2867 68.46 13.1C67.8067 12.9 67.2267 12.6467 66.72 12.34C66.2267 12.0333 65.8333 11.66 65.54 11.22C65.26 10.7667 65.12 10.2333 65.12 9.62C65.12 8.86 65.3333 8.19333 65.76 7.62C66.2 7.04667 66.8467 6.6 67.7 6.28C68.5533 5.96 69.6 5.8 70.84 5.8C72.7067 5.8 74.14 6.2 75.14 7C76.1533 7.78667 76.6467 8.87333 76.62 10.26H74.02C73.9667 9.47333 73.6333 8.90667 73.02 8.56C72.42 8.21333 71.66 8.04 70.74 8.04C69.8867 8.04 69.18 8.16667 68.62 8.42C68.0733 8.67333 67.8 9.10667 67.8 9.72C67.8 9.96 67.8667 10.1733 68 10.36C68.1333 10.5333 68.36 10.6867 68.68 10.82C69 10.9533 69.4333 11.08 69.98 11.2C70.5267 11.32 71.2067 11.44 72.02 11.56C72.78 11.6667 73.4667 11.8133 74.08 12C74.7067 12.1733 75.24 12.4067 75.68 12.7C76.1333 12.98 76.48 13.34 76.72 13.78C76.96 14.22 77.08 14.76 77.08 15.4C77.08 16.1867 76.8733 16.8733 76.46 17.46C76.06 18.0333 75.4333 18.48 74.58 18.8C73.74 19.12 72.6467 19.28 71.3 19.28C70.34 19.28 69.4933 19.18 68.76 18.98C68.0267 18.7667 67.3933 18.4867 66.86 18.14C66.3267 17.7933 65.8933 17.4133 65.56 17C65.2267 16.5867 64.9867 16.1733 64.84 15.76C64.7067 15.3467 64.6533 14.9733 64.68 14.64ZM89.5867 6.06H103.227V8.28H89.5867V6.06ZM95.0867 8H97.7467V19H95.0867V8ZM128.34 13.28V6.06H131V13.56C131 14.4133 130.874 15.16 130.62 15.8C130.38 16.44 130.034 16.98 129.58 17.42C129.127 17.86 128.594 18.22 127.98 18.5C127.38 18.7667 126.72 18.96 126 19.08C125.294 19.2 124.547 19.26 123.76 19.26C122.947 19.26 122.174 19.2 121.44 19.08C120.707 18.96 120.034 18.7667 119.42 18.5C118.82 18.22 118.3 17.86 117.86 17.42C117.42 16.98 117.074 16.44 116.82 15.8C116.58 15.16 116.46 14.4133 116.46 13.56V6.06H119.12V13.28C119.12 14.2933 119.32 15.0667 119.72 15.6C120.12 16.12 120.667 16.48 121.36 16.68C122.067 16.8667 122.867 16.96 123.76 16.96C124.627 16.96 125.4 16.8667 126.08 16.68C126.774 16.48 127.32 16.12 127.72 15.6C128.134 15.0667 128.34 14.2933 128.34 13.28ZM152.778 6.06C154.231 6.06 155.444 6.23333 156.418 6.58C157.391 6.92667 158.164 7.4 158.738 8C159.324 8.58667 159.738 9.26667 159.978 10.04C160.231 10.8133 160.358 11.6267 160.358 12.48C160.358 13.3333 160.218 14.1533 159.938 14.94C159.671 15.7267 159.238 16.4267 158.638 17.04C158.051 17.64 157.271 18.12 156.298 18.48C155.338 18.8267 154.164 19 152.778 19H145.378V6.06H152.778ZM148.038 16.72H152.718C153.678 16.72 154.471 16.6067 155.098 16.38C155.738 16.14 156.244 15.82 156.618 15.42C156.991 15.02 157.258 14.5667 157.418 14.06C157.578 13.5533 157.658 13.0267 157.658 12.48C157.658 11.9333 157.578 11.4133 157.418 10.92C157.258 10.4267 156.991 9.98667 156.618 9.6C156.244 9.21333 155.738 8.90667 155.098 8.68C154.471 8.45333 153.678 8.34 152.718 8.34H148.038V16.72ZM174.636 6.06H177.296V19H174.636V6.06ZM199.74 19.26C198.02 19.26 196.547 18.9933 195.32 18.46C194.107 17.9133 193.173 17.14 192.52 16.14C191.88 15.14 191.56 13.94 191.56 12.54C191.56 11.1267 191.88 9.92 192.52 8.92C193.173 7.92 194.107 7.15333 195.32 6.62C196.547 6.07333 198.02 5.8 199.74 5.8C201.473 5.8 202.947 6.07333 204.16 6.62C205.373 7.15333 206.3 7.92 206.94 8.92C207.593 9.92 207.92 11.1267 207.92 12.54C207.92 13.94 207.593 15.14 206.94 16.14C206.3 17.14 205.373 17.9133 204.16 18.46C202.947 18.9933 201.473 19.26 199.74 19.26ZM199.74 16.96C200.807 16.96 201.74 16.8 202.54 16.48C203.353 16.16 203.987 15.6733 204.44 15.02C204.907 14.3667 205.14 13.54 205.14 12.54C205.14 11.54 204.907 10.7133 204.44 10.06C203.987 9.40667 203.353 8.92 202.54 8.6C201.74 8.26667 200.807 8.1 199.74 8.1C198.687 8.1 197.747 8.26667 196.92 8.6C196.093 8.92 195.447 9.40667 194.98 10.06C194.513 10.7133 194.28 11.54 194.28 12.54C194.28 13.54 194.513 14.3667 194.98 15.02C195.447 15.6733 196.093 16.16 196.92 16.48C197.747 16.8 198.687 16.96 199.74 16.96ZM72.98 43.26C71.78 43.26 70.6933 43.12 69.72 42.84C68.76 42.56 67.9267 42.14 67.22 41.58C66.5267 41.02 65.9933 40.3267 65.62 39.5C65.2467 38.6733 65.06 37.72 65.06 36.64C65.06 35.5467 65.2533 34.58 65.64 33.74C66.04 32.8867 66.6 32.1667 67.32 31.58C68.0533 30.9933 68.92 30.5533 69.92 30.26C70.9333 29.9533 72.0533 29.8 73.28 29.8C74.7333 29.8 75.9867 30.0067 77.04 30.42C78.0933 30.82 78.92 31.3867 79.52 32.12C80.1333 32.8533 80.48 33.7267 80.56 34.74H78C77.8267 34.2067 77.54 33.7467 77.14 33.36C76.7533 32.96 76.24 32.6533 75.6 32.44C74.96 32.2133 74.1867 32.1 73.28 32.1C72.12 32.1 71.1267 32.2867 70.3 32.66C69.4867 33.0333 68.8667 33.56 68.44 34.24C68.0133 34.92 67.8 35.72 67.8 36.64C67.8 37.5333 67.9867 38.3067 68.36 38.96C68.7333 39.6 69.3067 40.0933 70.08 40.44C70.8667 40.7867 71.8667 40.96 73.08 40.96C74.0133 40.96 74.8333 40.84 75.54 40.6C76.26 40.3467 76.86 40.0133 77.34 39.6C77.82 39.1733 78.16 38.7 78.36 38.18L79.4 37.8C79.2267 39.52 78.5733 40.86 77.44 41.82C76.32 42.78 74.8333 43.26 72.98 43.26ZM78.72 43C78.72 42.5867 78.7467 42.1133 78.8 41.58C78.8533 41.0333 78.92 40.4867 79 39.94C79.08 39.38 79.1533 38.8667 79.22 38.4H73.3V36.7H81.02V43H78.72ZM98.9212 43V30.06H107.701C108.701 30.06 109.568 30.2 110.301 30.48C111.048 30.7467 111.628 31.1733 112.041 31.76C112.455 32.3333 112.661 33.0733 112.661 33.98C112.661 34.5933 112.555 35.1133 112.341 35.54C112.128 35.9667 111.828 36.3133 111.441 36.58C111.068 36.8467 110.635 37.0533 110.141 37.2C109.648 37.3333 109.121 37.42 108.561 37.46L108.281 37.3C109.215 37.3133 109.981 37.3933 110.581 37.54C111.181 37.6733 111.628 37.9267 111.921 38.3C112.228 38.66 112.381 39.2 112.381 39.92V43H109.721V40.1C109.721 39.6067 109.635 39.2267 109.461 38.96C109.288 38.68 108.975 38.4867 108.521 38.38C108.081 38.2733 107.441 38.22 106.601 38.22H101.581V43H98.9212ZM101.581 36.14H107.701C108.448 36.14 109.015 35.96 109.401 35.6C109.801 35.24 110.001 34.7533 110.001 34.14C110.001 33.5533 109.801 33.1067 109.401 32.8C109.015 32.4933 108.448 32.34 107.701 32.34H101.581V36.14ZM133.205 37.6V40.78H143.185V43H130.545V30.06H143.165V32.28H133.205V35.5H141.365V37.6H133.205ZM163.676 37.6V40.78H173.656V43H161.016V30.06H173.636V32.28H163.676V35.5H171.836V37.6H163.676ZM204.607 40.36L203.767 40.7V30.06H206.427V43H203.767L193.307 32.78L194.147 32.44V43H191.487V30.06H194.147L204.607 40.36Z" fill="#7c7c7c"/>
<path d="M25.8043 0L27.283 17.4183L34.6299 1.55619L30.062 18.4297L42.391 6.03706L32.3275 20.3307L48.1515 12.9022L33.8062 22.8919L51.2166 21.3234L34.3197 25.8043L51.2166 30.2852L33.8062 28.7168L48.1515 38.7065L32.3275 31.2779L42.391 45.5716L30.062 33.1789L34.6299 50.0525L27.283 34.1904L25.8043 51.6086L24.3256 34.1904L16.9787 50.0525L21.5466 33.1789L9.21762 45.5716L19.2811 31.2779L3.45712 38.7065L17.8024 28.7168L0.392025 30.2852L17.2889 25.8043L0.392025 21.3234L17.8024 22.8919L3.45712 12.9022L19.2811 20.3307L9.21762 6.03706L21.5466 18.4297L16.9787 1.55619L24.3256 17.4183L25.8043 0Z" fill="#7c7c7c"/>
</svg>
