<svg width="99" height="91" viewBox="0 0 99 91" fill="none" xmlns="http://www.w3.org/2000/svg">
<circle cx="23.7884" cy="66.3158" r="23.7884" fill="#DDDDDD"/>
<path d="M79.3853 2.03188C79.535 1.57123 80.1867 1.57123 80.3364 2.03189L81.2599 4.87423C81.3268 5.08024 81.5188 5.21972 81.7354 5.21972H84.724C85.2084 5.21972 85.4098 5.83952 85.0179 6.12422L82.6001 7.88089C82.4249 8.00821 82.3515 8.23389 82.4185 8.4399L83.342 11.2822C83.4917 11.7429 82.9644 12.126 82.5726 11.8413L80.1547 10.0846C79.9795 9.95728 79.7422 9.95728 79.5669 10.0846L77.1491 11.8413C76.7573 12.126 76.23 11.7429 76.3797 11.2822L77.3032 8.4399C77.3702 8.23389 77.2968 8.00821 77.1216 7.88089L74.7037 6.12422C74.3119 5.83952 74.5133 5.21972 74.9976 5.21972H77.9863C78.2029 5.21972 78.3948 5.08024 78.4618 4.87422L79.3853 2.03188Z" fill="#141414"/>
<path d="M29.6981 77.4474C29.9703 77.7196 29.8457 78.1843 29.474 78.2839L19.1644 81.0463C18.7926 81.146 18.4524 80.8058 18.552 80.434L21.3145 70.1244C21.4141 69.7526 21.8788 69.6281 22.151 69.9003L29.6981 77.4474Z" fill="#4EAF4E"/>
<circle cx="91.6049" cy="24.2706" r="7.25703" fill="#DADADA"/>
<path d="M31.2994 61.9684C35.1132 68.5739 41.3947 73.394 48.7623 75.3681C56.1298 77.3422 63.9798 76.3087 70.5854 72.495C77.191 68.6813 82.011 62.3997 83.9851 55.0322C85.9592 47.6646 84.9258 39.8146 81.112 33.2091L56.2057 47.5887L31.2994 61.9684Z" fill="#FFCC4A"/>
<path d="M55.9789 46.759V17.7167" stroke="#141414" stroke-width="2" stroke-linecap="round" stroke-linejoin="round"/>
<path d="M81.1186 32.2379L30.8391 61.2802" stroke="#141414" stroke-width="2" stroke-linecap="round" stroke-linejoin="round"/>
<path d="M27.4206 52.0835C27.0904 50.3281 26.9283 48.5452 26.9365 46.759C26.9327 40.7527 28.7932 34.8932 32.2612 29.9893C35.7292 25.0853 40.6338 21.3786 46.2981 19.3806V41.1623L27.4206 52.0835Z" fill="#4EAF4E" stroke="#141414" stroke-width="2" stroke-linecap="round" stroke-linejoin="round"/>
<path d="M27.4206 52.0835C27.0904 50.3281 26.9283 48.5452 26.9365 46.759C26.9327 40.7527 28.7932 34.8932 32.2612 29.9893C35.7292 25.0853 40.6338 21.3786 46.2981 19.3806V41.1623L27.4206 52.0835Z" stroke="#141414" stroke-width="2" stroke-linecap="round" stroke-linejoin="round"/>
<path d="M55.9789 17.7167C61.0678 17.7173 66.0673 19.055 70.4765 21.5959C74.8857 24.1369 78.5498 27.7917 81.1019 32.1945C83.654 36.5973 85.0043 41.5933 85.0178 46.6823C85.0312 51.7712 83.7073 56.7743 81.1785 61.1905C78.6497 65.6067 75.0049 69.2809 70.6092 71.8451C66.2135 74.4093 61.2212 75.7734 56.1323 75.8009C51.0434 75.8283 46.0366 74.5181 41.6135 72.0016C37.1904 69.485 33.5062 65.8503 30.9299 61.4617" stroke="#141414" stroke-width="2" stroke-linecap="round" stroke-linejoin="round"/>
</svg>
