<svg width="94" height="89" viewBox="0 0 94 89" fill="none" xmlns="http://www.w3.org/2000/svg">
<path d="M16.058 20.436H19.964V59H15.314L7.316 29.116V59H3.41V20.436H8.37L16.058 49.266V20.436ZM27.6491 20.436H33.9731C37.2384 20.436 38.8711 22.0687 38.8711 25.334V54.102C38.8711 57.3673 37.2384 59 33.9731 59H27.6491C24.3838 59 22.7511 57.3673 22.7511 54.102V25.334C22.7511 22.0687 24.3838 20.436 27.6491 20.436ZM34.6551 53.42V26.016C34.6551 25.1893 34.5311 24.6727 34.2831 24.466C34.0351 24.218 33.5184 24.094 32.7331 24.094H28.8891C28.1038 24.094 27.5871 24.218 27.3391 24.466C27.0911 24.6727 26.9671 25.1893 26.9671 26.016V53.42C26.9671 54.2467 27.0911 54.784 27.3391 55.032C27.5871 55.2387 28.1038 55.342 28.8891 55.342H32.7331C33.5184 55.342 34.0351 55.2387 34.2831 55.032C34.5311 54.784 34.6551 54.2467 34.6551 53.42ZM45.8989 42.88V59H41.6829V20.436H52.9049C56.1702 20.436 57.8029 22.0687 57.8029 25.334V37.982C57.8029 40.9167 56.5216 42.5287 53.9589 42.818L59.7869 59H55.1989L49.5569 42.88H45.8989ZM45.8989 24.094V39.222H51.6649C52.4916 39.222 53.0082 39.1187 53.2149 38.912C53.4629 38.664 53.5869 38.1267 53.5869 37.3V26.016C53.5869 25.1893 53.4629 24.6727 53.2149 24.466C53.0082 24.218 52.4916 24.094 51.6649 24.094H45.8989ZM74.0629 20.436V24.094H67.8629V59H63.6469V24.094H57.4469V20.436H74.0629ZM78.6707 20.436H84.9947C88.2601 20.436 89.8927 22.0687 89.8927 25.334V54.102C89.8927 57.3673 88.2601 59 84.9947 59H78.6707C75.4054 59 73.7727 57.3673 73.7727 54.102V25.334C73.7727 22.0687 75.4054 20.436 78.6707 20.436ZM85.6767 53.42V26.016C85.6767 25.1893 85.5527 24.6727 85.3047 24.466C85.0567 24.218 84.5401 24.094 83.7547 24.094H79.9107C79.1254 24.094 78.6087 24.218 78.3607 24.466C78.1127 24.6727 77.9887 25.1893 77.9887 26.016V53.42C77.9887 54.2467 78.1127 54.784 78.3607 55.032C78.6087 55.2387 79.1254 55.342 79.9107 55.342H83.7547C84.5401 55.342 85.0567 55.2387 85.3047 55.032C85.5527 54.784 85.6767 54.2467 85.6767 53.42Z" fill="#7c7c7c"/>
</svg>
