<svg width="97" height="72" viewBox="0 0 97 72" fill="none" xmlns="http://www.w3.org/2000/svg">
<circle cx="65.7935" cy="27.653" r="23.7884" fill="#EFEFEF"/>
<path d="M35.366 1.73306C35.5157 1.2724 36.1674 1.2724 36.3171 1.73306L37.4626 5.25877C37.5296 5.46478 37.7215 5.60426 37.9382 5.60426H41.6453C42.1297 5.60426 42.3311 6.22407 41.9392 6.50877L38.94 8.68778C38.7648 8.8151 38.6915 9.04078 38.7584 9.24679L39.904 12.7725C40.0537 13.2332 39.5264 13.6162 39.1346 13.3315L36.1354 11.1525C35.9602 11.0252 35.7229 11.0252 35.5476 11.1525L32.5485 13.3315C32.1566 13.6162 31.6294 13.2332 31.7791 12.7725L32.9246 9.24679C32.9916 9.04078 32.9182 8.8151 32.743 8.68778L29.7438 6.50877C29.352 6.22407 29.5534 5.60426 30.0377 5.60426H33.7449C33.9615 5.60426 34.1535 5.46478 34.2204 5.25877L35.366 1.73306Z" fill="#FFCC4A"/>
<path d="M15.3687 63.8021C15.6409 64.0743 15.5163 64.539 15.1445 64.6386L4.83497 67.4011C4.46319 67.5007 4.12298 67.1605 4.2226 66.7887L6.98504 56.4791C7.08466 56.1074 7.54939 55.9828 7.82156 56.255L15.3687 63.8021Z" fill="#4EAF4E"/>
<circle cx="90.7916" cy="20.2525" r="5.88667" fill="#D0D0D0"/>
<path d="M77.1839 22.5797H29.6749C28.4822 22.5797 27.5154 23.5466 27.5154 24.7392V57.1317C27.5154 58.3244 28.4822 59.2912 29.6749 59.2912H77.1839C78.3766 59.2912 79.3434 58.3244 79.3434 57.1317V24.7392C79.3434 23.5466 78.3766 22.5797 77.1839 22.5797Z" fill="white" stroke="white" stroke-width="2" stroke-linecap="round" stroke-linejoin="round"/>
<path d="M77.1839 22.5797H29.6749C28.4822 22.5797 27.5154 23.5466 27.5154 24.7392V57.1317C27.5154 58.3244 28.4822 59.2912 29.6749 59.2912H77.1839C78.3766 59.2912 79.3434 58.3244 79.3434 57.1317V24.7392C79.3434 23.5466 78.3766 22.5797 77.1839 22.5797Z" stroke="#141414" stroke-width="2" stroke-linecap="round" stroke-linejoin="round"/>
<path d="M77.1839 48.9976H29.6749C28.4822 48.9976 27.5154 49.2687 27.5154 49.6031V58.6857C27.5154 59.0201 28.4822 59.2912 29.6749 59.2912H77.1839C78.3766 59.2912 79.3434 59.0201 79.3434 58.6857V49.6031C79.3434 49.2687 78.3766 48.9976 77.1839 48.9976Z" fill="#4EAF4E" stroke="#141414" stroke-width="2" stroke-linecap="round" stroke-linejoin="round"/>
<path d="M62.0674 59.2913L70.7055 70.0888" stroke="#141414" stroke-width="2" stroke-linecap="round" stroke-linejoin="round"/>
<path d="M44.7914 59.2913L36.1534 70.0888" stroke="#141414" stroke-width="2" stroke-linecap="round" stroke-linejoin="round"/>
<path d="M44.7914 42.0153V48.4938" stroke="#141414" stroke-width="2" stroke-linecap="round" stroke-linejoin="round"/>
<path d="M53.4294 37.6963V48.4938" stroke="#141414" stroke-width="2" stroke-linecap="round" stroke-linejoin="round"/>
<path d="M62.0674 33.3773V48.4938" stroke="#141414" stroke-width="2" stroke-linecap="round" stroke-linejoin="round"/>
<path d="M53.4294 22.5797V16.1012" stroke="#141414" stroke-width="2" stroke-linecap="round" stroke-linejoin="round"/>
</svg>
