<svg width="102" height="71" viewBox="0 0 102 71" fill="none" xmlns="http://www.w3.org/2000/svg">
<circle cx="73.8132" cy="26.8742" r="23.7884" fill="#DADADA"/>
<path d="M94.7933 51.429C94.943 50.9683 95.5947 50.9683 95.7444 51.429L96.6679 54.2713C96.7349 54.4773 96.9268 54.6168 97.1434 54.6168H100.132C100.616 54.6168 100.818 55.2366 100.426 55.5213L98.0081 57.278C97.8329 57.4053 97.7595 57.631 97.8265 57.837L98.75 60.6793C98.8997 61.14 98.3724 61.5231 97.9806 61.2384L95.5628 59.4817C95.3875 59.3544 95.1502 59.3544 94.975 59.4817L92.5571 61.2384C92.1653 61.5231 91.638 61.14 91.7877 60.6793L92.7112 57.837C92.7782 57.631 92.7048 57.4053 92.5296 57.278L90.1118 55.5213C89.7199 55.2366 89.9213 54.6168 90.4057 54.6168H93.3943C93.6109 54.6168 93.8029 54.4773 93.8698 54.2713L94.7933 51.429Z" fill="#141414"/>
<path d="M15.1529 37.8907C15.425 38.1629 15.3005 38.6276 14.9287 38.7273L4.61915 41.4897C4.24737 41.5893 3.90716 41.2491 4.00678 40.8773L6.76922 30.5678C6.86884 30.196 7.33357 30.0715 7.60574 30.3436L15.1529 37.8907Z" fill="#4EAF4E"/>
<circle cx="48.3852" cy="5.02144" r="5.02144" fill="#DADADA"/>
<path d="M80.2427 23.7832H22.095C20.8599 23.7832 19.8586 24.7845 19.8586 26.0197V57.3299C19.8586 58.5651 20.8599 59.5664 22.095 59.5664H80.2427C81.4779 59.5664 82.4792 58.5651 82.4792 57.3299V26.0197C82.4792 24.7845 81.4779 23.7832 80.2427 23.7832Z" fill="#EBEBEB" stroke="#141414" stroke-width="2" stroke-linecap="round" stroke-linejoin="round"/>
<path d="M82.5855 43.717L64.6768 59.7119L79.5855 59.7119C81.2424 59.7119 82.5855 58.3688 82.5855 56.7119L82.5855 43.717Z" fill="#4EAF4E" stroke="black"/>
<path d="M19.7539 39.5209L37.6627 23.526H22.7539C21.0971 23.526 19.7539 24.8691 19.7539 26.526V39.5209Z" fill="#4EAF4E" stroke="black"/>
<path d="M51.1689 50.6207C56.1095 50.6207 60.1147 46.6156 60.1147 41.6749C60.1147 36.7343 56.1095 32.7291 51.1689 32.7291C46.2283 32.7291 42.2231 36.7343 42.2231 41.6749C42.2231 46.6156 46.2283 50.6207 51.1689 50.6207Z" fill="#FFCC4A" stroke="#141414" stroke-width="2" stroke-linecap="round" stroke-linejoin="round"/>
<path d="M64.5876 23.7832L82.4792 39.4383" stroke="#141414" stroke-width="2" stroke-linecap="round" stroke-linejoin="round"/>
<path d="M64.5876 59.5664L82.4792 43.9113" stroke="#141414" stroke-width="2" stroke-linecap="round" stroke-linejoin="round"/>
<path d="M37.7502 23.7832L19.8586 39.4383" stroke="#141414" stroke-width="2" stroke-linecap="round" stroke-linejoin="round"/>
<path d="M37.7502 59.5664L19.8586 43.9113" stroke="#141414" stroke-width="2" stroke-linecap="round" stroke-linejoin="round"/>
</svg>
