<svg width="89" height="88" viewBox="0 0 89 88" fill="none" xmlns="http://www.w3.org/2000/svg">
<circle cx="21.289" cy="66.5851" r="20.8965" fill="#DADADA"/>
<path d="M56.6919 1.66274C56.8416 1.20209 57.4933 1.20209 57.643 1.66274L58.766 5.11909C58.833 5.3251 59.025 5.46458 59.2416 5.46458L62.8758 5.46459C63.3601 5.46459 63.5615 6.08439 63.1697 6.36909L60.2295 8.50523C60.0543 8.63256 59.981 8.85824 60.0479 9.06425L61.1709 12.5206C61.3206 12.9813 60.7934 13.3643 60.4015 13.0796L57.4614 10.9435C57.2861 10.8162 57.0488 10.8162 56.8736 10.9435L53.9334 13.0796C53.5416 13.3643 53.0143 12.9813 53.164 12.5206L54.287 9.06425C54.354 8.85824 54.2807 8.63256 54.1054 8.50523L51.1653 6.36909C50.7734 6.08439 50.9748 5.46459 51.4592 5.46459L55.0934 5.46458C55.31 5.46458 55.502 5.3251 55.5689 5.11909L56.6919 1.66274Z" fill="#141414"/>
<path d="M29.5892 68.8292C29.8613 69.1013 29.7368 69.5661 29.365 69.6657L19.3376 72.3525C18.9658 72.4521 18.6256 72.1119 18.7252 71.7402L21.4121 61.7127C21.5117 61.3409 21.9764 61.2164 22.2486 61.4886L29.5892 68.8292Z" fill="#4EAF4E"/>
<circle cx="73.3737" cy="23.6313" r="6.02949" fill="#DADADA"/>
<path d="M63.8211 34.3962C75.0297 35.4403 83.4746 39.8931 83.4746 45.2364C83.4746 51.3474 72.4809 56.2915 58.9077 56.2915C52.8888 56.2915 47.3613 55.3088 43.0928 53.712" fill="#4EAF4E"/>
<path d="M63.8211 34.3962C75.0297 35.4403 83.4746 39.8931 83.4746 45.2364C83.4746 51.3474 72.4809 56.2915 58.9077 56.2915C52.8888 56.2915 47.3613 55.3088 43.0928 53.712" stroke="#141414" stroke-width="2" stroke-linecap="round" stroke-linejoin="round"/>
<path d="M14.6873 30.4962V42.7797C14.6873 48.8907 25.6809 53.8348 39.2542 53.8348C52.8274 53.8348 63.8211 48.8907 63.8211 42.7797V30.4962" fill="white"/>
<path d="M14.6873 30.4962V42.7797C14.6873 48.8907 25.6809 53.8348 39.2542 53.8348C52.8274 53.8348 63.8211 48.8907 63.8211 42.7797V30.4962" stroke="#141414" stroke-width="2" stroke-linecap="round" stroke-linejoin="round"/>
<path d="M39.2542 41.5514C52.8221 41.5514 63.8211 36.6018 63.8211 30.4963C63.8211 24.3907 52.8221 19.4412 39.2542 19.4412C25.6862 19.4412 14.6873 24.3907 14.6873 30.4963C14.6873 36.6018 25.6862 41.5514 39.2542 41.5514Z" fill="#FFCC4A" stroke="#141414" stroke-width="2" stroke-linecap="round" stroke-linejoin="round"/>
<path d="M29.4275 40.6301V52.9136" stroke="#141414" stroke-width="2" stroke-linecap="round" stroke-linejoin="round"/>
<path d="M34.3408 53.6199V57.5199C34.3408 63.6309 45.3345 68.575 58.9077 68.575C72.4809 68.575 83.4746 63.6309 83.4746 57.5199V45.2365" stroke="#141414" stroke-width="2" stroke-linecap="round" stroke-linejoin="round"/>
<path d="M68.7345 55.3704V67.6538" stroke="#141414" stroke-width="2" stroke-linecap="round" stroke-linejoin="round"/>
<path d="M49.0809 40.6301V67.6537" stroke="#141414" stroke-width="2" stroke-linecap="round" stroke-linejoin="round"/>
</svg>
