<svg width="105" height="66" viewBox="0 0 105 66" fill="none" xmlns="http://www.w3.org/2000/svg">
<circle cx="22.8639" cy="50.0349" r="15.5573" fill="#DADADA"/>
<path d="M77.7487 1.53774C77.8984 1.07709 78.5501 1.07709 78.6998 1.53774L79.6652 4.50908C79.7321 4.71509 79.9241 4.85457 80.1407 4.85457H83.265C83.7493 4.85457 83.9507 5.47438 83.5589 5.75908L81.0313 7.59547C80.8561 7.72279 80.7827 7.94847 80.8497 8.15449L81.8151 11.1258C81.9648 11.5865 81.4375 11.9695 81.0457 11.6848L78.5181 9.84845C78.3429 9.72113 78.1056 9.72113 77.9303 9.84845L75.4028 11.6848C75.0109 11.9695 74.4837 11.5865 74.6333 11.1258L75.5988 8.15449C75.6657 7.94847 75.5924 7.72279 75.4172 7.59547L72.8896 5.75908C72.4977 5.47438 72.6991 4.85457 73.1835 4.85457H76.3077C76.5243 4.85457 76.7163 4.71509 76.7832 4.50908L77.7487 1.53774Z" fill="#141414"/>
<path d="M12.1128 54.6081C12.385 54.8803 12.2605 55.345 11.8887 55.4446L3.84341 57.6004C3.47163 57.7 3.13142 57.3598 3.23104 56.988L5.38677 48.9427C5.48639 48.5709 5.95112 48.4464 6.22328 48.7186L12.1128 54.6081Z" fill="#4EAF4E"/>
<circle cx="97.8169" cy="21.4794" r="7.05852" fill="#DADADA"/>
<path d="M22.6831 28.4521H79.1757V54.5226C79.1757 55.6272 78.2803 56.5226 77.1757 56.5226H25.6831C24.0262 56.5226 22.6831 55.1795 22.6831 53.5226V28.4521Z" fill="#FFCC4A"/>
<path d="M64.7809 28.0134L22.6771 28.0134L22.6771 20.5536C22.6771 18.8968 24.0202 17.5536 25.6771 17.5536L62.7809 17.5536C63.8855 17.5536 64.7809 18.4491 64.7809 19.5536L64.7809 28.0134Z" fill="#4EAF4E" stroke="#141414" stroke-width="2"/>
<path d="M76.5288 17.2856H24.5836C23.3882 17.2856 22.4192 18.2547 22.4192 19.45V54.0802C22.4192 55.2755 23.3882 56.2446 24.5836 56.2446H76.5288C77.7241 56.2446 78.6932 55.2755 78.6932 54.0802V19.45C78.6932 18.2547 77.7241 17.2856 76.5288 17.2856Z" stroke="#141414" stroke-width="2" stroke-linecap="round" stroke-linejoin="round"/>
<path d="M61.3782 47.5872H70.0357" stroke="#141414" stroke-width="2" stroke-linecap="round" stroke-linejoin="round"/>
<path d="M48.3918 47.5872H52.7206" stroke="#141414" stroke-width="2" stroke-linecap="round" stroke-linejoin="round"/>
<path d="M22.4192 28.3513H78.6932" stroke="#141414" stroke-width="2" stroke-linecap="round" stroke-linejoin="round"/>
</svg>
