<svg width="102" height="91" viewBox="0 0 102 91" fill="none" xmlns="http://www.w3.org/2000/svg">
<circle cx="24.4603" cy="66.6606" r="23.7884" fill="#DADADA"/>
<path d="M74.9243 1.93032C75.074 1.46967 75.7257 1.46967 75.8754 1.93032L76.7989 4.77266C76.8658 4.97867 77.0578 5.11815 77.2744 5.11815H80.263C80.7474 5.11815 80.9488 5.73796 80.5569 6.02266L78.1391 7.77932C77.9639 7.90665 77.8905 8.13233 77.9575 8.33834L78.881 11.1807C79.0307 11.6413 78.5034 12.0244 78.1116 11.7397L75.6937 9.98304C75.5185 9.85571 75.2812 9.85571 75.1059 9.98304L72.6881 11.7397C72.2963 12.0244 71.769 11.6413 71.9187 11.1807L72.8422 8.33834C72.9092 8.13233 72.8358 7.90665 72.6606 7.77932L70.2427 6.02266C69.8509 5.73796 70.0523 5.11815 70.5366 5.11815H73.5253C73.7419 5.11815 73.9338 4.97867 74.0008 4.77266L74.9243 1.93032Z" fill="#141414"/>
<path d="M16.6361 44.4557C16.9083 44.7279 16.7837 45.1926 16.4119 45.2922L6.10237 48.0546C5.73058 48.1543 5.39038 47.8141 5.49 47.4423L8.25244 37.1327C8.35206 36.7609 8.81679 36.6364 9.08895 36.9086L16.6361 44.4557Z" fill="#4EAF4E"/>
<circle cx="94.0622" cy="18.1434" r="7.25703" fill="#DADADA"/>
<rect x="29.3521" y="56.8944" width="51.8211" height="8.02848" fill="#4EAF4E"/>
<path d="M26.8973 35.0128H83.6279L55.2626 17.5573L26.8973 35.0128Z" fill="#FFCC4A" stroke="#141414" stroke-width="2" stroke-linecap="round" stroke-linejoin="round"/>
<path d="M35.6251 35.0128V56.8323" stroke="#141414" stroke-width="2" stroke-linecap="round" stroke-linejoin="round"/>
<path d="M48.7168 35.0128V56.8323" stroke="#141414" stroke-width="2" stroke-linecap="round" stroke-linejoin="round"/>
<path d="M61.8083 35.0128V56.8323" stroke="#141414" stroke-width="2" stroke-linecap="round" stroke-linejoin="round"/>
<path d="M74.9 35.0128V56.8323" stroke="#141414" stroke-width="2" stroke-linecap="round" stroke-linejoin="round"/>
<path d="M29.0792 56.8322H81.4459" stroke="#141414" stroke-width="2" stroke-linecap="round" stroke-linejoin="round"/>
<path d="M24.7153 65.5601H85.8098" stroke="#141414" stroke-width="2" stroke-linecap="round" stroke-linejoin="round"/>
</svg>
