<svg width="53" height="54" viewBox="0 0 53 54" fill="none" xmlns="http://www.w3.org/2000/svg">
<circle cx="26.5266" cy="26.783" r="26.3889" fill="#181818"/>
<path d="M26.0746 27.3901L18.0427 21.3662C17.9122 21.2671 17.8062 21.1393 17.7329 20.9927C17.6596 20.8461 17.621 20.6847 17.62 20.5208V15.7651C17.62 15.4848 17.7313 15.216 17.9295 15.0178C18.1277 14.8196 18.3965 14.7083 18.6768 14.7083H33.4724C33.7527 14.7083 34.0215 14.8196 34.2197 15.0178C34.4178 15.216 34.5292 15.4848 34.5292 15.7651V20.4679C34.5282 20.6318 34.4895 20.7933 34.4162 20.9399C34.343 21.0865 34.237 21.2143 34.1065 21.3134L26.0746 27.3901Z" stroke="white" stroke-width="2" stroke-linecap="round" stroke-linejoin="round"/>
<path d="M26.0746 27.3901L18.0427 33.414C17.9122 33.5132 17.8062 33.641 17.7329 33.7876C17.6596 33.9341 17.621 34.0956 17.62 34.2595V39.0152C17.62 39.2955 17.7313 39.5643 17.9295 39.7625C18.1277 39.9607 18.3965 40.072 18.6768 40.072H33.4724C33.7527 40.072 34.0215 39.9607 34.2197 39.7625C34.4178 39.5643 34.5292 39.2955 34.5292 39.0152V34.3123C34.5282 34.1485 34.4895 33.987 34.4162 33.8404C34.343 33.6938 34.237 33.566 34.1065 33.4669L26.0746 27.3901Z" stroke="white" stroke-width="2" stroke-linecap="round" stroke-linejoin="round"/>
</svg>
