<svg width="53" height="53" viewBox="0 0 53 53" fill="none" xmlns="http://www.w3.org/2000/svg">
<circle cx="26.5266" cy="26.3889" r="26.3889" fill="#181818"/>
<path d="M26.497 38.841C33.3779 38.841 38.9559 33.263 38.9559 26.3822C38.9559 19.5014 33.3779 13.9233 26.497 13.9233C19.6162 13.9233 14.0382 19.5014 14.0382 26.3822C14.0382 33.263 19.6162 38.841 26.497 38.841Z" stroke="white" stroke-width="2" stroke-linecap="round" stroke-linejoin="round"/>
<path d="M16.3224 33.572L17.8408 32.6505C17.9914 32.5577 18.1157 32.4278 18.2021 32.2734C18.2884 32.1189 18.3338 31.945 18.334 31.768L18.3599 27.083C18.362 26.8888 18.4206 26.6994 18.5286 26.5379L21.0983 22.5018C21.1754 22.3825 21.2759 22.2801 21.3936 22.2008C21.5114 22.1214 21.644 22.0668 21.7835 22.0401C21.923 22.0134 22.0664 22.0153 22.2052 22.0455C22.3439 22.0758 22.4751 22.1339 22.5907 22.2163L25.1344 24.0591C25.3539 24.2121 25.621 24.2812 25.8871 24.2538L29.9752 23.6958C30.2232 23.6616 30.4498 23.5368 30.6111 23.3453L33.4922 20.023C33.6631 19.8205 33.7511 19.5609 33.7388 19.2962L33.5961 16.1426" stroke="white" stroke-width="2" stroke-linecap="round" stroke-linejoin="round"/>
<path d="M34.167 36.2066L32.7654 34.805C32.6357 34.6754 32.4748 34.5815 32.2982 34.5324L29.5079 33.8057C29.2629 33.7386 29.0509 33.584 28.9122 33.3711C28.7735 33.1583 28.7176 32.9019 28.7552 32.6506L29.0537 30.5482C29.0833 30.3714 29.1572 30.2049 29.2683 30.0642C29.3795 29.9236 29.5244 29.8133 29.6896 29.7436L33.6349 28.0954C33.8182 28.019 34.0195 27.9967 34.215 28.0312C34.4105 28.0657 34.592 28.1555 34.738 28.29L37.9696 31.249" stroke="white" stroke-width="2" stroke-linecap="round" stroke-linejoin="round"/>
</svg>
