<svg width="294" height="189" viewBox="0 0 294 189" fill="none" xmlns="http://www.w3.org/2000/svg">
<g filter="url(#filter0_d_49_26)">
<rect x="31" y="4" width="241.168" height="136.75" rx="20" fill="white"/>
</g>
<path d="M86.1159 81.0467C85.1192 81.0467 84.2049 80.9167 83.3729 80.6567C82.5409 80.3967 81.7912 80.0414 81.1239 79.5907L81.9039 76.5747C82.5452 76.9734 83.1952 77.2984 83.8539 77.5497C84.5212 77.8011 85.2579 77.9267 86.0639 77.9267C87.0519 77.9267 87.8362 77.6667 88.4169 77.1467C88.9975 76.6267 89.2879 75.9247 89.2879 75.0407C89.2879 74.0874 88.9585 73.3421 88.2999 72.8047C87.6412 72.2674 86.6879 71.9987 85.4399 71.9987C84.8679 71.9987 84.2959 72.0334 83.7239 72.1027C83.1605 72.1721 82.5972 72.2587 82.0339 72.3627L83.2039 62.5087H91.7839L91.5759 65.7327H85.6999L85.0759 70.7767L83.8279 69.6327C84.2439 69.5114 84.6772 69.4204 85.1279 69.3597C85.5872 69.2991 86.0812 69.2687 86.6099 69.2687C87.7712 69.2687 88.7939 69.4984 89.6779 69.9577C90.5705 70.4084 91.2639 71.0671 91.7579 71.9337C92.2605 72.7917 92.5119 73.8274 92.5119 75.0407C92.5119 76.2887 92.2345 77.3634 91.6799 78.2647C91.1339 79.1574 90.3799 79.8464 89.4179 80.3317C88.4559 80.8084 87.3552 81.0467 86.1159 81.0467ZM102.993 81.0727C101.459 81.0727 100.115 80.6741 98.9627 79.8767C97.8187 79.0707 96.926 77.9484 96.2847 76.5097C95.6434 75.0624 95.3227 73.3767 95.3227 71.4527C95.3227 69.6154 95.6434 67.9991 96.2847 66.6037C96.926 65.1997 97.8187 64.1077 98.9627 63.3277C100.115 62.5391 101.459 62.1447 102.993 62.1447C104.535 62.1447 105.879 62.5391 107.023 63.3277C108.175 64.1164 109.068 65.2127 109.701 66.6167C110.342 68.0121 110.663 69.6241 110.663 71.4527C110.663 73.3767 110.342 75.0624 109.701 76.5097C109.068 77.9484 108.175 79.0707 107.023 79.8767C105.879 80.6741 104.535 81.0727 102.993 81.0727ZM102.993 78.0827C103.816 78.0827 104.553 77.8574 105.203 77.4067C105.861 76.9561 106.381 76.2454 106.763 75.2747C107.144 74.2954 107.335 73.0214 107.335 71.4527C107.335 69.2947 106.919 67.6957 106.087 66.6557C105.263 65.6071 104.232 65.0827 102.993 65.0827C101.762 65.0827 100.731 65.6027 99.8987 66.6427C99.0667 67.6741 98.6507 69.2774 98.6507 71.4527C98.6507 73.0041 98.8414 74.2694 99.2227 75.2487C99.604 76.2194 100.12 76.9344 100.77 77.3937C101.428 77.8531 102.169 78.0827 102.993 78.0827ZM116.696 78.2127V74.7287H113.212V72.2847H116.696V68.8007H119.348V72.2847H122.832V74.7287H119.348V78.2127H116.696Z" fill="#181818"/>
<path d="M171.857 54.8068V66.3748H169.961V58.9028C169.961 58.6041 169.977 58.2814 170.009 57.9348L166.513 64.5028C166.347 64.8174 166.094 64.9748 165.753 64.9748H165.449C165.107 64.9748 164.854 64.8174 164.689 64.5028L161.153 57.9108C161.169 58.0868 161.182 58.2601 161.193 58.4308C161.203 58.6014 161.209 58.7588 161.209 58.9028V66.3748H159.313V54.8068H160.937C161.033 54.8068 161.115 54.8094 161.185 54.8148C161.254 54.8201 161.315 54.8334 161.369 54.8548C161.427 54.8761 161.478 54.9108 161.521 54.9588C161.569 55.0068 161.614 55.0708 161.657 55.1508L165.121 61.5748C165.211 61.7454 165.294 61.9214 165.369 62.1028C165.449 62.2841 165.526 62.4708 165.601 62.6628C165.675 62.4654 165.753 62.2761 165.833 62.0948C165.913 61.9081 165.998 61.7294 166.089 61.5588L169.505 55.1508C169.547 55.0708 169.593 55.0068 169.641 54.9588C169.689 54.9108 169.739 54.8761 169.793 54.8548C169.851 54.8334 169.915 54.8201 169.985 54.8148C170.054 54.8094 170.137 54.8068 170.233 54.8068H171.857ZM178.259 62.8708C177.688 62.8974 177.208 62.9481 176.819 63.0228C176.429 63.0921 176.117 63.1828 175.883 63.2948C175.648 63.4068 175.48 63.5374 175.379 63.6868C175.277 63.8361 175.227 63.9988 175.227 64.1748C175.227 64.5214 175.328 64.7694 175.531 64.9188C175.739 65.0681 176.008 65.1428 176.339 65.1428C176.744 65.1428 177.093 65.0708 177.387 64.9268C177.685 64.7774 177.976 64.5534 178.259 64.2548V62.8708ZM173.731 59.3108C174.675 58.4468 175.811 58.0148 177.139 58.0148C177.619 58.0148 178.048 58.0948 178.427 58.2548C178.805 58.4094 179.125 58.6281 179.387 58.9108C179.648 59.1881 179.845 59.5214 179.979 59.9108C180.117 60.3001 180.187 60.7268 180.187 61.1908V66.3748H179.291C179.104 66.3748 178.96 66.3481 178.859 66.2948C178.757 66.2361 178.677 66.1214 178.619 65.9508L178.443 65.3588C178.235 65.5454 178.032 65.7108 177.835 65.8548C177.637 65.9934 177.432 66.1108 177.219 66.2068C177.005 66.3028 176.776 66.3748 176.531 66.4228C176.291 66.4761 176.024 66.5028 175.731 66.5028C175.384 66.5028 175.064 66.4574 174.771 66.3668C174.477 66.2708 174.224 66.1294 174.011 65.9428C173.797 65.7561 173.632 65.5241 173.515 65.2468C173.397 64.9694 173.339 64.6468 173.339 64.2788C173.339 64.0708 173.373 63.8654 173.443 63.6628C173.512 63.4548 173.624 63.2574 173.779 63.0708C173.939 62.8841 174.144 62.7081 174.395 62.5428C174.645 62.3774 174.952 62.2334 175.315 62.1108C175.683 61.9881 176.109 61.8894 176.595 61.8148C177.08 61.7348 177.635 61.6868 178.259 61.6708V61.1908C178.259 60.6414 178.141 60.2361 177.907 59.9748C177.672 59.7081 177.333 59.5748 176.891 59.5748C176.571 59.5748 176.304 59.6121 176.091 59.6868C175.883 59.7614 175.699 59.8468 175.539 59.9428C175.379 60.0334 175.232 60.1161 175.099 60.1908C174.971 60.2654 174.827 60.3028 174.667 60.3028C174.528 60.3028 174.411 60.2681 174.315 60.1988C174.219 60.1241 174.141 60.0388 174.083 59.9428L173.731 59.3108ZM183.912 59.5908C184.168 59.1001 184.472 58.7161 184.824 58.4388C185.176 58.1561 185.592 58.0148 186.072 58.0148C186.45 58.0148 186.754 58.0974 186.984 58.2628L186.856 59.7428C186.829 59.8388 186.789 59.9081 186.736 59.9508C186.688 59.9881 186.621 60.0068 186.536 60.0068C186.456 60.0068 186.336 59.9934 186.176 59.9668C186.021 59.9401 185.869 59.9268 185.72 59.9268C185.501 59.9268 185.306 59.9588 185.136 60.0228C184.965 60.0868 184.81 60.1801 184.672 60.3028C184.538 60.4201 184.418 60.5641 184.312 60.7348C184.21 60.9054 184.114 61.1001 184.024 61.3188V66.3748H182.048V58.1668H183.208C183.41 58.1668 183.552 58.2041 183.632 58.2788C183.712 58.3481 183.765 58.4761 183.792 58.6628L183.912 59.5908ZM189.992 54.4868V61.2948H190.36C190.494 61.2948 190.598 61.2788 190.672 61.2468C190.752 61.2094 190.832 61.1374 190.912 61.0308L192.952 58.5108C193.038 58.3988 193.131 58.3134 193.232 58.2548C193.339 58.1961 193.475 58.1668 193.64 58.1668H195.448L192.896 61.2148C192.715 61.4548 192.518 61.6388 192.304 61.7668C192.416 61.8468 192.515 61.9401 192.6 62.0468C192.691 62.1534 192.776 62.2681 192.856 62.3908L195.592 66.3748H193.808C193.654 66.3748 193.52 66.3508 193.408 66.3028C193.296 66.2494 193.203 66.1561 193.128 66.0228L191.032 62.9108C190.958 62.7881 190.88 62.7081 190.8 62.6708C190.72 62.6334 190.6 62.6148 190.44 62.6148H189.992V66.3748H188.016V54.4868H189.992ZM201.429 61.3268C201.429 61.0708 201.392 60.8308 201.317 60.6068C201.248 60.3774 201.141 60.1774 200.997 60.0068C200.853 59.8361 200.669 59.7028 200.445 59.6068C200.227 59.5054 199.971 59.4548 199.677 59.4548C199.107 59.4548 198.656 59.6174 198.325 59.9428C198 60.2681 197.792 60.7294 197.701 61.3268H201.429ZM197.661 62.5188C197.693 62.9401 197.768 63.3054 197.885 63.6148C198.003 63.9188 198.157 64.1721 198.349 64.3748C198.541 64.5721 198.768 64.7214 199.029 64.8228C199.296 64.9188 199.589 64.9668 199.909 64.9668C200.229 64.9668 200.504 64.9294 200.733 64.8548C200.968 64.7801 201.171 64.6974 201.341 64.6068C201.517 64.5161 201.669 64.4334 201.797 64.3588C201.931 64.2841 202.059 64.2468 202.181 64.2468C202.347 64.2468 202.469 64.3081 202.549 64.4308L203.117 65.1508C202.899 65.4068 202.653 65.6228 202.381 65.7988C202.109 65.9694 201.824 66.1081 201.525 66.2148C201.232 66.3161 200.931 66.3881 200.621 66.4308C200.317 66.4734 200.021 66.4948 199.733 66.4948C199.163 66.4948 198.632 66.4014 198.141 66.2148C197.651 66.0228 197.224 65.7428 196.861 65.3748C196.499 65.0014 196.213 64.5428 196.005 63.9988C195.797 63.4494 195.693 62.8148 195.693 62.0948C195.693 61.5348 195.784 61.0094 195.965 60.5188C196.147 60.0228 196.405 59.5934 196.741 59.2308C197.083 58.8628 197.496 58.5721 197.981 58.3588C198.472 58.1454 199.024 58.0388 199.637 58.0388C200.155 58.0388 200.632 58.1214 201.069 58.2868C201.507 58.4521 201.883 58.6948 202.197 59.0148C202.512 59.3294 202.757 59.7188 202.933 60.1828C203.115 60.6414 203.205 61.1668 203.205 61.7588C203.205 62.0574 203.173 62.2601 203.109 62.3668C203.045 62.4681 202.923 62.5188 202.741 62.5188H197.661ZM207.346 66.5028C206.631 66.5028 206.082 66.3028 205.698 65.9028C205.319 65.4974 205.13 64.9401 205.13 64.2308V59.6468H204.29C204.183 59.6468 204.093 59.6121 204.018 59.5428C203.943 59.4734 203.906 59.3694 203.906 59.2308V58.4468L205.226 58.2308L205.642 55.9908C205.669 55.8841 205.719 55.8014 205.794 55.7428C205.869 55.6841 205.965 55.6548 206.082 55.6548H207.106V58.2388H209.298V59.6468H207.106V64.0948C207.106 64.3508 207.167 64.5508 207.29 64.6948C207.418 64.8388 207.591 64.9108 207.81 64.9108C207.933 64.9108 208.034 64.8974 208.114 64.8708C208.199 64.8388 208.271 64.8068 208.33 64.7748C208.394 64.7428 208.45 64.7134 208.498 64.6868C208.546 64.6548 208.594 64.6388 208.642 64.6388C208.701 64.6388 208.749 64.6548 208.786 64.6868C208.823 64.7134 208.863 64.7561 208.906 64.8148L209.498 65.7748C209.21 66.0148 208.879 66.1961 208.506 66.3188C208.133 66.4414 207.746 66.5028 207.346 66.5028ZM161.473 80.5188V83.7268H165.521V85.3828H161.473V88.6548H166.609V90.3748H159.313V78.8068H166.609V80.5188H161.473ZM175.532 90.3748H173.628C173.484 90.3748 173.366 90.3374 173.276 90.2628C173.19 90.1881 173.118 90.1028 173.06 90.0068L171.324 87.1508C171.297 87.2414 171.265 87.3268 171.228 87.4068C171.196 87.4868 171.158 87.5614 171.116 87.6308L169.58 90.0068C169.521 90.0974 169.449 90.1828 169.364 90.2628C169.278 90.3374 169.172 90.3748 169.044 90.3748H167.276L170.092 86.1428L167.388 82.1668H169.292C169.436 82.1668 169.542 82.1881 169.612 82.2308C169.681 82.2681 169.742 82.3321 169.796 82.4228L171.516 85.1588C171.574 84.9774 171.657 84.7988 171.764 84.6228L173.148 82.4628C173.265 82.2654 173.417 82.1668 173.604 82.1668H175.42L172.724 86.0548L175.532 90.3748ZM178.539 88.2468C178.763 88.5188 179.006 88.7108 179.267 88.8228C179.534 88.9348 179.822 88.9908 180.131 88.9908C180.43 88.9908 180.699 88.9348 180.939 88.8228C181.179 88.7108 181.382 88.5401 181.547 88.3108C181.718 88.0814 181.848 87.7934 181.939 87.4468C182.03 87.0948 182.075 86.6814 182.075 86.2068C182.075 85.7268 182.035 85.3214 181.955 84.9908C181.88 84.6548 181.771 84.3828 181.627 84.1748C181.483 83.9668 181.307 83.8148 181.099 83.7188C180.896 83.6228 180.664 83.5748 180.403 83.5748C179.992 83.5748 179.643 83.6628 179.355 83.8388C179.067 84.0094 178.795 84.2521 178.539 84.5668V88.2468ZM178.435 83.2868C178.771 82.9081 179.152 82.6014 179.579 82.3668C180.006 82.1321 180.507 82.0148 181.083 82.0148C181.531 82.0148 181.939 82.1081 182.307 82.2948C182.68 82.4814 183 82.7534 183.267 83.1108C183.539 83.4628 183.747 83.9001 183.891 84.4228C184.04 84.9401 184.115 85.5348 184.115 86.2068C184.115 86.8201 184.032 87.3881 183.867 87.9108C183.702 88.4334 183.464 88.8868 183.155 89.2708C182.851 89.6548 182.48 89.9561 182.043 90.1748C181.611 90.3881 181.126 90.4948 180.587 90.4948C180.128 90.4948 179.736 90.4254 179.411 90.2868C179.086 90.1428 178.795 89.9454 178.539 89.6948V93.0548H176.563V82.1668H177.771C178.027 82.1668 178.195 82.2868 178.275 82.5268L178.435 83.2868ZM190.945 85.3268C190.945 85.0708 190.908 84.8308 190.833 84.6068C190.764 84.3774 190.657 84.1774 190.513 84.0068C190.369 83.8361 190.185 83.7028 189.961 83.6068C189.742 83.5054 189.486 83.4548 189.193 83.4548C188.622 83.4548 188.172 83.6174 187.841 83.9428C187.516 84.2681 187.308 84.7294 187.217 85.3268H190.945ZM187.177 86.5188C187.209 86.9401 187.284 87.3054 187.401 87.6148C187.518 87.9188 187.673 88.1721 187.865 88.3748C188.057 88.5721 188.284 88.7214 188.545 88.8228C188.812 88.9188 189.105 88.9668 189.425 88.9668C189.745 88.9668 190.02 88.9294 190.249 88.8548C190.484 88.7801 190.686 88.6974 190.857 88.6068C191.033 88.5161 191.185 88.4334 191.313 88.3588C191.446 88.2841 191.574 88.2468 191.697 88.2468C191.862 88.2468 191.985 88.3081 192.065 88.4308L192.633 89.1508C192.414 89.4068 192.169 89.6228 191.897 89.7988C191.625 89.9694 191.34 90.1081 191.041 90.2148C190.748 90.3161 190.446 90.3881 190.137 90.4308C189.833 90.4734 189.537 90.4948 189.249 90.4948C188.678 90.4948 188.148 90.4014 187.657 90.2148C187.166 90.0228 186.74 89.7428 186.377 89.3748C186.014 89.0014 185.729 88.5428 185.521 87.9988C185.313 87.4494 185.209 86.8148 185.209 86.0948C185.209 85.5348 185.3 85.0094 185.481 84.5188C185.662 84.0228 185.921 83.5934 186.257 83.2308C186.598 82.8628 187.012 82.5721 187.497 82.3588C187.988 82.1454 188.54 82.0388 189.153 82.0388C189.67 82.0388 190.148 82.1214 190.585 82.2868C191.022 82.4521 191.398 82.6948 191.713 83.0148C192.028 83.3294 192.273 83.7188 192.449 84.1828C192.63 84.6414 192.721 85.1668 192.721 85.7588C192.721 86.0574 192.689 86.2601 192.625 86.3668C192.561 86.4681 192.438 86.5188 192.257 86.5188H187.177ZM196.068 83.5908C196.324 83.1001 196.628 82.7161 196.98 82.4388C197.332 82.1561 197.748 82.0148 198.228 82.0148C198.606 82.0148 198.91 82.0974 199.14 82.2628L199.012 83.7428C198.985 83.8388 198.945 83.9081 198.892 83.9508C198.844 83.9881 198.777 84.0068 198.692 84.0068C198.612 84.0068 198.492 83.9934 198.332 83.9668C198.177 83.9401 198.025 83.9268 197.876 83.9268C197.657 83.9268 197.462 83.9588 197.292 84.0228C197.121 84.0868 196.966 84.1801 196.828 84.3028C196.694 84.4201 196.574 84.5641 196.468 84.7348C196.366 84.9054 196.27 85.1001 196.18 85.3188V90.3748H194.204V82.1668H195.364C195.566 82.1668 195.708 82.2041 195.788 82.2788C195.868 82.3481 195.921 82.4761 195.948 82.6628L196.068 83.5908ZM202.221 82.1668V90.3748H200.237V82.1668H202.221ZM202.493 79.7748C202.493 79.9454 202.458 80.1054 202.389 80.2548C202.319 80.4041 202.226 80.5348 202.109 80.6468C201.997 80.7588 201.863 80.8494 201.709 80.9188C201.554 80.9828 201.389 81.0148 201.213 81.0148C201.042 81.0148 200.879 80.9828 200.725 80.9188C200.575 80.8494 200.445 80.7588 200.333 80.6468C200.221 80.5348 200.13 80.4041 200.061 80.2548C199.997 80.1054 199.965 79.9454 199.965 79.7748C199.965 79.5988 199.997 79.4334 200.061 79.2788C200.13 79.1241 200.221 78.9908 200.333 78.8788C200.445 78.7668 200.575 78.6788 200.725 78.6148C200.879 78.5454 201.042 78.5108 201.213 78.5108C201.389 78.5108 201.554 78.5454 201.709 78.6148C201.863 78.6788 201.997 78.7668 202.109 78.8788C202.226 78.9908 202.319 79.1241 202.389 79.2788C202.458 79.4334 202.493 79.5988 202.493 79.7748ZM209.523 85.3268C209.523 85.0708 209.486 84.8308 209.411 84.6068C209.342 84.3774 209.235 84.1774 209.091 84.0068C208.947 83.8361 208.763 83.7028 208.539 83.6068C208.32 83.5054 208.064 83.4548 207.771 83.4548C207.2 83.4548 206.75 83.6174 206.419 83.9428C206.094 84.2681 205.886 84.7294 205.795 85.3268H209.523ZM205.755 86.5188C205.787 86.9401 205.862 87.3054 205.979 87.6148C206.096 87.9188 206.251 88.1721 206.443 88.3748C206.635 88.5721 206.862 88.7214 207.123 88.8228C207.39 88.9188 207.683 88.9668 208.003 88.9668C208.323 88.9668 208.598 88.9294 208.827 88.8548C209.062 88.7801 209.264 88.6974 209.435 88.6068C209.611 88.5161 209.763 88.4334 209.891 88.3588C210.024 88.2841 210.152 88.2468 210.275 88.2468C210.44 88.2468 210.563 88.3081 210.643 88.4308L211.211 89.1508C210.992 89.4068 210.747 89.6228 210.475 89.7988C210.203 89.9694 209.918 90.1081 209.619 90.2148C209.326 90.3161 209.024 90.3881 208.715 90.4308C208.411 90.4734 208.115 90.4948 207.827 90.4948C207.256 90.4948 206.726 90.4014 206.235 90.2148C205.744 90.0228 205.318 89.7428 204.955 89.3748C204.592 89.0014 204.307 88.5428 204.099 87.9988C203.891 87.4494 203.787 86.8148 203.787 86.0948C203.787 85.5348 203.878 85.0094 204.059 84.5188C204.24 84.0228 204.499 83.5934 204.835 83.2308C205.176 82.8628 205.59 82.5721 206.075 82.3588C206.566 82.1454 207.118 82.0388 207.731 82.0388C208.248 82.0388 208.726 82.1214 209.163 82.2868C209.6 82.4521 209.976 82.6948 210.291 83.0148C210.606 83.3294 210.851 83.7188 211.027 84.1828C211.208 84.6414 211.299 85.1668 211.299 85.7588C211.299 86.0574 211.267 86.2601 211.203 86.3668C211.139 86.4681 211.016 86.5188 210.835 86.5188H205.755ZM214.63 83.1748C214.795 83.0094 214.969 82.8574 215.15 82.7188C215.337 82.5748 215.531 82.4548 215.734 82.3588C215.942 82.2574 216.163 82.1801 216.398 82.1268C216.633 82.0681 216.889 82.0388 217.166 82.0388C217.614 82.0388 218.011 82.1161 218.358 82.2708C218.705 82.4201 218.993 82.6334 219.222 82.9108C219.457 83.1828 219.633 83.5108 219.75 83.8948C219.873 84.2734 219.934 84.6921 219.934 85.1508V90.3748H217.958V85.1508C217.958 84.6494 217.843 84.2628 217.614 83.9908C217.385 83.7134 217.035 83.5748 216.566 83.5748C216.225 83.5748 215.905 83.6521 215.606 83.8068C215.307 83.9614 215.025 84.1721 214.758 84.4388V90.3748H212.782V82.1668H213.99C214.246 82.1668 214.414 82.2868 214.494 82.5268L214.63 83.1748ZM227.693 83.9028C227.634 83.9774 227.576 84.0361 227.517 84.0788C227.464 84.1214 227.384 84.1428 227.277 84.1428C227.176 84.1428 227.077 84.1134 226.981 84.0548C226.885 83.9908 226.77 83.9214 226.637 83.8468C226.504 83.7668 226.344 83.6974 226.157 83.6388C225.976 83.5748 225.749 83.5428 225.477 83.5428C225.13 83.5428 224.826 83.6068 224.565 83.7348C224.304 83.8574 224.085 84.0361 223.909 84.2708C223.738 84.5054 223.61 84.7908 223.525 85.1268C223.44 85.4574 223.397 85.8334 223.397 86.2548C223.397 86.6921 223.442 87.0814 223.533 87.4228C223.629 87.7641 223.765 88.0521 223.941 88.2868C224.117 88.5161 224.33 88.6921 224.581 88.8148C224.832 88.9321 225.114 88.9908 225.429 88.9908C225.744 88.9908 225.997 88.9534 226.189 88.8788C226.386 88.7988 226.552 88.7134 226.685 88.6228C226.818 88.5268 226.933 88.4414 227.029 88.3668C227.13 88.2868 227.242 88.2468 227.365 88.2468C227.525 88.2468 227.645 88.3081 227.725 88.4308L228.293 89.1508C228.074 89.4068 227.837 89.6228 227.581 89.7988C227.325 89.9694 227.058 90.1081 226.781 90.2148C226.509 90.3161 226.226 90.3881 225.933 90.4308C225.645 90.4734 225.357 90.4948 225.069 90.4948C224.562 90.4948 224.085 90.4014 223.637 90.2148C223.189 90.0228 222.797 89.7454 222.461 89.3828C222.125 89.0201 221.858 88.5774 221.661 88.0548C221.469 87.5268 221.373 86.9268 221.373 86.2548C221.373 85.6521 221.458 85.0948 221.629 84.5828C221.805 84.0654 222.061 83.6201 222.397 83.2468C222.733 82.8681 223.149 82.5721 223.645 82.3588C224.141 82.1454 224.712 82.0388 225.357 82.0388C225.97 82.0388 226.506 82.1374 226.965 82.3348C227.429 82.5321 227.845 82.8148 228.213 83.1828L227.693 83.9028ZM234.679 85.3268C234.679 85.0708 234.642 84.8308 234.567 84.6068C234.498 84.3774 234.391 84.1774 234.247 84.0068C234.103 83.8361 233.919 83.7028 233.695 83.6068C233.477 83.5054 233.221 83.4548 232.927 83.4548C232.357 83.4548 231.906 83.6174 231.575 83.9428C231.25 84.2681 231.042 84.7294 230.951 85.3268H234.679ZM230.911 86.5188C230.943 86.9401 231.018 87.3054 231.135 87.6148C231.253 87.9188 231.407 88.1721 231.599 88.3748C231.791 88.5721 232.018 88.7214 232.279 88.8228C232.546 88.9188 232.839 88.9668 233.159 88.9668C233.479 88.9668 233.754 88.9294 233.983 88.8548C234.218 88.7801 234.421 88.6974 234.591 88.6068C234.767 88.5161 234.919 88.4334 235.047 88.3588C235.181 88.2841 235.309 88.2468 235.431 88.2468C235.597 88.2468 235.719 88.3081 235.799 88.4308L236.367 89.1508C236.149 89.4068 235.903 89.6228 235.631 89.7988C235.359 89.9694 235.074 90.1081 234.775 90.2148C234.482 90.3161 234.181 90.3881 233.871 90.4308C233.567 90.4734 233.271 90.4948 232.983 90.4948C232.413 90.4948 231.882 90.4014 231.391 90.2148C230.901 90.0228 230.474 89.7428 230.111 89.3748C229.749 89.0014 229.463 88.5428 229.255 87.9988C229.047 87.4494 228.943 86.8148 228.943 86.0948C228.943 85.5348 229.034 85.0094 229.215 84.5188C229.397 84.0228 229.655 83.5934 229.991 83.2308C230.333 82.8628 230.746 82.5721 231.231 82.3588C231.722 82.1454 232.274 82.0388 232.887 82.0388C233.405 82.0388 233.882 82.1214 234.319 82.2868C234.757 82.4521 235.133 82.6948 235.447 83.0148C235.762 83.3294 236.007 83.7188 236.183 84.1828C236.365 84.6414 236.455 85.1668 236.455 85.7588C236.455 86.0574 236.423 86.2601 236.359 86.3668C236.295 86.4681 236.173 86.5188 235.991 86.5188H230.911ZM242.946 83.7668C242.893 83.8521 242.837 83.9134 242.778 83.9508C242.719 83.9828 242.645 83.9988 242.554 83.9988C242.458 83.9988 242.354 83.9721 242.242 83.9188C242.135 83.8654 242.01 83.8068 241.866 83.7428C241.722 83.6734 241.557 83.6121 241.37 83.5588C241.189 83.5054 240.973 83.4788 240.722 83.4788C240.333 83.4788 240.026 83.5614 239.802 83.7268C239.583 83.8921 239.474 84.1081 239.474 84.3748C239.474 84.5508 239.53 84.7001 239.642 84.8228C239.759 84.9401 239.911 85.0441 240.098 85.1348C240.29 85.2254 240.506 85.3081 240.746 85.3828C240.986 85.4521 241.229 85.5294 241.474 85.6148C241.725 85.7001 241.97 85.7988 242.21 85.9108C242.45 86.0174 242.663 86.1561 242.85 86.3268C243.042 86.4921 243.194 86.6921 243.306 86.9268C243.423 87.1614 243.482 87.4441 243.482 87.7748C243.482 88.1694 243.41 88.5348 243.266 88.8708C243.127 89.2014 242.919 89.4894 242.642 89.7348C242.365 89.9748 242.021 90.1641 241.61 90.3028C241.205 90.4361 240.735 90.5028 240.202 90.5028C239.919 90.5028 239.642 90.4761 239.37 90.4228C239.103 90.3748 238.845 90.3054 238.594 90.2148C238.349 90.1241 238.119 90.0174 237.906 89.8948C237.698 89.7721 237.514 89.6388 237.354 89.4948L237.81 88.7428C237.869 88.6521 237.938 88.5828 238.018 88.5348C238.098 88.4868 238.199 88.4628 238.322 88.4628C238.445 88.4628 238.559 88.4974 238.666 88.5668C238.778 88.6361 238.906 88.7108 239.05 88.7908C239.194 88.8708 239.362 88.9454 239.554 89.0148C239.751 89.0841 239.999 89.1188 240.298 89.1188C240.533 89.1188 240.733 89.0921 240.898 89.0388C241.069 88.9801 241.207 88.9054 241.314 88.8148C241.426 88.7241 241.506 88.6201 241.554 88.5028C241.607 88.3801 241.634 88.2548 241.634 88.1268C241.634 87.9348 241.575 87.7774 241.458 87.6548C241.346 87.5321 241.194 87.4254 241.002 87.3348C240.815 87.2441 240.599 87.1641 240.354 87.0948C240.114 87.0201 239.866 86.9401 239.61 86.8548C239.359 86.7694 239.111 86.6708 238.866 86.5588C238.626 86.4414 238.41 86.2948 238.218 86.1188C238.031 85.9428 237.879 85.7268 237.762 85.4708C237.65 85.2148 237.594 84.9054 237.594 84.5428C237.594 84.2068 237.661 83.8868 237.794 83.5828C237.927 83.2788 238.122 83.0148 238.378 82.7908C238.639 82.5614 238.962 82.3801 239.346 82.2468C239.735 82.1081 240.183 82.0388 240.69 82.0388C241.255 82.0388 241.77 82.1321 242.234 82.3188C242.698 82.5054 243.085 82.7508 243.394 83.0548L242.946 83.7668Z" fill="#181818"/>
<path d="M147.735 73.3118C147.735 99.3267 126.646 120.416 100.631 120.416C74.6158 120.416 53.5266 99.3267 53.5266 73.3118C53.5266 47.297 74.6158 26.2078 100.631 26.2078C126.646 26.2078 147.735 47.297 147.735 73.3118ZM58.237 73.3118C58.237 96.7252 77.2173 115.705 100.631 115.705C124.044 115.705 143.024 96.7252 143.024 73.3118C143.024 49.8985 124.044 30.9182 100.631 30.9182C77.2173 30.9182 58.237 49.8985 58.237 73.3118Z" fill="#F1F1F1"/>
<path d="M100.631 28.563C100.631 27.2622 101.686 26.2016 102.985 26.2666C112.781 26.7567 122.202 30.295 129.915 36.4169C138.244 43.0278 144.091 52.2626 146.505 62.6189C148.919 72.9751 147.758 83.8435 143.21 93.456C138.662 103.068 130.996 110.859 121.458 115.561C111.92 120.263 101.072 121.599 90.6782 119.352C80.2844 117.106 70.9566 111.408 64.2123 103.187C57.468 94.965 53.7041 84.7032 53.5327 74.0707C53.3741 64.2249 56.3048 54.5976 61.8816 46.5293C62.6211 45.4593 64.1051 45.2682 65.1368 46.0603C66.1685 46.8524 66.3567 48.3276 65.6231 49.4017C60.6907 56.6232 58.101 65.2124 58.2425 73.9948C58.3967 83.5641 61.7843 92.7996 67.8542 100.199C73.924 107.598 82.319 112.726 91.6735 114.748C101.028 116.771 110.791 115.568 119.375 111.336C127.96 107.104 134.859 100.093 138.952 91.4415C143.045 82.7903 144.09 73.0088 141.918 63.6882C139.745 54.3675 134.483 46.0562 126.986 40.1064C120.106 34.6457 111.717 31.469 102.985 30.9836C101.686 30.9113 100.631 29.8637 100.631 28.563Z" fill="#4EAF4E"/>
<circle cx="65.7112" cy="45.6666" r="6.18981" fill="white" stroke="#4EAF4E" stroke-width="4"/>
<defs>
<filter id="filter0_d_49_26" x="0" y="0" width="293.168" height="188.75" filterUnits="userSpaceOnUse" color-interpolation-filters="sRGB">
<feFlood flood-opacity="0" result="BackgroundImageFix"/>
<feColorMatrix in="SourceAlpha" type="matrix" values="0 0 0 0 0 0 0 0 0 0 0 0 0 0 0 0 0 0 127 0" result="hardAlpha"/>
<feOffset dx="-5" dy="22"/>
<feGaussianBlur stdDeviation="13"/>
<feComposite in2="hardAlpha" operator="out"/>
<feColorMatrix type="matrix" values="0 0 0 0 0.370833 0 0 0 0 0.370833 0 0 0 0 0.370833 0 0 0 0.25 0"/>
<feBlend mode="multiply" in2="BackgroundImageFix" result="effect1_dropShadow_49_26"/>
<feBlend mode="normal" in="SourceGraphic" in2="effect1_dropShadow_49_26" result="shape"/>
</filter>
</defs>
</svg>
