<svg width="1200" height="252" viewBox="0 0 1200 252" fill="none" xmlns="http://www.w3.org/2000/svg">
<path d="M0 20C0 8.9543 8.95431 0 20 0H1180C1191.05 0 1200 8.95431 1200 20V232C1200 243.046 1191.05 252 1180 252H20C8.95429 252 0 243.046 0 232V20Z" fill="#181818"/>
<mask id="mask0_497_2" style="mask-type:alpha" maskUnits="userSpaceOnUse" x="0" y="0" width="1200" height="252">
<path d="M0 20C0 8.9543 8.95431 0 20 0H1180C1191.05 0 1200 8.95431 1200 20V232C1200 243.046 1191.05 252 1180 252H20C8.95429 252 0 243.046 0 232V20Z" fill="#181818"/>
</mask>
<g mask="url(#mask0_497_2)">
<g opacity="0.51">
<path d="M1196.95 3.01973C1196.95 3.00505 1196.95 2.99338 1196.95 2.9787C1196.92 1.4657 1196.88 -0.0531531 1196.85 -1.56616C1196.84 -1.99844 1196.46 -2.36089 1196.03 -2.35098C1194.51 -2.31629 1192.99 -2.28145 1191.48 -2.24676C1191.47 -2.2465 1191.46 -2.24324 1191.44 -2.23999C1191.03 -2.20711 1190.69 -1.84572 1190.7 -1.42511C1190.73 0.0878907 1190.77 1.60673 1190.8 3.11973C1190.81 3.55202 1191.19 3.91446 1191.62 3.90455C1193.14 3.86986 1194.65 3.83505 1196.17 3.80036C1196.4 3.795 1196.58 3.70321 1196.71 3.57175C1196.71 3.56279 1196.72 3.55681 1196.73 3.54785C1196.73 3.54188 1196.74 3.53291 1196.75 3.52693C1196.87 3.40729 1196.95 3.236 1196.95 3.01973ZM1192.39 2.2796C1192.37 1.29819 1192.35 0.322631 1192.32 -0.658777C1192.58 -0.664536 1192.83 -0.670429 1193.08 -0.676188C1193.81 -0.692797 1194.54 -0.709548 1195.26 -0.726156C1195.28 -0.00178352 1195.3 0.728446 1195.31 1.45282C1195.32 1.70401 1195.32 1.96104 1195.33 2.21223C1194.35 2.23474 1193.37 2.25723 1192.39 2.2796Z" fill="url(#paint0_linear_497_2)"/>
<path d="M1174.23 3.5012C1174.2 1.98819 1174.16 0.469347 1174.13 -1.04366C1174.12 -1.47594 1173.74 -1.83839 1173.31 -1.82848C1171.8 -1.79379 1170.28 -1.75896 1168.76 -1.72427C1168.33 -1.71436 1167.97 -1.33491 1167.98 -0.902622C1168.01 0.610382 1168.05 2.12923 1168.08 3.64223C1168.09 4.07452 1168.47 4.43696 1168.9 4.42705C1170.42 4.39236 1171.94 4.35754 1173.45 4.32285C1173.68 4.31749 1173.86 4.22572 1173.99 4.09425C1174 4.08529 1174 4.07932 1174.01 4.07035C1174.02 4.06438 1174.02 4.05541 1174.03 4.04944C1174.16 3.92083 1174.24 3.74071 1174.23 3.5012ZM1169.67 2.80211C1169.65 1.8207 1169.63 0.845131 1169.61 -0.136277C1170.59 -0.158778 1171.56 -0.181154 1172.54 -0.203655C1172.57 0.777753 1172.59 1.75333 1172.61 2.73473C1171.63 2.75724 1170.65 2.77974 1169.67 2.80211Z" fill="url(#paint1_linear_497_2)"/>
<path d="M1197.47 25.6985C1197.43 24.1855 1197.4 22.6666 1197.36 21.1536C1197.35 20.7213 1196.98 20.3589 1196.54 20.3688C1195.03 20.4035 1193.51 20.4383 1192 20.473C1191.57 20.4829 1191.2 20.8624 1191.21 21.2946C1191.25 22.8076 1191.28 24.3265 1191.32 25.8395C1191.33 26.2718 1191.71 26.6342 1192.14 26.6243C1193.65 26.5896 1195.17 26.5548 1196.68 26.5201C1196.92 26.5148 1197.1 26.423 1197.22 26.2915C1197.23 26.2826 1197.24 26.2766 1197.24 26.2676C1197.25 26.2616 1197.26 26.2527 1197.26 26.2467C1197.39 26.1181 1197.47 25.938 1197.47 25.6985ZM1192.91 24.9994C1192.89 24.018 1192.86 23.0424 1192.84 22.061C1193.82 22.0385 1194.8 22.0161 1195.78 21.9936C1195.8 22.975 1195.82 23.9506 1195.85 24.932C1194.87 24.9545 1193.88 24.977 1192.91 24.9994Z" fill="url(#paint2_linear_497_2)"/>
<path d="M1151.51 4.02036C1151.48 2.50736 1151.44 0.988523 1151.41 -0.524481C1151.4 -0.927559 1151.07 -1.262 1150.68 -1.30275C1150.65 -1.30493 1150.62 -1.3101 1150.59 -1.3093C1149.07 -1.27461 1147.55 -1.2398 1146.04 -1.20511C1145.61 -1.1952 1145.25 -0.815742 1145.26 -0.383455C1145.29 1.12955 1145.33 2.6484 1145.36 4.16141C1145.36 4.19646 1145.37 4.22554 1145.37 4.2576C1145.43 4.64494 1145.78 4.95547 1146.18 4.94623C1147.7 4.91154 1149.21 4.8767 1150.73 4.84201C1150.96 4.83666 1151.14 4.74488 1151.27 4.61342C1151.27 4.60445 1151.28 4.59849 1151.29 4.58953C1151.29 4.58355 1151.3 4.57459 1151.31 4.56861C1151.43 4.43715 1151.51 4.25702 1151.51 4.02036ZM1146.95 3.32426C1146.94 3.09059 1146.94 2.85692 1146.93 2.62325C1146.92 1.87551 1146.9 1.12777 1146.88 0.385872C1147.63 0.368728 1148.38 0.351584 1149.12 0.334574C1149.35 0.329217 1149.59 0.323868 1149.82 0.318511C1149.84 1.29992 1149.86 2.27548 1149.89 3.25688C1148.91 3.2764 1147.93 3.29891 1146.95 3.32426Z" fill="url(#paint3_linear_497_2)"/>
<path d="M1174.75 26.218C1174.72 24.705 1174.68 23.1861 1174.65 21.6731C1174.64 21.2408 1174.26 20.8784 1173.83 20.8883C1172.32 20.923 1170.8 20.9578 1169.28 20.9925C1168.85 21.0024 1168.49 21.3819 1168.5 21.8142C1168.53 23.3272 1168.57 24.846 1168.6 26.359C1168.61 26.7913 1168.99 27.1537 1169.42 27.1438C1170.94 27.1091 1172.46 27.0743 1173.97 27.0396C1174.2 27.0343 1174.38 26.9425 1174.51 26.811C1174.52 26.8021 1174.52 26.7961 1174.53 26.7871C1174.54 26.7812 1174.54 26.7722 1174.55 26.7662C1174.68 26.6376 1174.76 26.4575 1174.75 26.218ZM1170.19 25.5219C1170.17 24.5405 1170.15 23.5649 1170.12 22.5835C1171.1 22.561 1172.08 22.5386 1173.06 22.5161C1173.08 23.4975 1173.11 24.4731 1173.13 25.4545C1172.15 25.474 1171.17 25.4965 1170.19 25.5219Z" fill="url(#paint4_linear_497_2)"/>
<path d="M1197.99 48.4152C1197.95 46.9022 1197.92 45.3834 1197.88 43.8704C1197.87 43.4381 1197.49 43.0757 1197.06 43.0856C1195.55 43.1203 1194.03 43.1551 1192.52 43.1897C1192.09 43.1997 1191.72 43.5791 1191.73 44.0114C1191.77 45.5244 1191.8 47.0433 1191.84 48.5563C1191.85 48.9886 1192.23 49.351 1192.66 49.3411C1194.17 49.3064 1195.69 49.2716 1197.2 49.2369C1197.44 49.2315 1197.62 49.1398 1197.74 49.0083C1197.75 48.9993 1197.76 48.9934 1197.76 48.9844C1197.77 48.9784 1197.78 48.9695 1197.78 48.9635C1197.91 48.8349 1197.99 48.6547 1197.99 48.4152ZM1193.43 47.7191C1193.4 46.7377 1193.38 45.7621 1193.36 44.7807C1194.34 44.7582 1195.31 44.7359 1196.3 44.7134C1196.32 45.6948 1196.34 46.6703 1196.36 47.6517C1195.38 47.6713 1194.4 47.6938 1193.43 47.7191Z" fill="url(#paint5_linear_497_2)"/>
<path d="M1152.04 26.7395C1152 25.2265 1151.97 23.7076 1151.93 22.1946C1151.92 21.7623 1151.54 21.3999 1151.11 21.4098C1149.6 21.4445 1148.08 21.4793 1146.56 21.514C1146.13 21.5239 1145.77 21.9034 1145.78 22.3357C1145.81 23.8487 1145.85 25.3675 1145.88 26.8805C1145.89 27.3128 1146.27 27.6752 1146.71 27.6653C1148.22 27.6306 1149.74 27.5958 1151.25 27.5611C1151.48 27.5558 1151.66 27.464 1151.79 27.3325C1151.8 27.3236 1151.8 27.3176 1151.81 27.3086C1151.82 27.3026 1151.83 27.2937 1151.83 27.2877C1151.96 27.1591 1152.04 26.979 1152.04 26.7395ZM1147.47 26.0434C1147.45 25.062 1147.43 24.0864 1147.4 23.105C1148.39 23.0825 1149.36 23.0601 1150.34 23.0376C1150.37 24.019 1150.39 24.9946 1150.41 25.976C1149.43 25.9955 1148.45 26.018 1147.47 26.0434Z" fill="url(#paint6_linear_497_2)"/>
<path d="M1175.27 48.9367C1175.24 47.4237 1175.2 45.9049 1175.17 44.3919C1175.16 43.9596 1174.78 43.5971 1174.35 43.607C1172.83 43.6417 1171.32 43.6765 1169.8 43.7112C1169.37 43.7211 1169.01 44.1006 1169.02 44.5329C1169.05 46.0459 1169.09 47.5647 1169.12 49.0777C1169.13 49.51 1169.51 49.8725 1169.94 49.8626C1171.46 49.8279 1172.98 49.793 1174.49 49.7584C1174.72 49.753 1174.9 49.6612 1175.03 49.5298C1175.04 49.5208 1175.04 49.5148 1175.05 49.5059C1175.06 49.4999 1175.06 49.4909 1175.07 49.4849C1175.2 49.3563 1175.28 49.1762 1175.27 48.9367ZM1170.71 48.2406C1170.69 47.2592 1170.67 46.2836 1170.64 45.3022C1171.62 45.2797 1172.6 45.2573 1173.58 45.2348C1173.6 46.2163 1173.63 47.1918 1173.65 48.1732C1172.67 48.1927 1171.69 48.2152 1170.71 48.2406Z" fill="url(#paint7_linear_497_2)"/>
<path d="M1198.51 71.134C1198.48 69.621 1198.44 68.1021 1198.41 66.5891C1198.4 66.1568 1198.02 65.7944 1197.59 65.8043C1196.07 65.839 1194.55 65.8738 1193.04 65.9085C1192.61 65.9184 1192.25 66.2979 1192.26 66.7302C1192.29 68.2432 1192.33 69.762 1192.36 71.275C1192.37 71.7073 1192.75 72.0698 1193.18 72.0598C1194.69 72.0252 1196.21 71.9903 1197.73 71.9556C1197.96 71.9503 1198.14 71.8585 1198.27 71.727C1198.27 71.7181 1198.28 71.7121 1198.29 71.7031C1198.29 71.6971 1198.3 71.6882 1198.31 71.6822C1198.44 71.5536 1198.52 71.3735 1198.51 71.134ZM1193.95 70.4379C1193.93 69.4565 1193.9 68.4809 1193.88 67.4995C1194.86 67.477 1195.84 67.4546 1196.82 67.4321C1196.84 68.4135 1196.86 69.3891 1196.89 70.3705C1195.91 70.39 1194.93 70.4125 1193.95 70.4379Z" fill="url(#paint8_linear_497_2)"/>
<path d="M1129.31 27.2606C1129.28 25.7476 1129.24 24.2288 1129.21 22.7158C1129.2 22.3127 1128.87 21.9783 1128.48 21.9375C1128.45 21.9353 1128.42 21.9302 1128.39 21.931C1126.87 21.9656 1125.36 22.0005 1123.84 22.0352C1123.41 22.0451 1123.05 22.4245 1123.06 22.8568C1123.09 24.3698 1123.13 25.8887 1123.16 27.4017C1123.16 27.4367 1123.17 27.4658 1123.17 27.4979C1123.23 27.8852 1123.58 28.1957 1123.98 28.1865C1125.5 28.1518 1127.01 28.117 1128.53 28.0823C1128.76 28.0769 1128.94 27.9852 1129.07 27.8537C1129.07 27.8447 1129.08 27.8388 1129.09 27.8298C1129.09 27.8238 1129.1 27.8148 1129.11 27.8089C1129.23 27.6774 1129.32 27.4973 1129.31 27.2606ZM1124.75 26.5645C1124.74 26.3309 1124.74 26.0972 1124.73 25.8635C1124.72 25.1158 1124.7 24.368 1124.68 23.6261C1125.43 23.609 1126.18 23.5919 1126.92 23.5748C1127.15 23.5695 1127.39 23.5641 1127.62 23.5588C1127.64 24.5402 1127.67 25.5158 1127.69 26.4972C1126.71 26.5167 1125.73 26.5392 1124.75 26.5645Z" fill="url(#paint9_linear_497_2)"/>
<path d="M1152.55 49.4563C1152.52 47.9432 1152.49 46.4244 1152.45 44.9114C1152.44 44.4791 1152.06 44.1167 1151.63 44.1266C1150.12 44.1613 1148.6 44.1961 1147.08 44.2308C1146.65 44.2407 1146.29 44.6201 1146.3 45.0524C1146.33 46.5654 1146.37 48.0843 1146.4 49.5973C1146.41 50.0296 1146.79 50.392 1147.22 50.3821C1148.74 50.3474 1150.26 50.3126 1151.77 50.2779C1152 50.2725 1152.18 50.1808 1152.31 50.0493C1152.32 50.0403 1152.32 50.0344 1152.33 50.0254C1152.34 50.0194 1152.35 50.0105 1152.35 50.0045C1152.48 49.8759 1152.56 49.6958 1152.55 49.4563ZM1147.99 48.7601C1147.97 47.7787 1147.95 46.8032 1147.92 45.8218C1148.91 45.7993 1149.88 45.7769 1150.86 45.7544C1150.88 46.7358 1150.91 47.7114 1150.93 48.6928C1149.95 48.7123 1148.97 48.7348 1147.99 48.7601Z" fill="url(#paint10_linear_497_2)"/>
<path d="M1175.79 71.6555C1175.76 70.1425 1175.72 68.6236 1175.69 67.1106C1175.68 66.6783 1175.3 66.3159 1174.87 66.3258C1173.35 66.3605 1171.84 66.3953 1170.32 66.43C1169.89 66.4399 1169.53 66.8194 1169.54 67.2517C1169.57 68.7647 1169.61 70.2835 1169.64 71.7965C1169.65 72.2288 1170.03 72.5912 1170.46 72.5813C1171.98 72.5466 1173.5 72.5118 1175.01 72.4771C1175.24 72.4718 1175.42 72.38 1175.55 72.2485C1175.55 72.2396 1175.56 72.2336 1175.57 72.2246C1175.57 72.2187 1175.58 72.2097 1175.59 72.2037C1175.72 72.0751 1175.8 71.895 1175.79 71.6555ZM1171.23 70.9594C1171.21 69.978 1171.18 69.0024 1171.16 68.021C1172.14 67.9985 1173.12 67.9761 1174.1 67.9536C1174.12 68.935 1174.15 69.9106 1174.17 70.892C1173.19 70.9115 1172.21 70.934 1171.23 70.9594Z" fill="url(#paint11_linear_497_2)"/>
<path d="M1199.03 93.8527C1199 92.3397 1198.96 90.8209 1198.93 89.3079C1198.92 88.8756 1198.54 88.5131 1198.11 88.523C1196.59 88.5577 1195.07 88.5926 1193.56 88.6273C1193.13 88.6372 1192.77 89.0166 1192.78 89.4489C1192.81 90.9619 1192.85 92.4808 1192.88 93.9938C1192.89 94.426 1193.27 94.7885 1193.7 94.7786C1195.21 94.7439 1196.73 94.7091 1198.25 94.6744C1198.48 94.669 1198.66 94.5773 1198.78 94.4458C1198.79 94.4368 1198.8 94.4308 1198.81 94.4219C1198.81 94.4159 1198.82 94.4069 1198.83 94.401C1198.96 94.2724 1199.04 94.0922 1199.03 93.8527ZM1194.47 93.1566C1194.45 92.1752 1194.42 91.1997 1194.4 90.2182C1195.38 90.1957 1196.36 90.1734 1197.34 90.1509C1197.36 91.1323 1197.38 92.1078 1197.41 93.0893C1196.43 93.1088 1195.45 93.1341 1194.47 93.1566Z" fill="url(#paint12_linear_497_2)"/>
<path d="M1129.84 49.9797C1129.8 48.4667 1129.77 46.9478 1129.73 45.4348C1129.72 45.0025 1129.34 44.6401 1128.91 44.65C1127.4 44.6847 1125.88 44.7195 1124.37 44.7542C1123.93 44.7641 1123.57 45.1436 1123.58 45.5759C1123.62 47.0889 1123.65 48.6077 1123.68 50.1207C1123.69 50.553 1124.07 50.9154 1124.51 50.9055C1126.02 50.8708 1127.54 50.836 1129.05 50.8013C1129.28 50.796 1129.46 50.7042 1129.59 50.5727C1129.6 50.5638 1129.6 50.5578 1129.61 50.5488C1129.62 50.5429 1129.63 50.5339 1129.63 50.5279C1129.76 50.4023 1129.84 50.2192 1129.84 49.9797ZM1125.27 49.2836C1125.25 48.3022 1125.23 47.3266 1125.21 46.3452C1126.19 46.3227 1127.16 46.3003 1128.14 46.2778C1128.17 47.2592 1128.19 48.2348 1128.21 49.2162C1127.23 49.2357 1126.25 49.2582 1125.27 49.2836Z" fill="url(#paint13_linear_497_2)"/>
<path d="M1153.07 72.177C1153.04 70.664 1153 69.1451 1152.97 67.6321C1152.96 67.1998 1152.58 66.8374 1152.15 66.8473C1150.64 66.882 1149.12 66.9168 1147.6 66.9515C1147.17 66.9614 1146.81 67.3409 1146.82 67.7731C1146.85 69.2861 1146.89 70.805 1146.92 72.318C1146.93 72.7503 1147.31 73.1127 1147.74 73.1028C1149.26 73.0681 1150.78 73.0333 1152.29 72.9986C1152.52 72.9933 1152.7 72.9015 1152.83 72.77C1152.84 72.761 1152.84 72.7551 1152.85 72.7461C1152.86 72.7401 1152.86 72.7312 1152.87 72.7252C1153 72.5996 1153.08 72.4165 1153.07 72.177ZM1148.51 71.4808C1148.49 70.4994 1148.47 69.5239 1148.44 68.5425C1149.43 68.52 1150.4 68.4976 1151.38 68.4751C1151.4 69.4565 1151.43 70.4321 1151.45 71.4135C1150.47 71.433 1149.49 71.4555 1148.51 71.4808Z" fill="url(#paint14_linear_497_2)"/>
<path d="M1176.32 94.3742C1176.28 92.8612 1176.25 91.3424 1176.21 89.8294C1176.2 89.3971 1175.82 89.0346 1175.39 89.0445C1173.88 89.0792 1172.36 89.1141 1170.85 89.1488C1170.41 89.1587 1170.05 89.5381 1170.06 89.9704C1170.1 91.4834 1170.13 93.0023 1170.17 94.5153C1170.17 94.9475 1170.55 95.31 1170.99 95.3001C1172.5 95.2654 1174.02 95.2306 1175.53 95.1959C1175.77 95.1905 1175.94 95.0987 1176.07 94.9673C1176.08 94.9583 1176.08 94.9523 1176.09 94.9434C1176.1 94.9374 1176.11 94.9284 1176.11 94.9225C1176.24 94.7968 1176.32 94.6137 1176.32 94.3742ZM1171.75 93.6781C1171.73 92.6967 1171.71 91.7211 1171.69 90.7397C1172.67 90.7172 1173.64 90.6949 1174.62 90.6724C1174.65 91.6538 1174.67 92.6293 1174.69 93.6107C1173.71 93.6303 1172.73 93.6528 1171.75 93.6781Z" fill="url(#paint15_linear_497_2)"/>
<path d="M1199.55 116.571C1199.52 115.058 1199.48 113.54 1199.45 112.027C1199.44 111.594 1199.06 111.232 1198.62 111.242C1197.11 111.276 1195.59 111.311 1194.08 111.346C1193.65 111.356 1193.29 111.735 1193.3 112.168C1193.33 113.681 1193.36 115.2 1193.4 116.713C1193.41 117.145 1193.79 117.507 1194.22 117.497C1195.73 117.463 1197.25 117.428 1198.77 117.393C1199 117.388 1199.18 117.296 1199.3 117.165C1199.31 117.156 1199.32 117.15 1199.33 117.141C1199.33 117.135 1199.34 117.126 1199.35 117.12C1199.47 116.994 1199.56 116.811 1199.55 116.571ZM1194.99 115.875C1194.97 114.894 1194.94 113.918 1194.92 112.937C1195.9 112.914 1196.88 112.892 1197.86 112.87C1197.88 113.851 1197.9 114.827 1197.93 115.808C1196.95 115.828 1195.97 115.853 1194.99 115.875Z" fill="url(#paint16_linear_497_2)"/>
<path d="M1107.12 50.4989C1107.08 48.9859 1107.05 47.467 1107.01 45.954C1107 45.551 1106.68 45.2165 1106.29 45.1758C1106.26 45.1736 1106.23 45.1684 1106.19 45.1692C1104.68 45.2039 1103.16 45.2387 1101.65 45.2734C1101.21 45.2833 1100.85 45.6628 1100.86 46.0951C1100.9 47.6081 1100.93 49.1269 1100.97 50.6399C1100.97 50.675 1100.97 50.7041 1100.98 50.7361C1101.04 51.1235 1101.38 51.434 1101.79 51.4247C1103.3 51.3901 1104.82 51.3552 1106.33 51.3205C1106.57 51.3152 1106.75 51.2234 1106.87 51.0919C1106.88 51.083 1106.89 51.077 1106.89 51.068C1106.9 51.0621 1106.91 51.0531 1106.91 51.0471C1107.04 50.9187 1107.12 50.7355 1107.12 50.4989ZM1102.55 49.8028C1102.55 49.5691 1102.54 49.3354 1102.54 49.1018C1102.52 48.354 1102.5 47.6063 1102.49 46.8644C1103.23 46.8472 1103.98 46.8301 1104.72 46.8131C1104.96 46.8077 1105.19 46.8024 1105.43 46.797C1105.45 47.7784 1105.47 48.754 1105.49 49.7354C1104.51 49.7579 1103.53 49.7774 1102.55 49.8028Z" fill="url(#paint17_linear_497_2)"/>
<path d="M1130.36 72.6965C1130.32 71.1835 1130.29 69.6646 1130.25 68.1516C1130.24 67.7193 1129.86 67.3569 1129.43 67.3668C1127.92 67.4015 1126.4 67.4363 1124.88 67.471C1124.45 67.4809 1124.09 67.8604 1124.1 68.2927C1124.13 69.8057 1124.17 71.3245 1124.2 72.8375C1124.21 73.2698 1124.59 73.6322 1125.03 73.6223C1126.54 73.5876 1128.06 73.5528 1129.57 73.5181C1129.8 73.5128 1129.98 73.421 1130.11 73.2895C1130.12 73.2806 1130.12 73.2746 1130.13 73.2656C1130.14 73.2597 1130.15 73.2507 1130.15 73.2447C1130.28 73.1191 1130.36 72.936 1130.36 72.6965ZM1125.79 72.0004C1125.77 71.019 1125.75 70.0434 1125.72 69.062C1126.71 69.0395 1127.68 69.0171 1128.66 68.9946C1128.69 69.976 1128.71 70.9516 1128.73 71.933C1127.75 71.9555 1126.77 71.975 1125.79 72.0004Z" fill="url(#paint18_linear_497_2)"/>
<path d="M1153.59 94.8937C1153.56 93.3807 1153.52 91.8619 1153.49 90.3489C1153.48 89.9166 1153.1 89.5542 1152.67 89.5641C1151.15 89.5988 1149.64 89.6336 1148.12 89.6683C1147.69 89.6782 1147.33 90.0576 1147.34 90.4899C1147.37 92.0029 1147.41 93.5218 1147.44 95.0348C1147.45 95.4671 1147.83 95.8295 1148.26 95.8196C1149.78 95.7849 1151.3 95.7501 1152.81 95.7154C1153.04 95.71 1153.22 95.6183 1153.35 95.4868C1153.36 95.4778 1153.36 95.4719 1153.37 95.4629C1153.38 95.4569 1153.38 95.448 1153.39 95.442C1153.52 95.3164 1153.6 95.1332 1153.59 94.8937ZM1149.03 94.1976C1149.01 93.2162 1148.99 92.2407 1148.96 91.2592C1149.94 91.2367 1150.92 91.2144 1151.9 91.1919C1151.92 92.1733 1151.95 93.1488 1151.97 94.1303C1150.99 94.1528 1150.01 94.1723 1149.03 94.1976Z" fill="url(#paint19_linear_497_2)"/>
<path d="M1176.84 117.091C1176.8 115.578 1176.77 114.059 1176.73 112.546C1176.72 112.114 1176.34 111.751 1175.91 111.761C1174.4 111.796 1172.88 111.831 1171.37 111.866C1170.93 111.875 1170.57 112.255 1170.58 112.687C1170.62 114.2 1170.65 115.719 1170.68 117.232C1170.69 117.664 1171.07 118.027 1171.51 118.017C1173.02 117.982 1174.54 117.947 1176.05 117.913C1176.28 117.907 1176.46 117.816 1176.59 117.684C1176.6 117.675 1176.6 117.669 1176.61 117.66C1176.62 117.654 1176.63 117.645 1176.63 117.639C1176.76 117.514 1176.84 117.331 1176.84 117.091ZM1172.27 116.395C1172.25 115.413 1172.23 114.438 1172.21 113.457C1173.19 113.434 1174.16 113.412 1175.14 113.389C1175.17 114.371 1175.19 115.346 1175.21 116.328C1174.23 116.35 1173.25 116.372 1172.27 116.395Z" fill="url(#paint20_linear_497_2)"/>
<path d="M1200.07 139.288C1200.04 137.775 1200 136.256 1199.97 134.743C1199.96 134.311 1199.58 133.949 1199.15 133.959C1197.64 133.993 1196.12 134.028 1194.6 134.063C1194.17 134.073 1193.81 134.452 1193.82 134.884C1193.85 136.397 1193.89 137.916 1193.92 139.429C1193.93 139.862 1194.31 140.224 1194.74 140.214C1196.26 140.179 1197.78 140.145 1199.29 140.11C1199.52 140.105 1199.7 140.013 1199.83 139.881C1199.84 139.872 1199.84 139.866 1199.85 139.857C1199.86 139.851 1199.86 139.843 1199.87 139.837C1200 139.711 1200.08 139.528 1200.07 139.288ZM1195.51 138.592C1195.49 137.611 1195.47 136.635 1195.44 135.654C1196.43 135.631 1197.4 135.609 1198.38 135.586C1198.4 136.568 1198.43 137.543 1198.45 138.525C1197.47 138.547 1196.49 138.57 1195.51 138.592Z" fill="url(#paint21_linear_497_2)"/>
<path d="M1107.8 72.8742C1107.77 71.3612 1107.73 69.8424 1107.7 68.3294C1107.69 67.8971 1107.31 67.5346 1106.87 67.5445C1105.36 67.5792 1103.84 67.614 1102.33 67.6487C1101.9 67.6586 1101.54 68.0381 1101.55 68.4704C1101.58 69.9834 1101.61 71.5022 1101.65 73.0152C1101.66 73.4475 1102.04 73.81 1102.47 73.8001C1103.98 73.7654 1105.5 73.7305 1107.02 73.6959C1107.25 73.6905 1107.43 73.5987 1107.55 73.4673C1107.56 73.4583 1107.57 73.4523 1107.58 73.4434C1107.58 73.4374 1107.59 73.4284 1107.6 73.4224C1107.72 73.2968 1107.81 73.1137 1107.8 72.8742ZM1103.24 72.1781C1103.22 71.1967 1103.19 70.2211 1103.17 69.2397C1104.15 69.2172 1105.13 69.1949 1106.11 69.1724C1106.13 70.1538 1106.15 71.1293 1106.18 72.1107C1105.19 72.1332 1104.22 72.1527 1103.24 72.1781Z" fill="url(#paint22_linear_497_2)"/>
<path d="M1130.87 95.4152C1130.84 93.9022 1130.81 92.3834 1130.77 90.8704C1130.76 90.4381 1130.38 90.0756 1129.95 90.0855C1128.44 90.1202 1126.92 90.1551 1125.4 90.1897C1124.97 90.1997 1124.61 90.5791 1124.62 91.0114C1124.65 92.5244 1124.69 94.0433 1124.72 95.5563C1124.73 95.9885 1125.11 96.351 1125.55 96.3411C1127.06 96.3064 1128.58 96.2716 1130.09 96.2369C1130.32 96.2315 1130.5 96.1397 1130.63 96.0083C1130.64 95.9993 1130.64 95.9933 1130.65 95.9844C1130.66 95.9784 1130.67 95.9694 1130.67 95.9634C1130.8 95.8378 1130.88 95.6547 1130.87 95.4152ZM1126.31 94.7191C1126.29 93.7377 1126.27 92.7621 1126.24 91.7807C1127.23 91.7582 1128.2 91.7359 1129.18 91.7134C1129.21 92.6948 1129.23 93.6703 1129.25 94.6517C1128.27 94.6742 1127.29 94.6938 1126.31 94.7191Z" fill="url(#paint23_linear_497_2)"/>
<path d="M1154.12 117.612C1154.08 116.099 1154.05 114.581 1154.01 113.068C1154 112.635 1153.62 112.273 1153.19 112.283C1151.68 112.318 1150.16 112.352 1148.65 112.387C1148.21 112.397 1147.85 112.776 1147.86 113.209C1147.9 114.722 1147.93 116.241 1147.97 117.754C1147.98 118.186 1148.36 118.548 1148.79 118.538C1150.3 118.504 1151.82 118.469 1153.33 118.434C1153.57 118.429 1153.75 118.337 1153.87 118.206C1153.88 118.197 1153.88 118.191 1153.89 118.182C1153.9 118.176 1153.91 118.167 1153.91 118.161C1154.04 118.035 1154.12 117.852 1154.12 117.612ZM1149.55 116.916C1149.53 115.935 1149.51 114.959 1149.49 113.978C1150.47 113.955 1151.44 113.933 1152.42 113.911C1152.45 114.892 1152.47 115.868 1152.49 116.849C1151.51 116.872 1150.53 116.891 1149.55 116.916Z" fill="url(#paint24_linear_497_2)"/>
<path d="M1177.36 139.81C1177.32 138.297 1177.29 136.778 1177.25 135.265C1177.24 134.833 1176.86 134.47 1176.43 134.48C1174.92 134.515 1173.4 134.55 1171.88 134.584C1171.45 134.594 1171.09 134.974 1171.1 135.406C1171.13 136.919 1171.17 138.438 1171.2 139.951C1171.21 140.383 1171.59 140.746 1172.03 140.736C1173.54 140.701 1175.06 140.666 1176.57 140.631C1176.8 140.626 1176.98 140.534 1177.11 140.403C1177.12 140.394 1177.12 140.388 1177.13 140.379C1177.14 140.373 1177.15 140.364 1177.15 140.358C1177.28 140.232 1177.36 140.049 1177.36 139.81ZM1172.79 139.114C1172.77 138.132 1172.75 137.157 1172.72 136.175C1173.71 136.153 1174.68 136.13 1175.66 136.108C1175.69 137.089 1175.71 138.065 1175.73 139.046C1174.75 139.069 1173.77 139.091 1172.79 139.114Z" fill="url(#paint25_linear_497_2)"/>
<path d="M1200.59 162.009C1200.56 160.496 1200.52 158.977 1200.49 157.464C1200.48 157.032 1200.1 156.669 1199.67 156.679C1198.15 156.714 1196.64 156.749 1195.12 156.783C1194.69 156.793 1194.33 157.173 1194.34 157.605C1194.37 159.118 1194.41 160.637 1194.44 162.15C1194.45 162.582 1194.83 162.945 1195.26 162.935C1196.78 162.9 1198.3 162.865 1199.81 162.831C1200.04 162.825 1200.22 162.733 1200.35 162.602C1200.36 162.593 1200.36 162.587 1200.37 162.578C1200.38 162.572 1200.38 162.563 1200.39 162.557C1200.52 162.432 1200.6 162.248 1200.59 162.009ZM1196.03 161.313C1196.01 160.331 1195.99 159.356 1195.96 158.374C1196.94 158.352 1197.92 158.33 1198.9 158.307C1198.92 159.289 1198.95 160.264 1198.97 161.245C1197.99 161.268 1197.01 161.29 1196.03 161.313Z" fill="url(#paint26_linear_497_2)"/>
<path d="M1084.92 73.7411C1084.88 72.2281 1084.85 70.7092 1084.81 69.1962C1084.8 68.7931 1084.48 68.4587 1084.09 68.418C1084.06 68.4158 1084.03 68.4106 1083.99 68.4114C1082.48 68.4461 1080.96 68.4809 1079.45 68.5156C1079.02 68.5255 1078.65 68.905 1078.66 69.3373C1078.7 70.8503 1078.73 72.3691 1078.77 73.8821C1078.77 73.9172 1078.77 73.9462 1078.78 73.9783C1078.84 74.3656 1079.19 74.6762 1079.59 74.6669C1081.1 74.6322 1082.62 74.5974 1084.13 74.5627C1084.37 74.5574 1084.55 74.4656 1084.67 74.3341C1084.68 74.3252 1084.69 74.3192 1084.69 74.3102C1084.7 74.3043 1084.71 74.2953 1084.71 74.2893C1084.84 74.1578 1084.92 73.9747 1084.92 73.7411ZM1080.36 73.042C1080.35 72.8083 1080.35 72.5746 1080.34 72.341C1080.32 71.5932 1080.31 70.8455 1080.29 70.1036C1081.04 70.0865 1081.79 70.0693 1082.53 70.0523C1082.76 70.0469 1083 70.0416 1083.23 70.0362C1083.25 71.0176 1083.27 71.9932 1083.3 72.9746C1082.31 72.9971 1081.34 73.0166 1080.36 73.042Z" fill="url(#paint27_linear_497_2)"/>
<path d="M1108.16 95.9387C1108.12 94.4257 1108.09 92.9068 1108.05 91.3938C1108.04 90.9615 1107.66 90.5991 1107.23 90.609C1105.72 90.6437 1104.2 90.6785 1102.69 90.7132C1102.25 90.7231 1101.89 91.1026 1101.9 91.5349C1101.94 93.0479 1101.97 94.5667 1102 96.0797C1102.01 96.512 1102.39 96.8744 1102.83 96.8645C1104.34 96.8298 1105.86 96.795 1107.37 96.7603C1107.6 96.755 1107.78 96.6632 1107.91 96.5317C1107.92 96.5228 1107.92 96.5168 1107.93 96.5078C1107.94 96.5018 1107.95 96.4929 1107.95 96.4869C1108.08 96.3583 1108.16 96.1752 1108.16 95.9387ZM1103.6 95.2396C1103.57 94.2581 1103.55 93.2826 1103.53 92.3012C1104.51 92.2787 1105.49 92.2563 1106.47 92.2338C1106.49 93.2152 1106.51 94.1908 1106.53 95.1722C1105.55 95.1947 1104.57 95.2142 1103.6 95.2396Z" fill="url(#paint28_linear_497_2)"/>
<path d="M1131.39 118.136C1131.36 116.623 1131.32 115.104 1131.29 113.591C1131.28 113.159 1130.9 112.796 1130.47 112.806C1128.96 112.841 1127.44 112.876 1125.92 112.91C1125.49 112.92 1125.13 113.3 1125.14 113.732C1125.17 115.245 1125.21 116.764 1125.24 118.277C1125.25 118.709 1125.63 119.072 1126.06 119.062C1127.58 119.027 1129.1 118.992 1130.61 118.958C1130.84 118.952 1131.02 118.86 1131.15 118.729C1131.16 118.72 1131.16 118.714 1131.17 118.705C1131.18 118.699 1131.19 118.69 1131.19 118.684C1131.32 118.556 1131.4 118.372 1131.39 118.136ZM1126.83 117.437C1126.81 116.455 1126.79 115.48 1126.77 114.498C1127.75 114.476 1128.72 114.454 1129.71 114.431C1129.73 115.412 1129.75 116.388 1129.77 117.369C1128.79 117.392 1127.81 117.411 1126.83 117.437Z" fill="url(#paint29_linear_497_2)"/>
<path d="M1154.63 140.335C1154.6 138.822 1154.56 137.303 1154.53 135.79C1154.52 135.358 1154.14 134.996 1153.71 135.005C1152.19 135.04 1150.68 135.075 1149.16 135.11C1148.73 135.12 1148.37 135.499 1148.38 135.931C1148.41 137.444 1148.45 138.963 1148.48 140.476C1148.49 140.908 1148.87 141.271 1149.3 141.261C1150.82 141.226 1152.33 141.192 1153.85 141.157C1154.08 141.151 1154.26 141.06 1154.39 140.928C1154.39 140.919 1154.4 140.913 1154.41 140.904C1154.41 140.898 1154.42 140.889 1154.43 140.883C1154.56 140.755 1154.64 140.572 1154.63 140.335ZM1150.07 139.636C1150.05 138.655 1150.03 137.679 1150.01 136.698C1150.99 136.675 1151.96 136.653 1152.94 136.63C1152.97 137.612 1152.99 138.587 1153.01 139.569C1152.03 139.591 1151.05 139.614 1150.07 139.636Z" fill="url(#paint30_linear_497_2)"/>
<path d="M1177.87 162.53C1177.84 161.017 1177.8 159.499 1177.77 157.986C1177.76 157.553 1177.38 157.191 1176.95 157.201C1175.43 157.235 1173.91 157.27 1172.4 157.305C1171.97 157.315 1171.61 157.694 1171.62 158.127C1171.65 159.64 1171.69 161.159 1171.72 162.672C1171.73 163.104 1172.11 163.466 1172.54 163.456C1174.05 163.422 1175.57 163.387 1177.09 163.352C1177.32 163.347 1177.5 163.255 1177.62 163.124C1177.63 163.115 1177.64 163.109 1177.65 163.1C1177.65 163.094 1177.66 163.085 1177.67 163.079C1177.8 162.95 1177.88 162.767 1177.87 162.53ZM1173.31 161.831C1173.29 160.85 1173.27 159.874 1173.24 158.893C1174.22 158.87 1175.2 158.848 1176.18 158.826C1176.2 159.807 1176.23 160.783 1176.25 161.764C1175.27 161.787 1174.29 161.809 1173.31 161.831Z" fill="url(#paint31_linear_497_2)"/>
<path d="M1201.11 184.728C1201.07 183.215 1201.04 181.696 1201.01 180.183C1201 179.751 1200.62 179.388 1200.18 179.398C1198.67 179.433 1197.15 179.468 1195.64 179.502C1195.21 179.512 1194.84 179.892 1194.85 180.324C1194.89 181.837 1194.92 183.356 1194.96 184.869C1194.97 185.301 1195.35 185.664 1195.78 185.654C1197.29 185.619 1198.81 185.584 1200.32 185.549C1200.56 185.544 1200.74 185.452 1200.86 185.321C1200.87 185.312 1200.88 185.306 1200.89 185.297C1200.89 185.291 1200.9 185.282 1200.91 185.276C1201.03 185.147 1201.12 184.964 1201.11 184.728ZM1196.55 184.029C1196.53 183.047 1196.5 182.072 1196.48 181.09C1197.46 181.068 1198.44 181.045 1199.42 181.023C1199.44 182.004 1199.46 182.98 1199.49 183.961C1198.51 183.984 1197.53 184.006 1196.55 184.029Z" fill="url(#paint32_linear_497_2)"/>
<path d="M1085.44 96.4602C1085.4 94.9472 1085.37 93.4283 1085.33 91.9153C1085.32 91.483 1084.94 91.1206 1084.51 91.1305C1083 91.1652 1081.48 91.2 1079.97 91.2347C1079.53 91.2446 1079.17 91.6241 1079.18 92.0563C1079.22 93.5693 1079.25 95.0882 1079.29 96.6012C1079.3 97.0335 1079.68 97.3959 1080.11 97.386C1081.62 97.3513 1083.14 97.3165 1084.65 97.2818C1084.89 97.2765 1085.07 97.1847 1085.19 97.0532C1085.2 97.0442 1085.21 97.0383 1085.21 97.0293C1085.22 97.0233 1085.23 97.0144 1085.23 97.0084C1085.36 96.8798 1085.45 96.6967 1085.44 96.4602ZM1080.88 95.761C1080.85 94.7796 1080.83 93.8041 1080.81 92.8227C1081.79 92.8002 1082.77 92.7778 1083.75 92.7553C1083.77 93.7367 1083.79 94.7123 1083.82 95.6937C1082.83 95.7162 1081.86 95.7357 1080.88 95.761Z" fill="url(#paint33_linear_497_2)"/>
<path d="M1108.68 118.657C1108.64 117.144 1108.61 115.626 1108.57 114.113C1108.56 113.68 1108.18 113.318 1107.75 113.328C1106.24 113.362 1104.72 113.397 1103.21 113.432C1102.77 113.442 1102.41 113.821 1102.42 114.254C1102.45 115.767 1102.49 117.285 1102.52 118.798C1102.53 119.231 1102.91 119.593 1103.35 119.583C1104.86 119.549 1106.38 119.514 1107.89 119.479C1108.12 119.474 1108.3 119.382 1108.43 119.25C1108.44 119.241 1108.44 119.236 1108.45 119.227C1108.46 119.221 1108.47 119.212 1108.47 119.206C1108.6 119.077 1108.68 118.894 1108.68 118.657ZM1104.12 117.958C1104.09 116.977 1104.07 116.001 1104.05 115.02C1105.03 114.997 1106 114.975 1106.99 114.953C1107.01 115.934 1107.03 116.91 1107.05 117.891C1106.07 117.913 1105.09 117.933 1104.12 117.958Z" fill="url(#paint34_linear_497_2)"/>
<path d="M1131.91 140.855C1131.88 139.342 1131.84 137.823 1131.81 136.31C1131.8 135.878 1131.42 135.515 1130.99 135.525C1129.48 135.56 1127.96 135.595 1126.44 135.629C1126.01 135.639 1125.65 136.019 1125.66 136.451C1125.69 137.964 1125.73 139.483 1125.76 140.996C1125.77 141.428 1126.15 141.79 1126.58 141.781C1128.1 141.746 1129.62 141.711 1131.13 141.676C1131.36 141.671 1131.54 141.579 1131.67 141.448C1131.68 141.439 1131.68 141.433 1131.69 141.424C1131.7 141.418 1131.7 141.409 1131.71 141.403C1131.84 141.274 1131.92 141.091 1131.91 140.855ZM1127.35 140.156C1127.33 139.174 1127.31 138.199 1127.29 137.217C1128.27 137.195 1129.24 137.172 1130.22 137.15C1130.25 138.131 1130.27 139.107 1130.29 140.088C1129.31 140.111 1128.33 140.13 1127.35 140.156Z" fill="url(#paint35_linear_497_2)"/>
<path d="M1155.16 163.054C1155.12 161.541 1155.09 160.022 1155.05 158.509C1155.04 158.077 1154.66 157.714 1154.23 157.724C1152.72 157.759 1151.2 157.794 1149.69 157.828C1149.25 157.838 1148.89 158.218 1148.9 158.65C1148.94 160.163 1148.97 161.682 1149 163.195C1149.01 163.627 1149.39 163.99 1149.83 163.98C1151.34 163.945 1152.86 163.91 1154.37 163.876C1154.6 163.87 1154.78 163.778 1154.91 163.647C1154.92 163.638 1154.92 163.632 1154.93 163.623C1154.94 163.617 1154.95 163.608 1154.95 163.602C1155.08 163.474 1155.16 163.29 1155.16 163.054ZM1150.6 162.355C1150.57 161.373 1150.55 160.398 1150.53 159.416C1151.51 159.394 1152.49 159.372 1153.47 159.349C1153.49 160.33 1153.51 161.306 1153.53 162.287C1152.55 162.31 1151.58 162.332 1150.6 162.355Z" fill="url(#paint36_linear_497_2)"/>
<path d="M1178.39 185.251C1178.36 183.738 1178.32 182.219 1178.29 180.706C1178.28 180.274 1177.9 179.912 1177.47 179.922C1175.96 179.956 1174.44 179.991 1172.92 180.026C1172.49 180.036 1172.13 180.415 1172.14 180.847C1172.17 182.36 1172.21 183.879 1172.24 185.392C1172.25 185.824 1172.63 186.187 1173.06 186.177C1174.58 186.142 1176.1 186.108 1177.61 186.073C1177.84 186.067 1178.02 185.976 1178.15 185.844C1178.16 185.835 1178.16 185.829 1178.17 185.82C1178.18 185.814 1178.19 185.805 1178.19 185.799C1178.32 185.671 1178.4 185.488 1178.39 185.251ZM1173.83 184.552C1173.81 183.571 1173.79 182.595 1173.77 181.614C1174.75 181.591 1175.72 181.569 1176.71 181.546C1176.73 182.528 1176.75 183.503 1176.77 184.485C1175.79 184.507 1174.82 184.53 1173.83 184.552Z" fill="url(#paint37_linear_497_2)"/>
<path d="M1201.63 207.446C1201.6 205.933 1201.56 204.415 1201.53 202.902C1201.52 202.469 1201.14 202.107 1200.71 202.117C1199.19 202.151 1197.68 202.186 1196.16 202.221C1195.73 202.231 1195.37 202.61 1195.38 203.043C1195.41 204.556 1195.45 206.075 1195.48 207.588C1195.49 208.02 1195.87 208.382 1196.3 208.372C1197.82 208.338 1199.33 208.303 1200.85 208.268C1201.08 208.263 1201.26 208.171 1201.39 208.04C1201.39 208.031 1201.4 208.025 1201.41 208.016C1201.41 208.01 1201.42 208.001 1201.43 207.995C1201.56 207.866 1201.64 207.683 1201.63 207.446ZM1197.07 206.747C1197.05 205.766 1197.03 204.79 1197.01 203.809C1197.99 203.787 1198.96 203.764 1199.94 203.742C1199.97 204.723 1199.99 205.699 1200.01 206.68C1199.03 206.703 1198.05 206.725 1197.07 206.747Z" fill="url(#paint38_linear_497_2)"/>
<path d="M1062.72 96.9813C1062.68 95.4683 1062.65 93.9495 1062.61 92.4365C1062.6 92.0334 1062.28 91.6989 1061.89 91.6582C1061.85 91.656 1061.82 91.6508 1061.79 91.6516C1060.28 91.6863 1058.76 91.7211 1057.24 91.7558C1056.81 91.7657 1056.45 92.1452 1056.46 92.5775C1056.49 94.0905 1056.53 95.6093 1056.56 97.1223C1056.56 97.1574 1056.57 97.1865 1056.57 97.2185C1056.63 97.6059 1056.98 97.9164 1057.39 97.9072C1058.9 97.8725 1060.42 97.8376 1061.93 97.803C1062.16 97.7976 1062.34 97.7058 1062.47 97.5744C1062.48 97.5654 1062.48 97.5594 1062.49 97.5505C1062.5 97.5445 1062.51 97.5355 1062.51 97.5296C1062.64 97.3981 1062.72 97.215 1062.72 96.9813ZM1058.15 96.2822C1058.15 96.0485 1058.14 95.8149 1058.14 95.5812C1058.12 94.8335 1058.1 94.0857 1058.09 93.3438C1058.84 93.3267 1059.58 93.3095 1060.32 93.2925C1060.56 93.2872 1060.79 93.2818 1061.03 93.2765C1061.05 94.2579 1061.07 95.2334 1061.09 96.2148C1060.11 96.2373 1059.13 96.2569 1058.15 96.2822Z" fill="url(#paint39_linear_497_2)"/>
<path d="M1085.96 119.179C1085.92 117.666 1085.89 116.147 1085.85 114.634C1085.84 114.202 1085.46 113.839 1085.03 113.849C1083.52 113.884 1082 113.919 1080.49 113.953C1080.05 113.963 1079.69 114.343 1079.7 114.775C1079.74 116.288 1079.77 117.807 1079.81 119.32C1079.82 119.752 1080.19 120.115 1080.63 120.105C1082.14 120.07 1083.66 120.035 1085.17 120.001C1085.41 119.995 1085.58 119.903 1085.71 119.772C1085.72 119.763 1085.72 119.757 1085.73 119.748C1085.74 119.742 1085.75 119.733 1085.75 119.727C1085.88 119.599 1085.97 119.415 1085.96 119.179ZM1081.4 118.48C1081.37 117.498 1081.35 116.523 1081.33 115.541C1082.31 115.519 1083.29 115.497 1084.27 115.474C1084.29 116.455 1084.31 117.431 1084.33 118.412C1083.35 118.435 1082.38 118.454 1081.4 118.48Z" fill="url(#paint40_linear_497_2)"/>
<path d="M1109.2 141.376C1109.16 139.863 1109.13 138.344 1109.09 136.831C1109.09 136.399 1108.71 136.037 1108.27 136.047C1106.76 136.081 1105.24 136.116 1103.73 136.151C1103.3 136.161 1102.93 136.54 1102.94 136.972C1102.98 138.485 1103.01 140.004 1103.05 141.517C1103.06 141.949 1103.44 142.312 1103.87 142.302C1105.38 142.267 1106.9 142.232 1108.41 142.198C1108.65 142.192 1108.83 142.101 1108.95 141.969C1108.96 141.96 1108.97 141.954 1108.98 141.945C1108.98 141.939 1108.99 141.93 1109 141.924C1109.12 141.796 1109.21 141.613 1109.2 141.376ZM1104.64 140.677C1104.62 139.696 1104.59 138.72 1104.57 137.739C1105.55 137.716 1106.53 137.694 1107.51 137.671C1107.53 138.653 1107.55 139.628 1107.58 140.61C1106.6 140.632 1105.62 140.652 1104.64 140.677Z" fill="url(#paint41_linear_497_2)"/>
<path d="M1132.44 163.573C1132.4 162.06 1132.37 160.542 1132.33 159.029C1132.32 158.596 1131.94 158.234 1131.51 158.244C1130 158.278 1128.48 158.313 1126.97 158.348C1126.53 158.358 1126.17 158.737 1126.18 159.17C1126.22 160.683 1126.25 162.201 1126.29 163.714C1126.3 164.147 1126.68 164.509 1127.11 164.499C1128.62 164.465 1130.14 164.43 1131.65 164.395C1131.89 164.39 1132.07 164.298 1132.19 164.166C1132.2 164.158 1132.21 164.152 1132.21 164.143C1132.22 164.137 1132.23 164.128 1132.23 164.122C1132.36 163.993 1132.45 163.81 1132.44 163.573ZM1127.88 162.874C1127.85 161.893 1127.83 160.917 1127.81 159.936C1128.79 159.913 1129.77 159.891 1130.75 159.869C1130.77 160.85 1130.79 161.826 1130.82 162.807C1129.83 162.829 1128.86 162.852 1127.88 162.874Z" fill="url(#paint42_linear_497_2)"/>
<path d="M1155.68 185.771C1155.64 184.258 1155.61 182.739 1155.57 181.226C1155.56 180.794 1155.18 180.431 1154.75 180.441C1153.24 180.476 1151.72 180.511 1150.21 180.545C1149.77 180.555 1149.41 180.935 1149.42 181.367C1149.45 182.88 1149.49 184.399 1149.52 185.912C1149.53 186.344 1149.91 186.706 1150.35 186.697C1151.86 186.662 1153.38 186.627 1154.89 186.592C1155.12 186.587 1155.3 186.495 1155.43 186.364C1155.44 186.355 1155.44 186.349 1155.45 186.34C1155.46 186.334 1155.47 186.325 1155.47 186.319C1155.6 186.19 1155.68 186.007 1155.68 185.771ZM1151.12 185.072C1151.09 184.09 1151.07 183.115 1151.05 182.133C1152.03 182.111 1153.01 182.088 1153.99 182.066C1154.01 183.047 1154.03 184.023 1154.05 185.004C1153.07 185.027 1152.1 185.049 1151.12 185.072Z" fill="url(#paint43_linear_497_2)"/>
<path d="M1178.91 207.968C1178.88 206.455 1178.84 204.936 1178.81 203.423C1178.8 202.991 1178.42 202.628 1177.98 202.638C1176.47 202.673 1174.95 202.708 1173.44 202.742C1173.01 202.752 1172.64 203.132 1172.65 203.564C1172.69 205.077 1172.72 206.596 1172.76 208.109C1172.77 208.541 1173.15 208.904 1173.58 208.894C1175.09 208.859 1176.61 208.824 1178.13 208.79C1178.36 208.784 1178.54 208.692 1178.66 208.561C1178.67 208.552 1178.68 208.546 1178.69 208.537C1178.69 208.531 1178.7 208.522 1178.71 208.516C1178.83 208.388 1178.92 208.204 1178.91 207.968ZM1174.35 207.269C1174.33 206.287 1174.3 205.312 1174.28 204.33C1175.26 204.308 1176.24 204.286 1177.22 204.263C1177.24 205.245 1177.27 206.22 1177.29 207.201C1176.31 207.224 1175.33 207.246 1174.35 207.269Z" fill="url(#paint44_linear_497_2)"/>
<path d="M1063.24 119.7C1063.2 118.187 1063.17 116.669 1063.13 115.156C1063.12 114.723 1062.74 114.361 1062.31 114.371C1060.8 114.405 1059.28 114.44 1057.77 114.475C1057.34 114.485 1056.97 114.864 1056.98 115.297C1057.02 116.81 1057.05 118.328 1057.09 119.841C1057.1 120.274 1057.48 120.636 1057.91 120.626C1059.42 120.592 1060.94 120.557 1062.45 120.522C1062.69 120.517 1062.87 120.425 1062.99 120.293C1063 120.284 1063.01 120.278 1063.01 120.27C1063.02 120.264 1063.03 120.255 1063.03 120.249C1063.16 120.12 1063.25 119.937 1063.24 119.7ZM1058.68 119.001C1058.66 118.02 1058.63 117.044 1058.61 116.063C1059.59 116.04 1060.57 116.018 1061.55 115.996C1061.57 116.977 1061.59 117.952 1061.62 118.934C1060.63 118.956 1059.66 118.976 1058.68 119.001Z" fill="url(#paint45_linear_497_2)"/>
<path d="M1086.48 141.898C1086.45 140.385 1086.41 138.866 1086.38 137.353C1086.37 136.921 1085.99 136.558 1085.55 136.568C1084.04 136.603 1082.52 136.637 1081.01 136.672C1080.58 136.682 1080.22 137.062 1080.22 137.494C1080.26 139.007 1080.29 140.526 1080.33 142.039C1080.34 142.471 1080.72 142.833 1081.15 142.823C1082.66 142.789 1084.18 142.754 1085.7 142.719C1085.93 142.714 1086.11 142.622 1086.23 142.491C1086.24 142.482 1086.25 142.476 1086.26 142.467C1086.26 142.461 1086.27 142.452 1086.28 142.446C1086.41 142.317 1086.49 142.134 1086.48 141.898ZM1081.92 141.199C1081.9 140.217 1081.88 139.242 1081.85 138.26C1082.83 138.238 1083.81 138.215 1084.79 138.193C1084.81 139.174 1084.84 140.15 1084.86 141.131C1083.88 141.154 1082.9 141.173 1081.92 141.199Z" fill="url(#paint46_linear_497_2)"/>
<path d="M1109.72 164.095C1109.68 162.582 1109.65 161.063 1109.61 159.55C1109.6 159.118 1109.23 158.755 1108.79 158.765C1107.28 158.8 1105.76 158.835 1104.25 158.869C1103.82 158.879 1103.45 159.259 1103.46 159.691C1103.5 161.204 1103.53 162.723 1103.57 164.236C1103.58 164.668 1103.96 165.031 1104.39 165.021C1105.9 164.986 1107.42 164.951 1108.93 164.917C1109.17 164.911 1109.35 164.819 1109.47 164.688C1109.48 164.679 1109.49 164.673 1109.5 164.664C1109.5 164.658 1109.51 164.649 1109.51 164.643C1109.64 164.515 1109.73 164.331 1109.72 164.095ZM1105.16 163.396C1105.14 162.414 1105.11 161.439 1105.09 160.457C1106.07 160.435 1107.05 160.413 1108.03 160.39C1108.05 161.371 1108.07 162.347 1108.1 163.328C1107.12 163.351 1106.14 163.37 1105.16 163.396Z" fill="url(#paint47_linear_497_2)"/>
<path d="M1132.96 186.292C1132.92 184.779 1132.89 183.26 1132.85 181.747C1132.84 181.315 1132.46 180.953 1132.03 180.963C1130.52 180.997 1129 181.032 1127.49 181.067C1127.05 181.077 1126.69 181.456 1126.7 181.888C1126.74 183.401 1126.77 184.92 1126.81 186.433C1126.82 186.865 1127.19 187.228 1127.63 187.218C1129.14 187.183 1130.66 187.149 1132.17 187.114C1132.41 187.108 1132.58 187.017 1132.71 186.885C1132.72 186.876 1132.72 186.87 1132.73 186.861C1132.74 186.855 1132.75 186.846 1132.75 186.84C1132.88 186.712 1132.97 186.529 1132.96 186.292ZM1128.4 185.593C1128.37 184.612 1128.35 183.636 1128.33 182.655C1129.31 182.632 1130.29 182.61 1131.27 182.587C1131.29 183.569 1131.31 184.544 1131.33 185.526C1130.35 185.548 1129.38 185.571 1128.4 185.593Z" fill="url(#paint48_linear_497_2)"/>
<path d="M1156.2 208.489C1156.16 206.976 1156.13 205.458 1156.09 203.945C1156.08 203.512 1155.7 203.15 1155.27 203.16C1153.76 203.194 1152.24 203.229 1150.72 203.264C1150.29 203.274 1149.93 203.653 1149.94 204.086C1149.97 205.599 1150.01 207.117 1150.04 208.63C1150.05 209.063 1150.43 209.425 1150.87 209.415C1152.38 209.381 1153.9 209.346 1155.41 209.311C1155.64 209.306 1155.82 209.214 1155.95 209.082C1155.96 209.074 1155.96 209.068 1155.97 209.059C1155.98 209.053 1155.99 209.044 1155.99 209.038C1156.12 208.909 1156.2 208.726 1156.2 208.489ZM1151.63 207.79C1151.61 206.809 1151.59 205.833 1151.57 204.852C1152.55 204.829 1153.52 204.807 1154.51 204.785C1154.53 205.766 1154.55 206.742 1154.57 207.723C1153.59 207.745 1152.62 207.768 1151.63 207.79Z" fill="url(#paint49_linear_497_2)"/>
<path d="M1179.43 230.687C1179.4 229.174 1179.36 227.655 1179.33 226.142C1179.32 225.71 1178.94 225.347 1178.51 225.357C1176.99 225.392 1175.48 225.427 1173.96 225.461C1173.53 225.471 1173.17 225.851 1173.18 226.283C1173.21 227.796 1173.25 229.315 1173.28 230.828C1173.29 231.26 1173.67 231.622 1174.1 231.613C1175.62 231.578 1177.14 231.543 1178.65 231.508C1178.88 231.503 1179.06 231.411 1179.19 231.28C1179.2 231.271 1179.2 231.265 1179.21 231.256C1179.22 231.25 1179.22 231.241 1179.23 231.235C1179.36 231.106 1179.44 230.923 1179.43 230.687ZM1174.87 229.988C1174.85 229.006 1174.83 228.031 1174.81 227.049C1175.79 227.027 1176.76 227.004 1177.74 226.982C1177.77 227.963 1177.79 228.939 1177.81 229.92C1176.83 229.943 1175.85 229.965 1174.87 229.988Z" fill="url(#paint50_linear_497_2)"/>
<path d="M1128.8 4.54217C1128.76 3.02917 1128.73 1.51033 1128.69 -0.00267197C1128.68 -0.434959 1128.3 -0.797403 1127.87 -0.787491C1126.36 -0.752802 1124.84 -0.717987 1123.33 -0.683298C1122.89 -0.673386 1122.53 -0.293933 1122.54 0.138354C1122.58 1.65136 1122.61 3.17021 1122.65 4.68322C1122.66 5.1155 1123.03 5.47795 1123.47 5.46803C1124.98 5.43335 1126.5 5.39851 1128.01 5.36382C1128.25 5.35847 1128.42 5.26669 1128.55 5.13523C1128.56 5.12626 1128.56 5.12028 1128.57 5.11132C1128.58 5.10534 1128.59 5.09638 1128.59 5.0904C1128.72 4.95894 1128.8 4.77883 1128.8 4.54217ZM1124.23 3.84607C1124.21 2.86466 1124.19 1.88909 1124.17 0.907681C1125.15 0.88518 1126.12 0.862821 1127.1 0.84032C1127.13 1.82173 1127.15 2.79728 1127.17 3.77869C1126.19 3.79821 1125.21 3.82072 1124.23 3.84607Z" fill="url(#paint51_linear_497_2)"/>
<path d="M1106.08 5.06367C1106.04 3.55067 1106.01 2.03182 1105.97 0.518812C1105.96 0.0865257 1105.58 -0.275918 1105.15 -0.266007C1103.64 -0.231317 1102.12 -0.196485 1100.61 -0.161795C1100.18 -0.151884 1099.81 0.22757 1099.82 0.659857C1099.86 2.17286 1099.89 3.6917 1099.93 5.2047C1099.94 5.63699 1100.32 5.99943 1100.75 5.98952C1102.26 5.95483 1103.78 5.92002 1105.29 5.88533C1105.53 5.87997 1105.71 5.78819 1105.83 5.65673C1105.84 5.64777 1105.85 5.64179 1105.85 5.63282C1105.86 5.62685 1105.87 5.61788 1105.87 5.6119C1106 5.48044 1106.08 5.30033 1106.08 5.06367ZM1101.51 4.36756C1101.49 3.38615 1101.47 2.41059 1101.45 1.42918C1102.43 1.40668 1103.4 1.38431 1104.39 1.3618C1104.41 2.34321 1104.43 3.31879 1104.45 4.30019C1103.47 4.31971 1102.49 4.3422 1101.51 4.36756Z" fill="url(#paint52_linear_497_2)"/>
<path d="M1083.36 5.58321C1083.32 4.0702 1083.29 2.55135 1083.25 1.03834C1083.24 0.606057 1082.86 0.243613 1082.43 0.253524C1080.92 0.288214 1079.4 0.323047 1077.88 0.357736C1077.45 0.367648 1077.09 0.747101 1077.1 1.17939C1077.13 2.69239 1077.17 4.21123 1077.2 5.72423C1077.21 6.15652 1077.59 6.51896 1078.03 6.50905C1079.54 6.47436 1081.06 6.43955 1082.57 6.40486C1082.8 6.3995 1082.98 6.30772 1083.11 6.17626C1083.12 6.1673 1083.12 6.16132 1083.13 6.15235C1083.14 6.14638 1083.15 6.13741 1083.15 6.13144C1083.27 6.00296 1083.36 5.81986 1083.36 5.58321ZM1078.79 4.88423C1078.77 3.90282 1078.74 2.92727 1078.72 1.94586C1079.7 1.92336 1080.68 1.90098 1081.66 1.87848C1081.68 2.85989 1081.71 3.83546 1081.73 4.81687C1080.75 4.83924 1079.77 4.86173 1078.79 4.88423Z" fill="url(#paint53_linear_497_2)"/>
<path d="M1106.6 27.7805C1106.56 26.2675 1106.53 24.7486 1106.49 23.2356C1106.48 22.8033 1106.1 22.4409 1105.67 22.4508C1104.16 22.4855 1102.64 22.5203 1101.13 22.555C1100.69 22.5649 1100.33 22.9444 1100.34 23.3767C1100.38 24.8897 1100.41 26.4085 1100.45 27.9215C1100.46 28.3538 1100.84 28.7162 1101.27 28.7063C1102.78 28.6716 1104.3 28.6368 1105.81 28.6021C1106.05 28.5968 1106.23 28.505 1106.35 28.3735C1106.36 28.3646 1106.37 28.3586 1106.37 28.3496C1106.38 28.3436 1106.39 28.3347 1106.39 28.3287C1106.52 28.2002 1106.6 28.0171 1106.6 27.7805ZM1102.03 27.0844C1102.01 26.1029 1101.99 25.1274 1101.97 24.146C1102.95 24.1235 1103.92 24.1011 1104.91 24.0786C1104.93 25.06 1104.95 26.0356 1104.97 27.017C1103.99 27.0365 1103.01 27.059 1102.03 27.0844Z" fill="url(#paint54_linear_497_2)"/>
<path d="M1060.64 6.10467C1060.61 4.59167 1060.57 3.07283 1060.54 1.55983C1060.53 1.12754 1060.15 0.765097 1059.71 0.775009C1058.2 0.809698 1056.68 0.844513 1055.17 0.879202C1054.74 0.889114 1054.38 1.26857 1054.39 1.70085C1054.42 3.21386 1054.45 4.73271 1054.49 6.24572C1054.5 6.678 1054.88 7.04045 1055.31 7.03053C1056.82 6.99585 1058.34 6.96101 1059.86 6.92632C1060.09 6.92097 1060.27 6.82919 1060.39 6.69773C1060.4 6.68876 1060.41 6.6828 1060.42 6.67384C1060.42 6.66786 1060.43 6.6589 1060.44 6.65292C1060.56 6.52444 1060.64 6.34133 1060.64 6.10467ZM1056.07 5.40571C1056.05 4.42431 1056.03 3.44873 1056.01 2.46732C1056.99 2.44482 1057.96 2.42246 1058.95 2.39996C1058.97 3.38137 1058.99 4.35693 1059.01 5.33834C1058.03 5.36369 1057.06 5.38321 1056.07 5.40571Z" fill="url(#paint55_linear_497_2)"/>
<path d="M1083.88 28.3019C1083.84 26.7889 1083.81 25.2701 1083.77 23.7571C1083.76 23.3248 1083.39 22.9624 1082.95 22.9723C1081.44 23.007 1079.92 23.0418 1078.41 23.0765C1077.98 23.0864 1077.61 23.4658 1077.62 23.8981C1077.66 25.4111 1077.69 26.93 1077.73 28.443C1077.74 28.8753 1078.12 29.2377 1078.55 29.2278C1080.06 29.1931 1081.58 29.1583 1083.09 29.1236C1083.33 29.1182 1083.51 29.0265 1083.63 28.895C1083.64 28.886 1083.65 28.8801 1083.66 28.8711C1083.66 28.8651 1083.67 28.8562 1083.68 28.8502C1083.8 28.7217 1083.88 28.5386 1083.88 28.3019ZM1079.32 27.6058C1079.29 26.6244 1079.27 25.6489 1079.25 24.6674C1080.23 24.6449 1081.21 24.6226 1082.19 24.6001C1082.21 25.5815 1082.23 26.557 1082.25 27.5385C1081.27 27.561 1080.29 27.5805 1079.32 27.6058Z" fill="url(#paint56_linear_497_2)"/>
<path d="M1037.92 6.62421C1037.89 5.1112 1037.85 3.59236 1037.82 2.07936C1037.81 1.64707 1037.43 1.28463 1037 1.29454C1035.48 1.32923 1033.96 1.36404 1032.45 1.39873C1032.02 1.40864 1031.66 1.7881 1031.67 2.22039C1031.7 3.73339 1031.74 5.25224 1031.77 6.76525C1031.78 7.19753 1032.16 7.55998 1032.59 7.55007C1034.11 7.51538 1035.62 7.48055 1037.14 7.44586C1037.37 7.4405 1037.55 7.34873 1037.68 7.21726C1037.68 7.2083 1037.69 7.20232 1037.7 7.19335C1037.7 7.18738 1037.71 7.17841 1037.72 7.17244C1037.84 7.04396 1037.92 6.86086 1037.92 6.62421ZM1033.36 5.92525C1033.33 4.94384 1033.31 3.96827 1033.29 2.98686C1034.27 2.96436 1035.25 2.942 1036.23 2.9195C1036.25 3.90091 1036.27 4.87646 1036.29 5.85787C1035.32 5.88323 1034.34 5.90275 1033.36 5.92525Z" fill="url(#paint57_linear_497_2)"/>
<path d="M1061.16 28.8215C1061.13 27.3085 1061.09 25.7896 1061.06 24.2766C1061.05 23.8443 1060.67 23.4819 1060.23 23.4918C1058.72 23.5265 1057.2 23.5613 1055.69 23.596C1055.26 23.6059 1054.89 23.9854 1054.9 24.4177C1054.94 25.9307 1054.97 27.4495 1055.01 28.9625C1055.02 29.3948 1055.4 29.7572 1055.83 29.7473C1057.34 29.7126 1058.86 29.6778 1060.38 29.6431C1060.61 29.6378 1060.79 29.546 1060.91 29.4145C1060.92 29.4056 1060.93 29.3996 1060.94 29.3906C1060.94 29.3846 1060.95 29.3757 1060.96 29.3697C1061.08 29.2412 1061.16 29.0581 1061.16 28.8215ZM1056.59 28.1225C1056.57 27.1411 1056.55 26.1655 1056.53 25.1841C1057.51 25.1616 1058.48 25.1393 1059.46 25.1168C1059.49 26.0982 1059.51 27.0737 1059.53 28.0551C1058.55 28.0805 1057.58 28.1 1056.59 28.1225Z" fill="url(#paint58_linear_497_2)"/>
<path d="M1084.4 51.0207C1084.36 49.5077 1084.33 47.9888 1084.29 46.4758C1084.28 46.0436 1083.9 45.6811 1083.47 45.691C1081.96 45.7257 1080.44 45.7605 1078.93 45.7952C1078.5 45.8051 1078.13 46.1846 1078.14 46.6169C1078.18 48.1299 1078.21 49.6487 1078.25 51.1617C1078.26 51.594 1078.64 51.9565 1079.07 51.9466C1080.58 51.9119 1082.1 51.877 1083.61 51.8423C1083.85 51.837 1084.03 51.7452 1084.15 51.6137C1084.16 51.6048 1084.17 51.5988 1084.17 51.5898C1084.18 51.5839 1084.19 51.5749 1084.19 51.5689C1084.32 51.4404 1084.4 51.2573 1084.4 51.0207ZM1079.84 50.3246C1079.81 49.3432 1079.79 48.3676 1079.77 47.3862C1080.75 47.3637 1081.72 47.3413 1082.71 47.3188C1082.73 48.3002 1082.75 49.2758 1082.77 50.2572C1081.79 50.2797 1080.81 50.2992 1079.84 50.3246Z" fill="url(#paint59_linear_497_2)"/>
<path d="M1015.2 7.14769C1015.16 5.63469 1015.13 4.11583 1015.09 2.60283C1015.09 2.17054 1014.71 1.8081 1014.27 1.81801C1012.76 1.8527 1011.24 1.88753 1009.73 1.92222C1009.3 1.93213 1008.93 2.31158 1008.94 2.74387C1008.98 4.25688 1009.01 5.77571 1009.05 7.28871C1009.06 7.721 1009.44 8.08345 1009.87 8.07353C1011.38 8.03884 1012.9 8.00403 1014.41 7.96934C1014.65 7.96399 1014.83 7.87221 1014.95 7.74075C1014.96 7.73178 1014.97 7.7258 1014.98 7.71684C1014.98 7.71086 1014.99 7.7019 1015 7.69592C1015.12 7.56446 1015.2 7.38136 1015.2 7.14769ZM1010.64 6.44573C1010.61 5.46432 1010.59 4.48876 1010.57 3.50736C1011.55 3.48485 1012.53 3.46248 1013.51 3.43998C1013.53 4.42138 1013.55 5.39696 1013.57 6.37837C1012.6 6.40372 1011.62 6.42323 1010.64 6.44573Z" fill="url(#paint60_linear_497_2)"/>
<path d="M1038.44 29.3469C1038.4 27.8339 1038.37 26.315 1038.33 24.802C1038.32 24.3697 1037.94 24.0073 1037.51 24.0172C1036 24.0519 1034.48 24.0867 1032.97 24.1214C1032.53 24.1313 1032.17 24.5108 1032.18 24.9431C1032.22 26.4561 1032.25 27.9749 1032.29 29.4879C1032.3 29.9202 1032.68 30.2826 1033.11 30.2727C1034.62 30.238 1036.14 30.2032 1037.65 30.1685C1037.89 30.1632 1038.07 30.0714 1038.19 29.9399C1038.2 29.931 1038.21 29.925 1038.21 29.916C1038.22 29.91 1038.23 29.9011 1038.23 29.8951C1038.36 29.7636 1038.44 29.5805 1038.44 29.3469ZM1033.87 28.6449C1033.85 27.6635 1033.83 26.6879 1033.81 25.7065C1034.79 25.684 1035.76 25.6617 1036.75 25.6392C1036.77 26.6206 1036.79 27.5961 1036.81 28.5776C1035.83 28.6029 1034.86 28.6224 1033.87 28.6449Z" fill="url(#paint61_linear_497_2)"/>
<path d="M1061.68 51.5441C1061.64 50.0311 1061.61 48.5123 1061.57 46.9993C1061.56 46.567 1061.18 46.2046 1060.75 46.2145C1059.24 46.2492 1057.72 46.284 1056.21 46.3187C1055.77 46.3286 1055.41 46.708 1055.42 47.1403C1055.45 48.6533 1055.49 50.1722 1055.52 51.6852C1055.53 52.1175 1055.91 52.4799 1056.35 52.47C1057.86 52.4353 1059.38 52.4005 1060.89 52.3658C1061.12 52.3604 1061.3 52.2687 1061.43 52.1372C1061.44 52.1282 1061.44 52.1223 1061.45 52.1133C1061.46 52.1073 1061.47 52.0983 1061.47 52.0924C1061.6 51.9609 1061.68 51.7778 1061.68 51.5441ZM1057.12 50.845C1057.09 49.8636 1057.07 48.8881 1057.05 47.9067C1058.03 47.8842 1059 47.8618 1059.99 47.8393C1060.01 48.8207 1060.03 49.7963 1060.05 50.7777C1059.07 50.8002 1058.09 50.8197 1057.12 50.845Z" fill="url(#paint62_linear_497_2)"/>
<path d="M992.484 7.6711C992.45 6.15809 992.415 4.63924 992.38 3.12623C992.37 2.69395 991.991 2.3315 991.558 2.34141C990.045 2.3761 988.527 2.41094 987.014 2.44563C986.581 2.45554 986.219 2.83499 986.229 3.26728C986.263 4.78028 986.298 6.29912 986.333 7.81212C986.343 8.24441 986.722 8.60685 987.155 8.59694C988.668 8.56225 990.186 8.52744 991.699 8.49275C991.933 8.48739 992.112 8.3956 992.238 8.26414C992.246 8.25517 992.252 8.24921 992.261 8.24025C992.266 8.23427 992.275 8.22531 992.281 8.21933C992.406 8.08787 992.49 7.90476 992.484 7.6711ZM987.921 6.96913C987.898 5.98773 987.876 5.01217 987.854 4.03076C988.835 4.00826 989.811 3.98588 990.792 3.96338C990.814 4.94479 990.837 5.92037 990.859 6.90177C989.878 6.92427 988.902 6.94663 987.921 6.96913Z" fill="url(#paint63_linear_497_2)"/>
<path d="M1015.72 29.8664C1015.68 28.3534 1015.65 26.8346 1015.61 25.3215C1015.6 24.8893 1015.23 24.5268 1014.79 24.5367C1013.28 24.5714 1011.76 24.6062 1010.25 24.6409C1009.82 24.6509 1009.45 25.0303 1009.46 25.4626C1009.5 26.9756 1009.53 28.4944 1009.57 30.0074C1009.58 30.4397 1009.96 30.8022 1010.39 30.7923C1011.9 30.7576 1013.42 30.7228 1014.93 30.6881C1015.17 30.6827 1015.35 30.5909 1015.47 30.4594C1015.48 30.4505 1015.49 30.4445 1015.49 30.4356C1015.5 30.4296 1015.51 30.4206 1015.51 30.4146C1015.64 30.2832 1015.72 30.1001 1015.72 29.8664ZM1011.16 29.1644C1011.13 28.183 1011.11 27.2075 1011.09 26.2261C1012.07 26.2036 1013.04 26.1812 1014.03 26.1587C1014.05 27.1401 1014.07 28.1157 1014.09 29.0971C1013.12 29.1224 1012.14 29.1419 1011.16 29.1644Z" fill="url(#paint64_linear_497_2)"/>
<path d="M1038.96 52.0656C1038.93 50.5526 1038.89 49.0338 1038.86 47.5208C1038.85 47.0885 1038.47 46.726 1038.04 46.7359C1036.52 46.7706 1035 46.8055 1033.49 46.8402C1033.06 46.8501 1032.7 47.2295 1032.71 47.6618C1032.74 49.1748 1032.77 50.6936 1032.81 52.2067C1032.82 52.6389 1033.2 53.0014 1033.63 52.9915C1035.14 52.9568 1036.66 52.922 1038.18 52.8873C1038.41 52.8819 1038.59 52.7901 1038.71 52.6587C1038.72 52.6497 1038.73 52.6437 1038.74 52.6348C1038.74 52.6288 1038.75 52.6198 1038.76 52.6139C1038.88 52.4824 1038.97 52.2993 1038.96 52.0656ZM1034.4 51.3637C1034.38 50.3823 1034.35 49.4067 1034.33 48.4253C1035.31 48.4028 1036.29 48.3804 1037.27 48.3579C1037.29 49.3393 1037.31 50.3149 1037.34 51.2963C1036.36 51.3217 1035.38 51.3412 1034.4 51.3637Z" fill="url(#paint65_linear_497_2)"/>
<path d="M1062.2 74.2629C1062.16 72.7499 1062.13 71.231 1062.09 69.718C1062.09 69.2857 1061.71 68.9233 1061.27 68.9332C1059.76 68.9679 1058.24 69.0027 1056.73 69.0374C1056.3 69.0473 1055.93 69.4268 1055.94 69.8591C1055.98 71.3721 1056.01 72.8909 1056.05 74.4039C1056.06 74.8362 1056.44 75.1986 1056.87 75.1887C1058.38 75.154 1059.9 75.1192 1061.41 75.0845C1061.65 75.0792 1061.83 74.9874 1061.95 74.8559C1061.96 74.847 1061.97 74.841 1061.98 74.832C1061.98 74.8261 1061.99 74.8171 1062 74.8111C1062.12 74.6797 1062.2 74.4966 1062.2 74.2629ZM1057.64 73.5638C1057.62 72.5824 1057.59 71.6068 1057.57 70.6254C1058.55 70.6029 1059.53 70.5805 1060.51 70.558C1060.53 71.5394 1060.55 72.515 1060.58 73.4964C1059.6 73.5189 1058.62 73.5384 1057.64 73.5638Z" fill="url(#paint66_linear_497_2)"/>
<path d="M969.762 8.19061C969.727 6.6776 969.692 5.15877 969.657 3.64577C969.648 3.21348 969.268 2.85104 968.836 2.86095C967.323 2.89564 965.804 2.93045 964.291 2.96514C963.859 2.97505 963.496 3.3545 963.506 3.78679C963.541 5.2998 963.576 6.81865 963.61 8.33165C963.62 8.76394 964 9.12638 964.432 9.11647C965.945 9.08178 967.464 9.04695 968.977 9.01226C969.21 9.0069 969.39 8.91513 969.515 8.78367C969.524 8.7747 969.529 8.76872 969.538 8.75976C969.544 8.75378 969.552 8.74484 969.558 8.73886C969.684 8.6074 969.767 8.42428 969.762 8.19061ZM965.198 7.48866C965.176 6.50725 965.153 5.53168 965.131 4.55027C966.112 4.52777 967.088 4.50541 968.069 4.48291C968.092 5.46432 968.114 6.43988 968.137 7.42128C967.155 7.44379 966.18 7.46616 965.198 7.48866Z" fill="url(#paint67_linear_497_2)"/>
<path d="M993 30.3879C992.965 28.8749 992.93 27.356 992.896 25.843C992.886 25.4107 992.506 25.0483 992.074 25.0582C990.561 25.0929 989.042 25.1277 987.529 25.1624C987.097 25.1723 986.735 25.5518 986.744 25.9841C986.779 27.4971 986.814 29.0159 986.849 30.5289C986.858 30.9612 987.238 31.3236 987.67 31.3137C989.183 31.279 990.702 31.2442 992.215 31.2095C992.449 31.2042 992.628 31.1124 992.753 30.9809C992.762 30.972 992.768 30.966 992.776 30.957C992.782 30.9511 992.791 30.9421 992.796 30.9361C992.922 30.8047 993.005 30.6215 993 30.3879ZM988.437 29.6859C988.414 28.7045 988.392 27.7289 988.369 26.7475C989.351 26.725 990.326 26.7027 991.308 26.6802C991.33 27.6616 991.352 28.6371 991.375 29.6186C990.397 29.6439 989.418 29.6634 988.437 29.6859Z" fill="url(#paint68_linear_497_2)"/>
<path d="M1016.24 52.5851C1016.21 51.0721 1016.17 49.5533 1016.14 48.0403C1016.13 47.608 1015.75 47.2456 1015.32 47.2555C1013.8 47.2902 1012.28 47.325 1010.77 47.3597C1010.34 47.3696 1009.98 47.749 1009.99 48.1813C1010.02 49.6943 1010.06 51.2132 1010.09 52.7262C1010.1 53.1585 1010.48 53.5209 1010.91 53.511C1012.43 53.4763 1013.94 53.4415 1015.46 53.4068C1015.69 53.4014 1015.87 53.3097 1016 53.1782C1016 53.1692 1016.01 53.1633 1016.02 53.1543C1016.02 53.1483 1016.03 53.1394 1016.04 53.1334C1016.16 53.0019 1016.25 52.8188 1016.24 52.5851ZM1011.68 51.8832C1011.66 50.9018 1011.63 49.9262 1011.61 48.9448C1012.59 48.9223 1013.57 48.8999 1014.55 48.8774C1014.57 49.8588 1014.59 50.8344 1014.62 51.8158C1013.64 51.8412 1012.66 51.8607 1011.68 51.8832Z" fill="url(#paint69_linear_497_2)"/>
<path d="M1039.48 74.7844C1039.45 73.2714 1039.41 71.7525 1039.38 70.2395C1039.37 69.8072 1038.99 69.4448 1038.55 69.4547C1037.04 69.4894 1035.52 69.5242 1034.01 69.5589C1033.58 69.5688 1033.22 69.9483 1033.22 70.3805C1033.26 71.8935 1033.29 73.4124 1033.33 74.9254C1033.34 75.3577 1033.72 75.7201 1034.15 75.7102C1035.66 75.6755 1037.18 75.6407 1038.7 75.606C1038.93 75.6007 1039.11 75.5089 1039.23 75.3774C1039.24 75.3685 1039.25 75.3625 1039.26 75.3535C1039.26 75.3475 1039.27 75.3386 1039.28 75.3326C1039.4 75.2011 1039.49 75.018 1039.48 74.7844ZM1034.92 74.0853C1034.9 73.1039 1034.88 72.1283 1034.85 71.1469C1035.83 71.1244 1036.81 71.102 1037.79 71.0795C1037.81 72.0609 1037.84 73.0365 1037.86 74.0179C1036.88 74.0404 1035.9 74.0599 1034.92 74.0853Z" fill="url(#paint70_linear_497_2)"/>
<path d="M947.039 8.70819C947.004 7.19518 946.969 5.67635 946.935 4.16334C946.925 3.73106 946.545 3.36861 946.113 3.37852C944.6 3.41321 943.081 3.44803 941.568 3.48272C941.136 3.49263 940.774 3.87208 940.784 4.30437C940.818 5.81737 940.853 7.33623 940.888 8.84923C940.898 9.28152 941.277 9.64396 941.709 9.63405C943.222 9.59936 944.741 9.56453 946.254 9.52984C946.488 9.52448 946.667 9.43271 946.792 9.30124C946.801 9.29228 946.807 9.2863 946.815 9.27734C946.821 9.27136 946.83 9.26239 946.835 9.25642C946.964 9.12781 947.047 8.94471 947.039 8.70819ZM942.479 8.00909C942.456 7.02769 942.434 6.05211 942.411 5.0707C943.393 5.0482 944.368 5.02584 945.35 5.00334C945.372 5.98475 945.395 6.96031 945.417 7.94172C944.436 7.96422 943.46 7.98659 942.479 8.00909Z" fill="url(#paint71_linear_497_2)"/>
<path d="M970.285 30.9094C970.25 29.3964 970.216 27.8775 970.181 26.3645C970.171 25.9322 969.792 25.5698 969.359 25.5797C967.846 25.6144 966.327 25.6492 964.814 25.6839C964.382 25.6938 964.02 26.0733 964.03 26.5055C964.064 28.0185 964.099 29.5374 964.134 31.0504C964.144 31.4827 964.523 31.8451 964.955 31.8352C966.468 31.8005 967.987 31.7657 969.5 31.731C969.734 31.7257 969.913 31.6339 970.039 31.5024C970.047 31.4935 970.053 31.4875 970.061 31.4785C970.067 31.4725 970.076 31.4636 970.081 31.4576C970.207 31.3261 970.29 31.143 970.285 30.9094ZM965.722 30.2074C965.699 29.226 965.677 28.2504 965.654 27.269C966.636 27.2465 967.611 27.2242 968.593 27.2017C968.615 28.1831 968.638 29.1586 968.66 30.14C967.679 30.1625 966.703 30.1849 965.722 30.2074Z" fill="url(#paint72_linear_497_2)"/>
<path d="M993.519 53.1066C993.485 51.5936 993.45 50.0748 993.415 48.5618C993.405 48.1295 993.026 47.7671 992.594 47.777C991.081 47.8117 989.562 47.8465 988.049 47.8812C987.617 47.8911 987.254 48.2705 987.264 48.7028C987.299 50.2158 987.333 51.7347 987.368 53.2477C987.378 53.68 987.757 54.0424 988.19 54.0325C989.703 53.9978 991.222 53.963 992.735 53.9283C992.968 53.9229 993.147 53.8311 993.273 53.6997C993.282 53.6907 993.287 53.6847 993.296 53.6758C993.301 53.6698 993.31 53.6608 993.316 53.6549C993.441 53.5234 993.525 53.3403 993.519 53.1066ZM988.956 52.4047C988.934 51.4233 988.911 50.4477 988.889 49.4663C989.87 49.4438 990.846 49.4214 991.827 49.3989C991.85 50.3803 991.872 51.3559 991.895 52.3373C990.916 52.3627 989.938 52.3822 988.956 52.4047Z" fill="url(#paint73_linear_497_2)"/>
<path d="M1016.76 75.3039C1016.73 73.7909 1016.69 72.2721 1016.66 70.759C1016.65 70.3268 1016.27 69.9643 1015.84 69.9742C1014.32 70.0089 1012.8 70.0437 1011.29 70.0784C1010.86 70.0883 1010.5 70.4678 1010.51 70.9001C1010.54 72.4131 1010.58 73.9319 1010.61 75.4449C1010.62 75.8772 1011 76.2397 1011.43 76.2298C1012.94 76.1951 1014.46 76.1602 1015.98 76.1255C1016.21 76.1202 1016.39 76.0284 1016.52 75.8969C1016.52 75.888 1016.53 75.882 1016.54 75.873C1016.54 75.8671 1016.55 75.8581 1016.56 75.8521C1016.68 75.7207 1016.77 75.5376 1016.76 75.3039ZM1012.2 74.6019C1012.18 73.6205 1012.15 72.645 1012.13 71.6636C1013.11 71.6411 1014.09 71.6187 1015.07 71.5962C1015.09 72.5776 1015.11 73.5532 1015.14 74.5346C1014.16 74.5599 1013.18 74.5794 1012.2 74.6019Z" fill="url(#paint74_linear_497_2)"/>
<path d="M1040 97.5012C1039.97 95.9882 1039.93 94.4693 1039.9 92.9563C1039.89 92.524 1039.51 92.1616 1039.07 92.1715C1037.56 92.2062 1036.04 92.241 1034.53 92.2757C1034.1 92.2856 1033.73 92.6651 1033.74 93.0973C1033.78 94.6103 1033.81 96.1292 1033.85 97.6422C1033.86 98.0745 1034.24 98.4369 1034.67 98.427C1036.18 98.3923 1037.7 98.3575 1039.22 98.3228C1039.45 98.3174 1039.63 98.2257 1039.75 98.0942C1039.76 98.0852 1039.77 98.0793 1039.78 98.0703C1039.78 98.0643 1039.79 98.0554 1039.8 98.0494C1039.92 97.9179 1040.01 97.7348 1040 97.5012ZM1035.44 96.8021C1035.42 95.8207 1035.39 94.8451 1035.37 93.8637C1036.35 93.8412 1037.33 93.8188 1038.31 93.7963C1038.33 94.7777 1038.36 95.7533 1038.38 96.7347C1037.4 96.7572 1036.42 96.7767 1035.44 96.8021Z" fill="url(#paint75_linear_497_2)"/>
</g>
<rect x="1361.72" y="339.488" width="226.607" height="284.947" rx="20" transform="rotate(135 1361.72 339.488)" fill="#4EAF4E"/>
</g>
<defs>
<linearGradient id="paint0_linear_497_2" x1="1184.92" y1="-291.478" x2="1201.42" y2="249.642" gradientUnits="userSpaceOnUse">
<stop stop-color="#BE965D"/>
<stop offset="0.2784" stop-color="#976F40"/>
<stop offset="0.4259" stop-color="#C99B61"/>
<stop offset="0.5584" stop-color="#F0BE7B"/>
<stop offset="0.6275" stop-color="#FFCB85"/>
<stop offset="0.7085" stop-color="#EEBC79"/>
<stop offset="0.8693" stop-color="#C0935B"/>
<stop offset="1" stop-color="#976F40"/>
</linearGradient>
<linearGradient id="paint1_linear_497_2" x1="1162.2" y1="-290.784" x2="1178.7" y2="250.335" gradientUnits="userSpaceOnUse">
<stop stop-color="#BE965D"/>
<stop offset="0.2784" stop-color="#976F40"/>
<stop offset="0.4259" stop-color="#C99B61"/>
<stop offset="0.5584" stop-color="#F0BE7B"/>
<stop offset="0.6275" stop-color="#FFCB85"/>
<stop offset="0.7085" stop-color="#EEBC79"/>
<stop offset="0.8693" stop-color="#C0935B"/>
<stop offset="1" stop-color="#976F40"/>
</linearGradient>
<linearGradient id="paint2_linear_497_2" x1="1184.74" y1="-291.471" x2="1201.24" y2="249.648" gradientUnits="userSpaceOnUse">
<stop stop-color="#BE965D"/>
<stop offset="0.2784" stop-color="#976F40"/>
<stop offset="0.4259" stop-color="#C99B61"/>
<stop offset="0.5584" stop-color="#F0BE7B"/>
<stop offset="0.6275" stop-color="#FFCB85"/>
<stop offset="0.7085" stop-color="#EEBC79"/>
<stop offset="0.8693" stop-color="#C0935B"/>
<stop offset="1" stop-color="#976F40"/>
</linearGradient>
<linearGradient id="paint3_linear_497_2" x1="1139.49" y1="-290.093" x2="1155.99" y2="251.027" gradientUnits="userSpaceOnUse">
<stop stop-color="#BE965D"/>
<stop offset="0.2784" stop-color="#976F40"/>
<stop offset="0.4259" stop-color="#C99B61"/>
<stop offset="0.5584" stop-color="#F0BE7B"/>
<stop offset="0.6275" stop-color="#FFCB85"/>
<stop offset="0.7085" stop-color="#EEBC79"/>
<stop offset="0.8693" stop-color="#C0935B"/>
<stop offset="1" stop-color="#976F40"/>
</linearGradient>
<linearGradient id="paint4_linear_497_2" x1="1162.03" y1="-290.78" x2="1178.53" y2="250.34" gradientUnits="userSpaceOnUse">
<stop stop-color="#BE965D"/>
<stop offset="0.2784" stop-color="#976F40"/>
<stop offset="0.4259" stop-color="#C99B61"/>
<stop offset="0.5584" stop-color="#F0BE7B"/>
<stop offset="0.6275" stop-color="#FFCB85"/>
<stop offset="0.7085" stop-color="#EEBC79"/>
<stop offset="0.8693" stop-color="#C0935B"/>
<stop offset="1" stop-color="#976F40"/>
</linearGradient>
<linearGradient id="paint5_linear_497_2" x1="1184.57" y1="-291.468" x2="1201.07" y2="249.652" gradientUnits="userSpaceOnUse">
<stop stop-color="#BE965D"/>
<stop offset="0.2784" stop-color="#976F40"/>
<stop offset="0.4259" stop-color="#C99B61"/>
<stop offset="0.5584" stop-color="#F0BE7B"/>
<stop offset="0.6275" stop-color="#FFCB85"/>
<stop offset="0.7085" stop-color="#EEBC79"/>
<stop offset="0.8693" stop-color="#C0935B"/>
<stop offset="1" stop-color="#976F40"/>
</linearGradient>
<linearGradient id="paint6_linear_497_2" x1="1139.32" y1="-290.087" x2="1155.82" y2="251.033" gradientUnits="userSpaceOnUse">
<stop stop-color="#BE965D"/>
<stop offset="0.2784" stop-color="#976F40"/>
<stop offset="0.4259" stop-color="#C99B61"/>
<stop offset="0.5584" stop-color="#F0BE7B"/>
<stop offset="0.6275" stop-color="#FFCB85"/>
<stop offset="0.7085" stop-color="#EEBC79"/>
<stop offset="0.8693" stop-color="#C0935B"/>
<stop offset="1" stop-color="#976F40"/>
</linearGradient>
<linearGradient id="paint7_linear_497_2" x1="1161.86" y1="-290.774" x2="1178.36" y2="250.345" gradientUnits="userSpaceOnUse">
<stop stop-color="#BE965D"/>
<stop offset="0.2784" stop-color="#976F40"/>
<stop offset="0.4259" stop-color="#C99B61"/>
<stop offset="0.5584" stop-color="#F0BE7B"/>
<stop offset="0.6275" stop-color="#FFCB85"/>
<stop offset="0.7085" stop-color="#EEBC79"/>
<stop offset="0.8693" stop-color="#C0935B"/>
<stop offset="1" stop-color="#976F40"/>
</linearGradient>
<linearGradient id="paint8_linear_497_2" x1="1184.4" y1="-291.462" x2="1200.9" y2="249.657" gradientUnits="userSpaceOnUse">
<stop stop-color="#BE965D"/>
<stop offset="0.2784" stop-color="#976F40"/>
<stop offset="0.4259" stop-color="#C99B61"/>
<stop offset="0.5584" stop-color="#F0BE7B"/>
<stop offset="0.6275" stop-color="#FFCB85"/>
<stop offset="0.7085" stop-color="#EEBC79"/>
<stop offset="0.8693" stop-color="#C0935B"/>
<stop offset="1" stop-color="#976F40"/>
</linearGradient>
<linearGradient id="paint9_linear_497_2" x1="1116.6" y1="-289.394" x2="1133.1" y2="251.725" gradientUnits="userSpaceOnUse">
<stop stop-color="#BE965D"/>
<stop offset="0.2784" stop-color="#976F40"/>
<stop offset="0.4259" stop-color="#C99B61"/>
<stop offset="0.5584" stop-color="#F0BE7B"/>
<stop offset="0.6275" stop-color="#FFCB85"/>
<stop offset="0.7085" stop-color="#EEBC79"/>
<stop offset="0.8693" stop-color="#C0935B"/>
<stop offset="1" stop-color="#976F40"/>
</linearGradient>
<linearGradient id="paint10_linear_497_2" x1="1139.14" y1="-290.084" x2="1155.64" y2="251.036" gradientUnits="userSpaceOnUse">
<stop stop-color="#BE965D"/>
<stop offset="0.2784" stop-color="#976F40"/>
<stop offset="0.4259" stop-color="#C99B61"/>
<stop offset="0.5584" stop-color="#F0BE7B"/>
<stop offset="0.6275" stop-color="#FFCB85"/>
<stop offset="0.7085" stop-color="#EEBC79"/>
<stop offset="0.8693" stop-color="#C0935B"/>
<stop offset="1" stop-color="#976F40"/>
</linearGradient>
<linearGradient id="paint11_linear_497_2" x1="1161.69" y1="-290.77" x2="1178.18" y2="250.351" gradientUnits="userSpaceOnUse">
<stop stop-color="#BE965D"/>
<stop offset="0.2784" stop-color="#976F40"/>
<stop offset="0.4259" stop-color="#C99B61"/>
<stop offset="0.5584" stop-color="#F0BE7B"/>
<stop offset="0.6275" stop-color="#FFCB85"/>
<stop offset="0.7085" stop-color="#EEBC79"/>
<stop offset="0.8693" stop-color="#C0935B"/>
<stop offset="1" stop-color="#976F40"/>
</linearGradient>
<linearGradient id="paint12_linear_497_2" x1="1184.23" y1="-291.457" x2="1200.73" y2="249.663" gradientUnits="userSpaceOnUse">
<stop stop-color="#BE965D"/>
<stop offset="0.2784" stop-color="#976F40"/>
<stop offset="0.4259" stop-color="#C99B61"/>
<stop offset="0.5584" stop-color="#F0BE7B"/>
<stop offset="0.6275" stop-color="#FFCB85"/>
<stop offset="0.7085" stop-color="#EEBC79"/>
<stop offset="0.8693" stop-color="#C0935B"/>
<stop offset="1" stop-color="#976F40"/>
</linearGradient>
<linearGradient id="paint13_linear_497_2" x1="1116.43" y1="-289.388" x2="1132.93" y2="251.731" gradientUnits="userSpaceOnUse">
<stop stop-color="#BE965D"/>
<stop offset="0.2784" stop-color="#976F40"/>
<stop offset="0.4259" stop-color="#C99B61"/>
<stop offset="0.5584" stop-color="#F0BE7B"/>
<stop offset="0.6275" stop-color="#FFCB85"/>
<stop offset="0.7085" stop-color="#EEBC79"/>
<stop offset="0.8693" stop-color="#C0935B"/>
<stop offset="1" stop-color="#976F40"/>
</linearGradient>
<linearGradient id="paint14_linear_497_2" x1="1138.97" y1="-290.076" x2="1155.47" y2="251.043" gradientUnits="userSpaceOnUse">
<stop stop-color="#BE965D"/>
<stop offset="0.2784" stop-color="#976F40"/>
<stop offset="0.4259" stop-color="#C99B61"/>
<stop offset="0.5584" stop-color="#F0BE7B"/>
<stop offset="0.6275" stop-color="#FFCB85"/>
<stop offset="0.7085" stop-color="#EEBC79"/>
<stop offset="0.8693" stop-color="#C0935B"/>
<stop offset="1" stop-color="#976F40"/>
</linearGradient>
<linearGradient id="paint15_linear_497_2" x1="1161.52" y1="-290.763" x2="1178.02" y2="250.356" gradientUnits="userSpaceOnUse">
<stop stop-color="#BE965D"/>
<stop offset="0.2784" stop-color="#976F40"/>
<stop offset="0.4259" stop-color="#C99B61"/>
<stop offset="0.5584" stop-color="#F0BE7B"/>
<stop offset="0.6275" stop-color="#FFCB85"/>
<stop offset="0.7085" stop-color="#EEBC79"/>
<stop offset="0.8693" stop-color="#C0935B"/>
<stop offset="1" stop-color="#976F40"/>
</linearGradient>
<linearGradient id="paint16_linear_497_2" x1="1184.05" y1="-291.451" x2="1200.55" y2="249.669" gradientUnits="userSpaceOnUse">
<stop stop-color="#BE965D"/>
<stop offset="0.2784" stop-color="#976F40"/>
<stop offset="0.4259" stop-color="#C99B61"/>
<stop offset="0.5584" stop-color="#F0BE7B"/>
<stop offset="0.6275" stop-color="#FFCB85"/>
<stop offset="0.7085" stop-color="#EEBC79"/>
<stop offset="0.8693" stop-color="#C0935B"/>
<stop offset="1" stop-color="#976F40"/>
</linearGradient>
<linearGradient id="paint17_linear_497_2" x1="1093.72" y1="-288.698" x2="1110.22" y2="252.422" gradientUnits="userSpaceOnUse">
<stop stop-color="#BE965D"/>
<stop offset="0.2784" stop-color="#976F40"/>
<stop offset="0.4259" stop-color="#C99B61"/>
<stop offset="0.5584" stop-color="#F0BE7B"/>
<stop offset="0.6275" stop-color="#FFCB85"/>
<stop offset="0.7085" stop-color="#EEBC79"/>
<stop offset="0.8693" stop-color="#C0935B"/>
<stop offset="1" stop-color="#976F40"/>
</linearGradient>
<linearGradient id="paint18_linear_497_2" x1="1116.26" y1="-289.385" x2="1132.76" y2="251.735" gradientUnits="userSpaceOnUse">
<stop stop-color="#BE965D"/>
<stop offset="0.2784" stop-color="#976F40"/>
<stop offset="0.4259" stop-color="#C99B61"/>
<stop offset="0.5584" stop-color="#F0BE7B"/>
<stop offset="0.6275" stop-color="#FFCB85"/>
<stop offset="0.7085" stop-color="#EEBC79"/>
<stop offset="0.8693" stop-color="#C0935B"/>
<stop offset="1" stop-color="#976F40"/>
</linearGradient>
<linearGradient id="paint19_linear_497_2" x1="1138.8" y1="-290.073" x2="1155.3" y2="251.047" gradientUnits="userSpaceOnUse">
<stop stop-color="#BE965D"/>
<stop offset="0.2784" stop-color="#976F40"/>
<stop offset="0.4259" stop-color="#C99B61"/>
<stop offset="0.5584" stop-color="#F0BE7B"/>
<stop offset="0.6275" stop-color="#FFCB85"/>
<stop offset="0.7085" stop-color="#EEBC79"/>
<stop offset="0.8693" stop-color="#C0935B"/>
<stop offset="1" stop-color="#976F40"/>
</linearGradient>
<linearGradient id="paint20_linear_497_2" x1="1161.34" y1="-290.76" x2="1177.84" y2="250.36" gradientUnits="userSpaceOnUse">
<stop stop-color="#BE965D"/>
<stop offset="0.2784" stop-color="#976F40"/>
<stop offset="0.4259" stop-color="#C99B61"/>
<stop offset="0.5584" stop-color="#F0BE7B"/>
<stop offset="0.6275" stop-color="#FFCB85"/>
<stop offset="0.7085" stop-color="#EEBC79"/>
<stop offset="0.8693" stop-color="#C0935B"/>
<stop offset="1" stop-color="#976F40"/>
</linearGradient>
<linearGradient id="paint21_linear_497_2" x1="1183.88" y1="-291.448" x2="1200.38" y2="249.673" gradientUnits="userSpaceOnUse">
<stop stop-color="#BE965D"/>
<stop offset="0.2784" stop-color="#976F40"/>
<stop offset="0.4259" stop-color="#C99B61"/>
<stop offset="0.5584" stop-color="#F0BE7B"/>
<stop offset="0.6275" stop-color="#FFCB85"/>
<stop offset="0.7085" stop-color="#EEBC79"/>
<stop offset="0.8693" stop-color="#C0935B"/>
<stop offset="1" stop-color="#976F40"/>
</linearGradient>
<linearGradient id="paint22_linear_497_2" x1="1093.71" y1="-289.035" x2="1110.21" y2="252.084" gradientUnits="userSpaceOnUse">
<stop stop-color="#BE965D"/>
<stop offset="0.2784" stop-color="#976F40"/>
<stop offset="0.4259" stop-color="#C99B61"/>
<stop offset="0.5584" stop-color="#F0BE7B"/>
<stop offset="0.6275" stop-color="#FFCB85"/>
<stop offset="0.7085" stop-color="#EEBC79"/>
<stop offset="0.8693" stop-color="#C0935B"/>
<stop offset="1" stop-color="#976F40"/>
</linearGradient>
<linearGradient id="paint23_linear_497_2" x1="1116.09" y1="-289.379" x2="1132.58" y2="251.741" gradientUnits="userSpaceOnUse">
<stop stop-color="#BE965D"/>
<stop offset="0.2784" stop-color="#976F40"/>
<stop offset="0.4259" stop-color="#C99B61"/>
<stop offset="0.5584" stop-color="#F0BE7B"/>
<stop offset="0.6275" stop-color="#FFCB85"/>
<stop offset="0.7085" stop-color="#EEBC79"/>
<stop offset="0.8693" stop-color="#C0935B"/>
<stop offset="1" stop-color="#976F40"/>
</linearGradient>
<linearGradient id="paint24_linear_497_2" x1="1138.63" y1="-290.066" x2="1155.13" y2="251.053" gradientUnits="userSpaceOnUse">
<stop stop-color="#BE965D"/>
<stop offset="0.2784" stop-color="#976F40"/>
<stop offset="0.4259" stop-color="#C99B61"/>
<stop offset="0.5584" stop-color="#F0BE7B"/>
<stop offset="0.6275" stop-color="#FFCB85"/>
<stop offset="0.7085" stop-color="#EEBC79"/>
<stop offset="0.8693" stop-color="#C0935B"/>
<stop offset="1" stop-color="#976F40"/>
</linearGradient>
<linearGradient id="paint25_linear_497_2" x1="1161.17" y1="-290.754" x2="1177.67" y2="250.365" gradientUnits="userSpaceOnUse">
<stop stop-color="#BE965D"/>
<stop offset="0.2784" stop-color="#976F40"/>
<stop offset="0.4259" stop-color="#C99B61"/>
<stop offset="0.5584" stop-color="#F0BE7B"/>
<stop offset="0.6275" stop-color="#FFCB85"/>
<stop offset="0.7085" stop-color="#EEBC79"/>
<stop offset="0.8693" stop-color="#C0935B"/>
<stop offset="1" stop-color="#976F40"/>
</linearGradient>
<linearGradient id="paint26_linear_497_2" x1="1183.71" y1="-291.44" x2="1200.21" y2="249.679" gradientUnits="userSpaceOnUse">
<stop stop-color="#BE965D"/>
<stop offset="0.2784" stop-color="#976F40"/>
<stop offset="0.4259" stop-color="#C99B61"/>
<stop offset="0.5584" stop-color="#F0BE7B"/>
<stop offset="0.6275" stop-color="#FFCB85"/>
<stop offset="0.7085" stop-color="#EEBC79"/>
<stop offset="0.8693" stop-color="#C0935B"/>
<stop offset="1" stop-color="#976F40"/>
</linearGradient>
<linearGradient id="paint27_linear_497_2" x1="1070.83" y1="-288" x2="1087.33" y2="253.12" gradientUnits="userSpaceOnUse">
<stop stop-color="#BE965D"/>
<stop offset="0.2784" stop-color="#976F40"/>
<stop offset="0.4259" stop-color="#C99B61"/>
<stop offset="0.5584" stop-color="#F0BE7B"/>
<stop offset="0.6275" stop-color="#FFCB85"/>
<stop offset="0.7085" stop-color="#EEBC79"/>
<stop offset="0.8693" stop-color="#C0935B"/>
<stop offset="1" stop-color="#976F40"/>
</linearGradient>
<linearGradient id="paint28_linear_497_2" x1="1093.37" y1="-288.687" x2="1109.87" y2="252.433" gradientUnits="userSpaceOnUse">
<stop stop-color="#BE965D"/>
<stop offset="0.2784" stop-color="#976F40"/>
<stop offset="0.4259" stop-color="#C99B61"/>
<stop offset="0.5584" stop-color="#F0BE7B"/>
<stop offset="0.6275" stop-color="#FFCB85"/>
<stop offset="0.7085" stop-color="#EEBC79"/>
<stop offset="0.8693" stop-color="#C0935B"/>
<stop offset="1" stop-color="#976F40"/>
</linearGradient>
<linearGradient id="paint29_linear_497_2" x1="1115.92" y1="-289.375" x2="1132.41" y2="251.746" gradientUnits="userSpaceOnUse">
<stop stop-color="#BE965D"/>
<stop offset="0.2784" stop-color="#976F40"/>
<stop offset="0.4259" stop-color="#C99B61"/>
<stop offset="0.5584" stop-color="#F0BE7B"/>
<stop offset="0.6275" stop-color="#FFCB85"/>
<stop offset="0.7085" stop-color="#EEBC79"/>
<stop offset="0.8693" stop-color="#C0935B"/>
<stop offset="1" stop-color="#976F40"/>
</linearGradient>
<linearGradient id="paint30_linear_497_2" x1="1138.46" y1="-290.06" x2="1154.96" y2="251.06" gradientUnits="userSpaceOnUse">
<stop stop-color="#BE965D"/>
<stop offset="0.2784" stop-color="#976F40"/>
<stop offset="0.4259" stop-color="#C99B61"/>
<stop offset="0.5584" stop-color="#F0BE7B"/>
<stop offset="0.6275" stop-color="#FFCB85"/>
<stop offset="0.7085" stop-color="#EEBC79"/>
<stop offset="0.8693" stop-color="#C0935B"/>
<stop offset="1" stop-color="#976F40"/>
</linearGradient>
<linearGradient id="paint31_linear_497_2" x1="1161" y1="-290.75" x2="1177.5" y2="250.37" gradientUnits="userSpaceOnUse">
<stop stop-color="#BE965D"/>
<stop offset="0.2784" stop-color="#976F40"/>
<stop offset="0.4259" stop-color="#C99B61"/>
<stop offset="0.5584" stop-color="#F0BE7B"/>
<stop offset="0.6275" stop-color="#FFCB85"/>
<stop offset="0.7085" stop-color="#EEBC79"/>
<stop offset="0.8693" stop-color="#C0935B"/>
<stop offset="1" stop-color="#976F40"/>
</linearGradient>
<linearGradient id="paint32_linear_497_2" x1="1183.54" y1="-291.437" x2="1200.04" y2="249.683" gradientUnits="userSpaceOnUse">
<stop stop-color="#BE965D"/>
<stop offset="0.2784" stop-color="#976F40"/>
<stop offset="0.4259" stop-color="#C99B61"/>
<stop offset="0.5584" stop-color="#F0BE7B"/>
<stop offset="0.6275" stop-color="#FFCB85"/>
<stop offset="0.7085" stop-color="#EEBC79"/>
<stop offset="0.8693" stop-color="#C0935B"/>
<stop offset="1" stop-color="#976F40"/>
</linearGradient>
<linearGradient id="paint33_linear_497_2" x1="1070.66" y1="-287.994" x2="1087.16" y2="253.126" gradientUnits="userSpaceOnUse">
<stop stop-color="#BE965D"/>
<stop offset="0.2784" stop-color="#976F40"/>
<stop offset="0.4259" stop-color="#C99B61"/>
<stop offset="0.5584" stop-color="#F0BE7B"/>
<stop offset="0.6275" stop-color="#FFCB85"/>
<stop offset="0.7085" stop-color="#EEBC79"/>
<stop offset="0.8693" stop-color="#C0935B"/>
<stop offset="1" stop-color="#976F40"/>
</linearGradient>
<linearGradient id="paint34_linear_497_2" x1="1093.2" y1="-288.682" x2="1109.7" y2="252.439" gradientUnits="userSpaceOnUse">
<stop stop-color="#BE965D"/>
<stop offset="0.2784" stop-color="#976F40"/>
<stop offset="0.4259" stop-color="#C99B61"/>
<stop offset="0.5584" stop-color="#F0BE7B"/>
<stop offset="0.6275" stop-color="#FFCB85"/>
<stop offset="0.7085" stop-color="#EEBC79"/>
<stop offset="0.8693" stop-color="#C0935B"/>
<stop offset="1" stop-color="#976F40"/>
</linearGradient>
<linearGradient id="paint35_linear_497_2" x1="1115.74" y1="-289.369" x2="1132.24" y2="251.751" gradientUnits="userSpaceOnUse">
<stop stop-color="#BE965D"/>
<stop offset="0.2784" stop-color="#976F40"/>
<stop offset="0.4259" stop-color="#C99B61"/>
<stop offset="0.5584" stop-color="#F0BE7B"/>
<stop offset="0.6275" stop-color="#FFCB85"/>
<stop offset="0.7085" stop-color="#EEBC79"/>
<stop offset="0.8693" stop-color="#C0935B"/>
<stop offset="1" stop-color="#976F40"/>
</linearGradient>
<linearGradient id="paint36_linear_497_2" x1="1138.29" y1="-290.055" x2="1154.79" y2="251.065" gradientUnits="userSpaceOnUse">
<stop stop-color="#BE965D"/>
<stop offset="0.2784" stop-color="#976F40"/>
<stop offset="0.4259" stop-color="#C99B61"/>
<stop offset="0.5584" stop-color="#F0BE7B"/>
<stop offset="0.6275" stop-color="#FFCB85"/>
<stop offset="0.7085" stop-color="#EEBC79"/>
<stop offset="0.8693" stop-color="#C0935B"/>
<stop offset="1" stop-color="#976F40"/>
</linearGradient>
<linearGradient id="paint37_linear_497_2" x1="1160.83" y1="-290.743" x2="1177.33" y2="250.378" gradientUnits="userSpaceOnUse">
<stop stop-color="#BE965D"/>
<stop offset="0.2784" stop-color="#976F40"/>
<stop offset="0.4259" stop-color="#C99B61"/>
<stop offset="0.5584" stop-color="#F0BE7B"/>
<stop offset="0.6275" stop-color="#FFCB85"/>
<stop offset="0.7085" stop-color="#EEBC79"/>
<stop offset="0.8693" stop-color="#C0935B"/>
<stop offset="1" stop-color="#976F40"/>
</linearGradient>
<linearGradient id="paint38_linear_497_2" x1="1183.37" y1="-291.432" x2="1199.87" y2="249.689" gradientUnits="userSpaceOnUse">
<stop stop-color="#BE965D"/>
<stop offset="0.2784" stop-color="#976F40"/>
<stop offset="0.4259" stop-color="#C99B61"/>
<stop offset="0.5584" stop-color="#F0BE7B"/>
<stop offset="0.6275" stop-color="#FFCB85"/>
<stop offset="0.7085" stop-color="#EEBC79"/>
<stop offset="0.8693" stop-color="#C0935B"/>
<stop offset="1" stop-color="#976F40"/>
</linearGradient>
<linearGradient id="paint39_linear_497_2" x1="1047.94" y1="-287.302" x2="1064.44" y2="253.819" gradientUnits="userSpaceOnUse">
<stop stop-color="#BE965D"/>
<stop offset="0.2784" stop-color="#976F40"/>
<stop offset="0.4259" stop-color="#C99B61"/>
<stop offset="0.5584" stop-color="#F0BE7B"/>
<stop offset="0.6275" stop-color="#FFCB85"/>
<stop offset="0.7085" stop-color="#EEBC79"/>
<stop offset="0.8693" stop-color="#C0935B"/>
<stop offset="1" stop-color="#976F40"/>
</linearGradient>
<linearGradient id="paint40_linear_497_2" x1="1070.49" y1="-287.989" x2="1086.99" y2="253.131" gradientUnits="userSpaceOnUse">
<stop stop-color="#BE965D"/>
<stop offset="0.2784" stop-color="#976F40"/>
<stop offset="0.4259" stop-color="#C99B61"/>
<stop offset="0.5584" stop-color="#F0BE7B"/>
<stop offset="0.6275" stop-color="#FFCB85"/>
<stop offset="0.7085" stop-color="#EEBC79"/>
<stop offset="0.8693" stop-color="#C0935B"/>
<stop offset="1" stop-color="#976F40"/>
</linearGradient>
<linearGradient id="paint41_linear_497_2" x1="1093.03" y1="-288.678" x2="1109.53" y2="252.444" gradientUnits="userSpaceOnUse">
<stop stop-color="#BE965D"/>
<stop offset="0.2784" stop-color="#976F40"/>
<stop offset="0.4259" stop-color="#C99B61"/>
<stop offset="0.5584" stop-color="#F0BE7B"/>
<stop offset="0.6275" stop-color="#FFCB85"/>
<stop offset="0.7085" stop-color="#EEBC79"/>
<stop offset="0.8693" stop-color="#C0935B"/>
<stop offset="1" stop-color="#976F40"/>
</linearGradient>
<linearGradient id="paint42_linear_497_2" x1="1115.57" y1="-289.364" x2="1132.07" y2="251.757" gradientUnits="userSpaceOnUse">
<stop stop-color="#BE965D"/>
<stop offset="0.2784" stop-color="#976F40"/>
<stop offset="0.4259" stop-color="#C99B61"/>
<stop offset="0.5584" stop-color="#F0BE7B"/>
<stop offset="0.6275" stop-color="#FFCB85"/>
<stop offset="0.7085" stop-color="#EEBC79"/>
<stop offset="0.8693" stop-color="#C0935B"/>
<stop offset="1" stop-color="#976F40"/>
</linearGradient>
<linearGradient id="paint43_linear_497_2" x1="1138.11" y1="-290.052" x2="1154.61" y2="251.069" gradientUnits="userSpaceOnUse">
<stop stop-color="#BE965D"/>
<stop offset="0.2784" stop-color="#976F40"/>
<stop offset="0.4259" stop-color="#C99B61"/>
<stop offset="0.5584" stop-color="#F0BE7B"/>
<stop offset="0.6275" stop-color="#FFCB85"/>
<stop offset="0.7085" stop-color="#EEBC79"/>
<stop offset="0.8693" stop-color="#C0935B"/>
<stop offset="1" stop-color="#976F40"/>
</linearGradient>
<linearGradient id="paint44_linear_497_2" x1="1160.65" y1="-290.739" x2="1177.15" y2="250.381" gradientUnits="userSpaceOnUse">
<stop stop-color="#BE965D"/>
<stop offset="0.2784" stop-color="#976F40"/>
<stop offset="0.4259" stop-color="#C99B61"/>
<stop offset="0.5584" stop-color="#F0BE7B"/>
<stop offset="0.6275" stop-color="#FFCB85"/>
<stop offset="0.7085" stop-color="#EEBC79"/>
<stop offset="0.8693" stop-color="#C0935B"/>
<stop offset="1" stop-color="#976F40"/>
</linearGradient>
<linearGradient id="paint45_linear_497_2" x1="1047.77" y1="-287.295" x2="1064.27" y2="253.825" gradientUnits="userSpaceOnUse">
<stop stop-color="#BE965D"/>
<stop offset="0.2784" stop-color="#976F40"/>
<stop offset="0.4259" stop-color="#C99B61"/>
<stop offset="0.5584" stop-color="#F0BE7B"/>
<stop offset="0.6275" stop-color="#FFCB85"/>
<stop offset="0.7085" stop-color="#EEBC79"/>
<stop offset="0.8693" stop-color="#C0935B"/>
<stop offset="1" stop-color="#976F40"/>
</linearGradient>
<linearGradient id="paint46_linear_497_2" x1="1070.32" y1="-287.983" x2="1086.82" y2="253.137" gradientUnits="userSpaceOnUse">
<stop stop-color="#BE965D"/>
<stop offset="0.2784" stop-color="#976F40"/>
<stop offset="0.4259" stop-color="#C99B61"/>
<stop offset="0.5584" stop-color="#F0BE7B"/>
<stop offset="0.6275" stop-color="#FFCB85"/>
<stop offset="0.7085" stop-color="#EEBC79"/>
<stop offset="0.8693" stop-color="#C0935B"/>
<stop offset="1" stop-color="#976F40"/>
</linearGradient>
<linearGradient id="paint47_linear_497_2" x1="1092.86" y1="-288.671" x2="1109.36" y2="252.45" gradientUnits="userSpaceOnUse">
<stop stop-color="#BE965D"/>
<stop offset="0.2784" stop-color="#976F40"/>
<stop offset="0.4259" stop-color="#C99B61"/>
<stop offset="0.5584" stop-color="#F0BE7B"/>
<stop offset="0.6275" stop-color="#FFCB85"/>
<stop offset="0.7085" stop-color="#EEBC79"/>
<stop offset="0.8693" stop-color="#C0935B"/>
<stop offset="1" stop-color="#976F40"/>
</linearGradient>
<linearGradient id="paint48_linear_497_2" x1="1115.4" y1="-289.358" x2="1131.9" y2="251.763" gradientUnits="userSpaceOnUse">
<stop stop-color="#BE965D"/>
<stop offset="0.2784" stop-color="#976F40"/>
<stop offset="0.4259" stop-color="#C99B61"/>
<stop offset="0.5584" stop-color="#F0BE7B"/>
<stop offset="0.6275" stop-color="#FFCB85"/>
<stop offset="0.7085" stop-color="#EEBC79"/>
<stop offset="0.8693" stop-color="#C0935B"/>
<stop offset="1" stop-color="#976F40"/>
</linearGradient>
<linearGradient id="paint49_linear_497_2" x1="1137.94" y1="-290.046" x2="1154.44" y2="251.075" gradientUnits="userSpaceOnUse">
<stop stop-color="#BE965D"/>
<stop offset="0.2784" stop-color="#976F40"/>
<stop offset="0.4259" stop-color="#C99B61"/>
<stop offset="0.5584" stop-color="#F0BE7B"/>
<stop offset="0.6275" stop-color="#FFCB85"/>
<stop offset="0.7085" stop-color="#EEBC79"/>
<stop offset="0.8693" stop-color="#C0935B"/>
<stop offset="1" stop-color="#976F40"/>
</linearGradient>
<linearGradient id="paint50_linear_497_2" x1="1160.48" y1="-290.734" x2="1176.98" y2="250.387" gradientUnits="userSpaceOnUse">
<stop stop-color="#BE965D"/>
<stop offset="0.2784" stop-color="#976F40"/>
<stop offset="0.4259" stop-color="#C99B61"/>
<stop offset="0.5584" stop-color="#F0BE7B"/>
<stop offset="0.6275" stop-color="#FFCB85"/>
<stop offset="0.7085" stop-color="#EEBC79"/>
<stop offset="0.8693" stop-color="#C0935B"/>
<stop offset="1" stop-color="#976F40"/>
</linearGradient>
<linearGradient id="paint51_linear_497_2" x1="1116.78" y1="-289.399" x2="1133.28" y2="251.72" gradientUnits="userSpaceOnUse">
<stop stop-color="#BE965D"/>
<stop offset="0.2784" stop-color="#976F40"/>
<stop offset="0.4259" stop-color="#C99B61"/>
<stop offset="0.5584" stop-color="#F0BE7B"/>
<stop offset="0.6275" stop-color="#FFCB85"/>
<stop offset="0.7085" stop-color="#EEBC79"/>
<stop offset="0.8693" stop-color="#C0935B"/>
<stop offset="1" stop-color="#976F40"/>
</linearGradient>
<linearGradient id="paint52_linear_497_2" x1="1094.06" y1="-288.706" x2="1110.56" y2="252.413" gradientUnits="userSpaceOnUse">
<stop stop-color="#BE965D"/>
<stop offset="0.2784" stop-color="#976F40"/>
<stop offset="0.4259" stop-color="#C99B61"/>
<stop offset="0.5584" stop-color="#F0BE7B"/>
<stop offset="0.6275" stop-color="#FFCB85"/>
<stop offset="0.7085" stop-color="#EEBC79"/>
<stop offset="0.8693" stop-color="#C0935B"/>
<stop offset="1" stop-color="#976F40"/>
</linearGradient>
<linearGradient id="paint53_linear_497_2" x1="1071.35" y1="-288.015" x2="1087.84" y2="253.104" gradientUnits="userSpaceOnUse">
<stop stop-color="#BE965D"/>
<stop offset="0.2784" stop-color="#976F40"/>
<stop offset="0.4259" stop-color="#C99B61"/>
<stop offset="0.5584" stop-color="#F0BE7B"/>
<stop offset="0.6275" stop-color="#FFCB85"/>
<stop offset="0.7085" stop-color="#EEBC79"/>
<stop offset="0.8693" stop-color="#C0935B"/>
<stop offset="1" stop-color="#976F40"/>
</linearGradient>
<linearGradient id="paint54_linear_497_2" x1="1093.89" y1="-288.702" x2="1110.39" y2="252.417" gradientUnits="userSpaceOnUse">
<stop stop-color="#BE965D"/>
<stop offset="0.2784" stop-color="#976F40"/>
<stop offset="0.4259" stop-color="#C99B61"/>
<stop offset="0.5584" stop-color="#F0BE7B"/>
<stop offset="0.6275" stop-color="#FFCB85"/>
<stop offset="0.7085" stop-color="#EEBC79"/>
<stop offset="0.8693" stop-color="#C0935B"/>
<stop offset="1" stop-color="#976F40"/>
</linearGradient>
<linearGradient id="paint55_linear_497_2" x1="1048.64" y1="-287.322" x2="1065.13" y2="253.798" gradientUnits="userSpaceOnUse">
<stop stop-color="#BE965D"/>
<stop offset="0.2784" stop-color="#976F40"/>
<stop offset="0.4259" stop-color="#C99B61"/>
<stop offset="0.5584" stop-color="#F0BE7B"/>
<stop offset="0.6275" stop-color="#FFCB85"/>
<stop offset="0.7085" stop-color="#EEBC79"/>
<stop offset="0.8693" stop-color="#C0935B"/>
<stop offset="1" stop-color="#976F40"/>
</linearGradient>
<linearGradient id="paint56_linear_497_2" x1="1071.18" y1="-288.01" x2="1087.68" y2="253.11" gradientUnits="userSpaceOnUse">
<stop stop-color="#BE965D"/>
<stop offset="0.2784" stop-color="#976F40"/>
<stop offset="0.4259" stop-color="#C99B61"/>
<stop offset="0.5584" stop-color="#F0BE7B"/>
<stop offset="0.6275" stop-color="#FFCB85"/>
<stop offset="0.7085" stop-color="#EEBC79"/>
<stop offset="0.8693" stop-color="#C0935B"/>
<stop offset="1" stop-color="#976F40"/>
</linearGradient>
<linearGradient id="paint57_linear_497_2" x1="1025.92" y1="-286.631" x2="1042.42" y2="254.489" gradientUnits="userSpaceOnUse">
<stop stop-color="#BE965D"/>
<stop offset="0.2784" stop-color="#976F40"/>
<stop offset="0.4259" stop-color="#C99B61"/>
<stop offset="0.5584" stop-color="#F0BE7B"/>
<stop offset="0.6275" stop-color="#FFCB85"/>
<stop offset="0.7085" stop-color="#EEBC79"/>
<stop offset="0.8693" stop-color="#C0935B"/>
<stop offset="1" stop-color="#976F40"/>
</linearGradient>
<linearGradient id="paint58_linear_497_2" x1="1048.46" y1="-287.318" x2="1064.96" y2="253.801" gradientUnits="userSpaceOnUse">
<stop stop-color="#BE965D"/>
<stop offset="0.2784" stop-color="#976F40"/>
<stop offset="0.4259" stop-color="#C99B61"/>
<stop offset="0.5584" stop-color="#F0BE7B"/>
<stop offset="0.6275" stop-color="#FFCB85"/>
<stop offset="0.7085" stop-color="#EEBC79"/>
<stop offset="0.8693" stop-color="#C0935B"/>
<stop offset="1" stop-color="#976F40"/>
</linearGradient>
<linearGradient id="paint59_linear_497_2" x1="1071" y1="-288.004" x2="1087.5" y2="253.115" gradientUnits="userSpaceOnUse">
<stop stop-color="#BE965D"/>
<stop offset="0.2784" stop-color="#976F40"/>
<stop offset="0.4259" stop-color="#C99B61"/>
<stop offset="0.5584" stop-color="#F0BE7B"/>
<stop offset="0.6275" stop-color="#FFCB85"/>
<stop offset="0.7085" stop-color="#EEBC79"/>
<stop offset="0.8693" stop-color="#C0935B"/>
<stop offset="1" stop-color="#976F40"/>
</linearGradient>
<linearGradient id="paint60_linear_497_2" x1="1003.21" y1="-285.939" x2="1019.71" y2="255.181" gradientUnits="userSpaceOnUse">
<stop stop-color="#BE965D"/>
<stop offset="0.2784" stop-color="#976F40"/>
<stop offset="0.4259" stop-color="#C99B61"/>
<stop offset="0.5584" stop-color="#F0BE7B"/>
<stop offset="0.6275" stop-color="#FFCB85"/>
<stop offset="0.7085" stop-color="#EEBC79"/>
<stop offset="0.8693" stop-color="#C0935B"/>
<stop offset="1" stop-color="#976F40"/>
</linearGradient>
<linearGradient id="paint61_linear_497_2" x1="1025.75" y1="-286.624" x2="1042.25" y2="254.496" gradientUnits="userSpaceOnUse">
<stop stop-color="#BE965D"/>
<stop offset="0.2784" stop-color="#976F40"/>
<stop offset="0.4259" stop-color="#C99B61"/>
<stop offset="0.5584" stop-color="#F0BE7B"/>
<stop offset="0.6275" stop-color="#FFCB85"/>
<stop offset="0.7085" stop-color="#EEBC79"/>
<stop offset="0.8693" stop-color="#C0935B"/>
<stop offset="1" stop-color="#976F40"/>
</linearGradient>
<linearGradient id="paint62_linear_497_2" x1="1048.29" y1="-287.312" x2="1064.79" y2="253.808" gradientUnits="userSpaceOnUse">
<stop stop-color="#BE965D"/>
<stop offset="0.2784" stop-color="#976F40"/>
<stop offset="0.4259" stop-color="#C99B61"/>
<stop offset="0.5584" stop-color="#F0BE7B"/>
<stop offset="0.6275" stop-color="#FFCB85"/>
<stop offset="0.7085" stop-color="#EEBC79"/>
<stop offset="0.8693" stop-color="#C0935B"/>
<stop offset="1" stop-color="#976F40"/>
</linearGradient>
<linearGradient id="paint63_linear_497_2" x1="980.496" y1="-285.244" x2="996.995" y2="255.877" gradientUnits="userSpaceOnUse">
<stop stop-color="#BE965D"/>
<stop offset="0.2784" stop-color="#976F40"/>
<stop offset="0.4259" stop-color="#C99B61"/>
<stop offset="0.5584" stop-color="#F0BE7B"/>
<stop offset="0.6275" stop-color="#FFCB85"/>
<stop offset="0.7085" stop-color="#EEBC79"/>
<stop offset="0.8693" stop-color="#C0935B"/>
<stop offset="1" stop-color="#976F40"/>
</linearGradient>
<linearGradient id="paint64_linear_497_2" x1="1003.03" y1="-285.934" x2="1019.53" y2="255.187" gradientUnits="userSpaceOnUse">
<stop stop-color="#BE965D"/>
<stop offset="0.2784" stop-color="#976F40"/>
<stop offset="0.4259" stop-color="#C99B61"/>
<stop offset="0.5584" stop-color="#F0BE7B"/>
<stop offset="0.6275" stop-color="#FFCB85"/>
<stop offset="0.7085" stop-color="#EEBC79"/>
<stop offset="0.8693" stop-color="#C0935B"/>
<stop offset="1" stop-color="#976F40"/>
</linearGradient>
<linearGradient id="paint65_linear_497_2" x1="1025.58" y1="-286.619" x2="1042.08" y2="254.502" gradientUnits="userSpaceOnUse">
<stop stop-color="#BE965D"/>
<stop offset="0.2784" stop-color="#976F40"/>
<stop offset="0.4259" stop-color="#C99B61"/>
<stop offset="0.5584" stop-color="#F0BE7B"/>
<stop offset="0.6275" stop-color="#FFCB85"/>
<stop offset="0.7085" stop-color="#EEBC79"/>
<stop offset="0.8693" stop-color="#C0935B"/>
<stop offset="1" stop-color="#976F40"/>
</linearGradient>
<linearGradient id="paint66_linear_497_2" x1="1048.12" y1="-287.307" x2="1064.62" y2="253.814" gradientUnits="userSpaceOnUse">
<stop stop-color="#BE965D"/>
<stop offset="0.2784" stop-color="#976F40"/>
<stop offset="0.4259" stop-color="#C99B61"/>
<stop offset="0.5584" stop-color="#F0BE7B"/>
<stop offset="0.6275" stop-color="#FFCB85"/>
<stop offset="0.7085" stop-color="#EEBC79"/>
<stop offset="0.8693" stop-color="#C0935B"/>
<stop offset="1" stop-color="#976F40"/>
</linearGradient>
<linearGradient id="paint67_linear_497_2" x1="957.779" y1="-284.553" x2="974.278" y2="256.568" gradientUnits="userSpaceOnUse">
<stop stop-color="#BE965D"/>
<stop offset="0.2784" stop-color="#976F40"/>
<stop offset="0.4259" stop-color="#C99B61"/>
<stop offset="0.5584" stop-color="#F0BE7B"/>
<stop offset="0.6275" stop-color="#FFCB85"/>
<stop offset="0.7085" stop-color="#EEBC79"/>
<stop offset="0.8693" stop-color="#C0935B"/>
<stop offset="1" stop-color="#976F40"/>
</linearGradient>
<linearGradient id="paint68_linear_497_2" x1="980.32" y1="-285.241" x2="996.819" y2="255.88" gradientUnits="userSpaceOnUse">
<stop stop-color="#BE965D"/>
<stop offset="0.2784" stop-color="#976F40"/>
<stop offset="0.4259" stop-color="#C99B61"/>
<stop offset="0.5584" stop-color="#F0BE7B"/>
<stop offset="0.6275" stop-color="#FFCB85"/>
<stop offset="0.7085" stop-color="#EEBC79"/>
<stop offset="0.8693" stop-color="#C0935B"/>
<stop offset="1" stop-color="#976F40"/>
</linearGradient>
<linearGradient id="paint69_linear_497_2" x1="1002.86" y1="-285.928" x2="1019.36" y2="255.192" gradientUnits="userSpaceOnUse">
<stop stop-color="#BE965D"/>
<stop offset="0.2784" stop-color="#976F40"/>
<stop offset="0.4259" stop-color="#C99B61"/>
<stop offset="0.5584" stop-color="#F0BE7B"/>
<stop offset="0.6275" stop-color="#FFCB85"/>
<stop offset="0.7085" stop-color="#EEBC79"/>
<stop offset="0.8693" stop-color="#C0935B"/>
<stop offset="1" stop-color="#976F40"/>
</linearGradient>
<linearGradient id="paint70_linear_497_2" x1="1025.41" y1="-286.614" x2="1041.9" y2="254.507" gradientUnits="userSpaceOnUse">
<stop stop-color="#BE965D"/>
<stop offset="0.2784" stop-color="#976F40"/>
<stop offset="0.4259" stop-color="#C99B61"/>
<stop offset="0.5584" stop-color="#F0BE7B"/>
<stop offset="0.6275" stop-color="#FFCB85"/>
<stop offset="0.7085" stop-color="#EEBC79"/>
<stop offset="0.8693" stop-color="#C0935B"/>
<stop offset="1" stop-color="#976F40"/>
</linearGradient>
<linearGradient id="paint71_linear_497_2" x1="935.064" y1="-283.861" x2="951.563" y2="257.26" gradientUnits="userSpaceOnUse">
<stop stop-color="#BE965D"/>
<stop offset="0.2784" stop-color="#976F40"/>
<stop offset="0.4259" stop-color="#C99B61"/>
<stop offset="0.5584" stop-color="#F0BE7B"/>
<stop offset="0.6275" stop-color="#FFCB85"/>
<stop offset="0.7085" stop-color="#EEBC79"/>
<stop offset="0.8693" stop-color="#C0935B"/>
<stop offset="1" stop-color="#976F40"/>
</linearGradient>
<linearGradient id="paint72_linear_497_2" x1="957.61" y1="-284.547" x2="974.109" y2="256.574" gradientUnits="userSpaceOnUse">
<stop stop-color="#BE965D"/>
<stop offset="0.2784" stop-color="#976F40"/>
<stop offset="0.4259" stop-color="#C99B61"/>
<stop offset="0.5584" stop-color="#F0BE7B"/>
<stop offset="0.6275" stop-color="#FFCB85"/>
<stop offset="0.7085" stop-color="#EEBC79"/>
<stop offset="0.8693" stop-color="#C0935B"/>
<stop offset="1" stop-color="#976F40"/>
</linearGradient>
<linearGradient id="paint73_linear_497_2" x1="980.147" y1="-285.235" x2="996.646" y2="255.886" gradientUnits="userSpaceOnUse">
<stop stop-color="#BE965D"/>
<stop offset="0.2784" stop-color="#976F40"/>
<stop offset="0.4259" stop-color="#C99B61"/>
<stop offset="0.5584" stop-color="#F0BE7B"/>
<stop offset="0.6275" stop-color="#FFCB85"/>
<stop offset="0.7085" stop-color="#EEBC79"/>
<stop offset="0.8693" stop-color="#C0935B"/>
<stop offset="1" stop-color="#976F40"/>
</linearGradient>
<linearGradient id="paint74_linear_497_2" x1="1002.69" y1="-285.922" x2="1019.19" y2="255.198" gradientUnits="userSpaceOnUse">
<stop stop-color="#BE965D"/>
<stop offset="0.2784" stop-color="#976F40"/>
<stop offset="0.4259" stop-color="#C99B61"/>
<stop offset="0.5584" stop-color="#F0BE7B"/>
<stop offset="0.6275" stop-color="#FFCB85"/>
<stop offset="0.7085" stop-color="#EEBC79"/>
<stop offset="0.8693" stop-color="#C0935B"/>
<stop offset="1" stop-color="#976F40"/>
</linearGradient>
<linearGradient id="paint75_linear_497_2" x1="1025.23" y1="-286.61" x2="1041.73" y2="254.51" gradientUnits="userSpaceOnUse">
<stop stop-color="#BE965D"/>
<stop offset="0.2784" stop-color="#976F40"/>
<stop offset="0.4259" stop-color="#C99B61"/>
<stop offset="0.5584" stop-color="#F0BE7B"/>
<stop offset="0.6275" stop-color="#FFCB85"/>
<stop offset="0.7085" stop-color="#EEBC79"/>
<stop offset="0.8693" stop-color="#C0935B"/>
<stop offset="1" stop-color="#976F40"/>
</linearGradient>
</defs>
</svg>
